<svg xmlns="http://www.w3.org/2000/svg" xmlns:xlink="http://www.w3.org/1999/xlink" xmlns:lucid="lucid" width="6848" height="1360"><g transform="translate(1696 0)" lucid:page-tab-id="0_0"><path d="M-235.77 301v5.92c0 2.7-7.6 7.15-21.96 9.7-8.05 1.38-16.1 2.05-24.26 2.04-29.9 0-46.4-7.74-46.4-11.7V301c0 3.96 16.3 11.7 46.4 11.7 8.62.04 15.84-.54 24.37-2 14.26-2.64 21.86-7 21.86-9.7z" fill="#006950"/><path d="M-224 347.85v5.2c-.8 32.18-27.5 57.55-59.5 56.7-30.98-.88-55.7-25.63-56.5-56.7v-5.2h116z" fill-opacity="0"/><path d="M-236.16 302.1v6c-1.57 2.6-9 6.3-21.6 8.5-7.97 1.4-16.13 2.06-24.3 2.06-29.93 0-46.34-7.74-46.34-11.66v-6c0 3.93 16.32 11.67 46.35 11.67 8.63.1 15.95-.55 24.4-1.97 12.7-2.18 20-5.88 21.68-8.6m.1 87.73c.08-.22.18-.44.18-.77v9.92l-.1.44c-.08.1-.17.32-.26.54v.1l-.28.34-.37.54-.38.44-.65.43-.56.45-.64.55-.74.32-.93.55-.75.43-1.3.55-.74.32c-.73.33-1.47.55-2.3.88l-.84.2-1.85.56-1.2.34-1.76.43-1.4.33-1.94.44-1.57.2-2.14.45-1.77.2-2.4.23-1.77.2-2.87.23-1.87.22-3.24.1h-6.97c-16.87 0-29.57-2.06-38-4.8-6.12-2.17-10.57-4.56-11.04-6.3v-9.5c.46 1.75 4.35 3.93 9.82 6l-.1-.54c13.36 4.14 25.22 5.88 39.22 5.88h6.96l3.33-.1 1.76-.1 2.78-.34 1.76-.1 2.5-.34 1.58-.2 2.3-.34 10.58-2.62c.84-.32 1.67-.54 2.4-.87l2.05-.86.47-.33 1.3-.64.46-.33.92-.54.37-.34.75-.65.27-.2.55-.67v-.43l.37-.87z" fill="#006950"/><path d="M-282 290c8.16-.07 16.3.6 24.37 1.98 14.26 2.55 21.86 7 21.86 9.74 0 2.78-7.6 7.08-21.96 9.65-8.05 1.35-16.1 2.03-24.26 1.98-29.9 0-46.4-7.73-46.4-11.67 0-3.97 16.4-11.68 46.4-11.68z" fill="#19967d"/><path d="M-258.32 320.8c-1.3.27-2.5.36-3.8.64-.65 0-1.3.18-2.05.27l-3.52.38c-.82 0-1.66.18-2.4.18-1.57.1-3.06.2-4.63.28h-.84c-1.85 0-3.7.1-5.65.18h-1.2c-18.36 0-36.9-3.22-45.9-9.28v80.27c.46 1.85 4.9 4.24 11.03 6.36 8.26 2.67 21.06 4.78 37.93 4.78 30.87.1 43.76-7.45 43.76-11.5V312.9c-4.83 3.3-12.62 6.17-22.72 7.9z" fill="#19967d"/><use xlink:href="#a" transform="matrix(1,0,0,1,-340,410) translate(18.049999999999997 14.4)"/><use xlink:href="#b" transform="matrix(1,0,0,1,-340,410) translate(40.5 36)"/><path d="M-95.77 471v5.92c0 2.7-7.6 7.15-21.96 9.7-8.05 1.38-16.1 2.05-24.26 2.04-29.9 0-46.4-7.74-46.4-11.7V471c0 3.96 16.3 11.7 46.4 11.7 8.62.04 15.84-.54 24.37-2 14.26-2.64 21.86-7 21.86-9.7z" fill="#ce970b"/><path d="M-84 517.85v5.2c-.8 32.18-27.5 57.55-59.5 56.7-30.98-.88-55.7-25.63-56.5-56.7v-5.2h116z" fill-opacity="0"/><path d="M-96.16 472.1v6c-1.57 2.6-9 6.3-21.6 8.5-7.97 1.4-16.13 2.06-24.3 2.06-29.93 0-46.34-7.74-46.34-11.66v-6c0 3.93 16.32 11.67 46.35 11.67 8.63.1 15.95-.55 24.4-1.97 12.7-2.18 20-5.88 21.68-8.6m.1 87.73c.08-.22.18-.44.18-.77v9.92l-.1.44c-.08.1-.17.32-.26.54v.1l-.28.34-.37.54-.38.44-.65.43-.56.45-.64.55-.74.32-.93.55-.75.43-1.3.55-.74.32c-.73.33-1.47.55-2.3.88l-.84.2-1.85.56-1.2.34-1.76.43-1.4.33-1.94.44-1.57.2-2.14.45-1.77.2-2.4.23-1.77.2-2.87.23-1.87.22-3.24.1h-6.97c-16.87 0-29.57-2.06-38-4.8-6.12-2.17-10.57-4.56-11.04-6.3v-9.5c.46 1.75 4.35 3.93 9.82 6l-.1-.54c13.36 4.14 25.22 5.88 39.22 5.88h6.96l3.33-.1 1.76-.1 2.78-.34 1.76-.1 2.5-.34 1.58-.2 2.3-.34 10.58-2.62c.84-.32 1.67-.54 2.4-.87l2.05-.86.47-.33 1.3-.64.46-.33.92-.54.37-.34.75-.65.27-.2.55-.67v-.43l.37-.87z" fill="#ce970b"/><path d="M-142 460c8.16-.07 16.3.6 24.37 1.98 14.26 2.55 21.86 7 21.86 9.74 0 2.78-7.6 7.08-21.96 9.65-8.05 1.35-16.1 2.03-24.26 1.98-29.9 0-46.4-7.73-46.4-11.67 0-3.97 16.4-11.68 46.4-11.68z" fill="#fcc438"/><path d="M-118.32 490.8c-1.3.27-2.5.36-3.8.64-.65 0-1.3.18-2.05.27l-3.52.38c-.82 0-1.66.18-2.4.18-1.57.1-3.06.2-4.63.28h-.84c-1.85 0-3.7.1-5.65.18h-1.2c-18.36 0-36.9-3.22-45.9-9.28v80.27c.46 1.85 4.9 4.24 11.03 6.36 8.26 2.67 21.06 4.78 37.93 4.78 30.87.1 43.76-7.45 43.76-11.5V482.9c-4.83 3.3-12.62 6.17-22.72 7.9z" fill="#fcc438"/><use xlink:href="#c" transform="matrix(1,0,0,1,-200,580) translate(2.6000000000000014 14.4)"/><use xlink:href="#d" transform="matrix(1,0,0,1,-200,580) translate(36.5 14.4)"/><use xlink:href="#b" transform="matrix(1,0,0,1,-200,580) translate(78.4 14.4)"/><path d="M1120 400h160v120h-160z" stroke="#000" stroke-width="2" fill="#fff"/><use xlink:href="#e" transform="matrix(1,0,0,1,1125,405) translate(38.55 58.6)"/><path d="M1503.14 271v5.92c0 2.7-7.6 7.15-21.96 9.7-8.06 1.38-16.1 2.05-24.26 2.04-29.92 0-46.4-7.74-46.4-11.7V271c0 3.96 16.3 11.7 46.4 11.7 8.6.04 15.83-.54 24.36-2 14.26-2.64 21.86-7 21.86-9.7z" fill="#55145a"/><path d="M1514.9 317.85v5.2c-.8 32.18-27.48 57.55-59.5 56.7-30.97-.88-55.68-25.63-56.5-56.7v-5.2h116z" fill-opacity="0"/><path d="M1502.75 272.1v6c-1.57 2.6-9 6.3-21.6 8.5-7.97 1.4-16.13 2.06-24.3 2.06-29.93 0-46.34-7.74-46.34-11.66v-6c0 3.93 16.33 11.67 46.36 11.67 8.62.1 15.95-.55 24.4-1.97 12.7-2.18 20-5.88 21.68-8.6m.1 87.73c.08-.22.18-.44.18-.77v9.92l-.1.44c-.1.1-.18.32-.27.54v.1l-.28.34-.37.54-.37.44-.65.43-.56.45-.65.55-.74.32-.93.55-.74.43-1.3.55-.74.32c-.74.33-1.48.55-2.32.88l-.83.2-1.85.56-1.2.34-1.77.43-1.4.33-1.94.44-1.56.2-2.14.45-1.76.2-2.4.23-1.77.2-2.87.23-1.86.22-3.24.1h-6.96c-16.87 0-29.57-2.06-38-4.8-6.12-2.17-10.57-4.56-11.04-6.3v-9.5c.47 1.75 4.36 3.93 9.83 6l-.1-.54c13.36 4.14 25.22 5.88 39.22 5.88h6.95l3.34-.1 1.76-.1 2.78-.34 1.77-.1 2.5-.34 1.58-.2 2.3-.34 10.58-2.62c.85-.32 1.68-.54 2.42-.87l2.04-.86.47-.33 1.3-.64.46-.33.9-.54.38-.34.75-.65.27-.2.56-.67v-.43l.37-.87z" fill="#55145a"/><path d="M1456.92 260c8.15-.07 16.3.6 24.36 1.98 14.26 2.55 21.86 7 21.86 9.74 0 2.78-7.6 7.08-21.96 9.65-8.06 1.35-16.1 2.03-24.26 1.98-29.92 0-46.4-7.73-46.4-11.67 0-3.97 16.38-11.68 46.4-11.68z" fill="#834187"/><path d="M1480.58 290.8c-1.3.27-2.5.36-3.8.64-.65 0-1.3.18-2.04.27l-3.52.38c-.83 0-1.67.18-2.4.18-1.6.1-3.07.2-4.64.28h-.84c-1.85 0-3.7.1-5.65.18h-1.22c-18.36 0-36.9-3.22-45.9-9.28v80.27c.47 1.85 4.92 4.24 11.04 6.36 8.25 2.67 21.05 4.78 37.92 4.78 30.87.1 43.76-7.45 43.76-11.5V282.9c-4.82 3.3-12.6 6.17-22.72 7.9z" fill="#834187"/><use xlink:href="#f" transform="matrix(1,0,0,1,1398.9094649848596,380) translate(25.5 14.4)"/><use xlink:href="#g" transform="matrix(1,0,0,1,1398.9094649848596,380) translate(18.049999999999997 36)"/><use xlink:href="#b" transform="matrix(1,0,0,1,1398.9094649848596,380) translate(40.5 57.6)"/><path d="M1503.12 511v5.92c0 2.7-7.6 7.15-21.96 9.7-8.06 1.38-16.1 2.05-24.27 2.04-29.92 0-46.4-7.74-46.4-11.7V511c0 3.96 16.3 11.7 46.4 11.7 8.6.04 15.83-.54 24.36-2 14.26-2.64 21.86-7 21.86-9.7z" fill="#55145a"/><path d="M1514.9 557.85v5.2c-.82 32.18-27.5 57.55-59.52 56.7-30.97-.88-55.68-25.63-56.5-56.7v-5.2h116z" fill-opacity="0"/><path d="M1502.73 512.1v6c-1.57 2.6-9 6.3-21.6 8.5-7.97 1.4-16.13 2.06-24.3 2.06-29.93 0-46.34-7.74-46.34-11.66v-6c0 3.93 16.3 11.67 46.34 11.67 8.62.1 15.95-.55 24.38-1.97 12.7-2.18 20.03-5.88 21.7-8.6m.1 87.73c.08-.22.18-.44.18-.77v9.92l-.1.44c-.1.1-.18.32-.27.54v.1l-.28.34-.37.54-.37.44-.64.43-.56.45-.65.55-.74.32-.92.55-.74.43-1.3.55-.74.32c-.74.33-1.48.55-2.32.88l-.83.2-1.85.56-1.2.34-1.77.43-1.4.33-1.94.44-1.58.2-2.14.45-1.76.2-2.4.23-1.77.2-2.87.23-1.86.22-3.24.1h-6.96c-16.87 0-29.57-2.06-38-4.8-6.12-2.17-10.57-4.56-11.04-6.3v-9.5c.47 1.75 4.36 3.93 9.83 6l-.08-.54c13.35 4.14 25.2 5.88 39.2 5.88h6.96l3.34-.1 1.76-.1 2.78-.34 1.77-.1 2.5-.34 1.58-.2 2.32-.34 10.57-2.62c.83-.32 1.66-.54 2.4-.87l2.04-.86.46-.33 1.3-.64.47-.33.92-.54.36-.34.75-.65.28-.2.56-.67v-.43l.37-.87z" fill="#55145a"/><path d="M1456.9 500c8.15-.07 16.3.6 24.36 1.98 14.26 2.55 21.86 7 21.86 9.74 0 2.78-7.6 7.08-21.96 9.65-8.06 1.35-16.1 2.03-24.27 1.98-29.92 0-46.4-7.73-46.4-11.67 0-3.97 16.38-11.68 46.4-11.68z" fill="#834187"/><path d="M1480.56 530.8c-1.3.27-2.5.36-3.8.64-.65 0-1.3.18-2.04.27l-3.52.38c-.83 0-1.67.18-2.4.18-1.6.1-3.07.2-4.64.28h-.84c-1.85 0-3.7.1-5.65.18h-1.2c-18.37 0-36.9-3.22-45.9-9.28v80.27c.46 1.85 4.9 4.24 11.03 6.36 8.25 2.67 21.05 4.78 37.92 4.78 30.87.1 43.76-7.45 43.76-11.5V522.9c-4.82 3.3-12.6 6.17-22.72 7.9z" fill="#834187"/><use xlink:href="#h" transform="matrix(1,0,0,1,1398.8892567096486,620.0000000000001) translate(24.049999999999997 14.4)"/><use xlink:href="#i" transform="matrix(1,0,0,1,1398.8892567096486,620.0000000000001) translate(68 14.4)"/><use xlink:href="#j" transform="matrix(1,0,0,1,1398.8892567096486,620.0000000000001) translate(36.025 36)"/><path d="M1281 460h59.26V330h41.03" stroke="#000" stroke-width="2" fill="none"/><path d="M1281 461h-1v-2h1zM1396.3 330l-14.28 4.64v-9.28z"/><path d="M1399.53 330l-18.5 6v-12zm-16.5 3.26l10.02-3.26-10.03-3.26z"/><path d="M1281 460h59.25v110h41.02" stroke="#000" stroke-width="2" fill="none"/><path d="M1281 461h-1v-2h1zM1396.27 570l-14.27 4.64v-9.28z"/><path d="M1399.5 570l-18.5 6v-12zm-16.5 3.26l10.03-3.26-10.03-3.26z"/><path d="M2006.9 510h160v120h-160z" stroke="#000" stroke-width="2" fill="#fff"/><use xlink:href="#k" transform="matrix(1,0,0,1,2011.889256709649,515.0000000000001) translate(49.075 58.6)"/><path d="M2341.12 511v5.92c0 2.7-7.6 7.15-21.96 9.7-8.06 1.38-16.1 2.05-24.27 2.04-29.92 0-46.4-7.74-46.4-11.7V511c0 3.96 16.3 11.7 46.4 11.7 8.6.04 15.83-.54 24.36-2 14.26-2.64 21.86-7 21.86-9.7z" fill="#55145a"/><path d="M2352.9 557.85v5.2c-.82 32.18-27.5 57.55-59.52 56.7-30.97-.88-55.68-25.63-56.5-56.7v-5.2h116z" fill-opacity="0"/><path d="M2340.73 512.1v6c-1.57 2.6-9 6.3-21.6 8.5-7.97 1.4-16.13 2.06-24.3 2.06-29.93 0-46.34-7.74-46.34-11.66v-6c0 3.93 16.3 11.67 46.34 11.67 8.62.1 15.95-.55 24.38-1.97 12.7-2.18 20.03-5.88 21.7-8.6m.1 87.73c.08-.22.18-.44.18-.77v9.92l-.1.44c-.1.1-.18.32-.27.54v.1l-.28.34-.37.54-.37.44-.64.43-.56.45-.65.55-.74.32-.92.55-.74.43-1.3.55-.74.32c-.74.33-1.48.55-2.32.88l-.83.2-1.85.56-1.2.34-1.77.43-1.4.33-1.94.44-1.58.2-2.14.45-1.76.2-2.4.23-1.77.2-2.87.23-1.86.22-3.24.1h-6.96c-16.87 0-29.57-2.06-38-4.8-6.12-2.17-10.57-4.56-11.04-6.3v-9.5c.47 1.75 4.36 3.93 9.83 6l-.08-.54c13.35 4.14 25.2 5.88 39.2 5.88h6.96l3.34-.1 1.76-.1 2.78-.34 1.77-.1 2.5-.34 1.58-.2 2.32-.34 10.57-2.62c.83-.32 1.66-.54 2.4-.87l2.04-.86.46-.33 1.3-.64.47-.33.92-.54.36-.34.75-.65.28-.2.56-.67v-.43l.37-.87z" fill="#55145a"/><path d="M2294.9 500c8.15-.07 16.3.6 24.36 1.98 14.26 2.55 21.86 7 21.86 9.74 0 2.78-7.6 7.08-21.96 9.65-8.06 1.35-16.1 2.03-24.27 1.98-29.92 0-46.4-7.73-46.4-11.67 0-3.97 16.38-11.68 46.4-11.68z" fill="#834187"/><path d="M2318.56 530.8c-1.3.27-2.5.36-3.8.64-.65 0-1.3.18-2.04.27l-3.52.38c-.83 0-1.67.18-2.4.18-1.6.1-3.07.2-4.64.28h-.84c-1.85 0-3.7.1-5.65.18h-1.2c-18.37 0-36.9-3.22-45.9-9.28v80.27c.46 1.85 4.9 4.24 11.03 6.36 8.25 2.67 21.05 4.78 37.92 4.78 30.87.1 43.76-7.45 43.76-11.5V522.9c-4.82 3.3-12.6 6.17-22.72 7.9z" fill="#834187"/><use xlink:href="#l" transform="matrix(1,0,0,1,2236.889256709649,620.0000000000001) translate(12.049999999999997 14.4)"/><use xlink:href="#m" transform="matrix(1,0,0,1,2236.889256709649,620.0000000000001) translate(50 14.4)"/><use xlink:href="#n" transform="matrix(1,0,0,1,2236.889256709649,620.0000000000001) translate(20.299999999999997 36)"/><use xlink:href="#o" transform="matrix(1,0,0,1,2236.889256709649,620.0000000000001) translate(85.2 36)"/><use xlink:href="#p" transform="matrix(1,0,0,1,2236.889256709649,620.0000000000001) translate(28.525 57.6)"/><use xlink:href="#q" transform="matrix(1,0,0,1,2236.889256709649,620.0000000000001) translate(73.525 57.6)"/><path d="M2167.9 570h51.37" stroke="#000" stroke-width="2" fill="none"/><path d="M2167.9 571h-1v-2h1zM2234.27 570l-14.27 4.64v-9.28z"/><path d="M2237.5 570l-18.5 6v-12zm-16.5 3.26l10.03-3.26-10.03-3.26z"/><path d="M2352.25 570h64.66V409.24" stroke="#000" stroke-width="2" fill="none"/><path d="M2352.25 571h-.15l.15-1zM2421.54 408.5h-9.27l4.64-14.26z"/><path d="M2422.92 409.5h-12.02l6-18.5zm-9.27-2h6.52l-3.26-10.03z"/><path d="M-12 470h160v120H-12z" stroke="#000" stroke-width="2" fill="#fff"/><use xlink:href="#r" transform="matrix(1,0,0,1,-7,475) translate(18.599999999999994 58.6)"/><use xlink:href="#s" transform="matrix(1,0,0,1,-7,475) translate(82.5 58.6)"/><path d="M-84.64 530h53.4" stroke="#000" stroke-width="2" fill="none"/><path d="M-84.64 531h-.15l.16-1zM-16.24 530l-14.26 4.64v-9.28z"/><path d="M-13 530l-18.5 6v-12zm-16.5 3.26l10.03-3.26-10.03-3.26z"/><path d="M324.23 471v5.92c0 2.7-7.6 7.15-21.96 9.7-8.05 1.38-16.1 2.05-24.26 2.04-29.9 0-46.4-7.74-46.4-11.7V471c0 3.96 16.3 11.7 46.4 11.7 8.62.04 15.84-.54 24.37-2 14.26-2.64 21.86-7 21.86-9.7z" fill="#004f8d"/><path d="M336 517.85v5.2c-.8 32.18-27.5 57.55-59.5 56.7-30.98-.88-55.7-25.63-56.5-56.7v-5.2h116z" fill-opacity="0"/><path d="M323.84 472.1v6c-1.57 2.6-9 6.3-21.6 8.5-7.97 1.4-16.13 2.06-24.3 2.06-29.93 0-46.34-7.74-46.34-11.66v-6c0 3.93 16.32 11.67 46.35 11.67 8.63.1 15.95-.55 24.4-1.97 12.7-2.18 20-5.88 21.68-8.6m.1 87.73c.08-.22.18-.44.18-.77v9.92l-.1.44c-.08.1-.17.32-.26.54v.1l-.28.34-.37.54-.38.44-.65.43-.56.45-.64.55-.74.32-.93.55-.75.43-1.3.55-.74.32c-.73.33-1.47.55-2.3.88l-.84.2-1.85.56-1.2.34-1.76.43-1.4.33-1.94.44-1.57.2-2.14.45-1.77.2-2.4.23-1.77.2-2.87.23-1.87.22-3.24.1h-6.97c-16.87 0-29.57-2.06-38-4.8-6.12-2.17-10.57-4.56-11.04-6.3v-9.5c.46 1.75 4.35 3.93 9.82 6l-.1-.54c13.36 4.14 25.22 5.88 39.22 5.88h6.96l3.33-.1 1.76-.1 2.78-.34 1.76-.1 2.5-.34 1.58-.2 2.3-.34 10.58-2.62c.84-.32 1.67-.54 2.4-.87l2.05-.86.47-.33 1.3-.64.46-.33.92-.54.37-.34.75-.65.27-.2.55-.67v-.43l.37-.87z" fill="#004f8d"/><path d="M278 460c8.16-.07 16.3.6 24.37 1.98 14.26 2.55 21.86 7 21.86 9.74 0 2.78-7.6 7.08-21.96 9.65-8.05 1.35-16.1 2.03-24.26 1.98-29.9 0-46.4-7.73-46.4-11.67C231.6 467.7 248 460 278 460z" fill="#0c7cba"/><path d="M301.68 490.8c-1.3.27-2.5.36-3.8.64-.65 0-1.3.18-2.05.27l-3.52.38c-.82 0-1.66.18-2.4.18-1.57.1-3.06.2-4.63.28h-.84c-1.85 0-3.7.1-5.65.18h-1.2c-18.36 0-36.9-3.22-45.9-9.28v80.27c.46 1.85 4.9 4.24 11.03 6.36 8.26 2.67 21.06 4.78 37.93 4.78 30.87.1 43.76-7.45 43.76-11.5V482.9c-4.83 3.3-12.62 6.17-22.72 7.9z" fill="#0c7cba"/><use xlink:href="#t" transform="matrix(1,0,0,1,220,580) translate(3.075000000000003 14.4)"/><use xlink:href="#u" transform="matrix(1,0,0,1,220,580) translate(76.025 14.4)"/><use xlink:href="#b" transform="matrix(1,0,0,1,220,580) translate(40.5 36)"/><path d="M149 530h53.38" stroke="#000" stroke-width="2" fill="none"/><path d="M149 531h-1v-2h1zM217.38 530l-14.27 4.64v-9.28z"/><path d="M220.62 530l-18.5 6v-12zm-16.5 3.26l10.02-3.26-10.03-3.26z"/><path d="M3349.52 820h160v120h-160z" stroke="#000" stroke-width="2" fill="#fff"/><use xlink:href="#v" transform="matrix(1,0,0,1,3354.521605045419,825) translate(1.125 58.6)"/><use xlink:href="#w" transform="matrix(1,0,0,1,3354.521605045419,825) translate(72.97500000000001 58.6)"/><use xlink:href="#x" transform="matrix(1,0,0,1,3354.521605045419,825) translate(98.92500000000001 58.6)"/><path d="M3159.75 821v5.92c0 2.7-7.6 7.15-21.95 9.7-8.06 1.38-16.12 2.05-24.27 2.04-29.92 0-46.4-7.74-46.4-11.7V821c0 3.96 16.3 11.7 46.4 11.7 8.6.04 15.84-.54 24.36-2 14.25-2.64 21.85-7 21.85-9.7z" fill="#9b000c"/><path d="M3171.52 867.85v5.2c-.8 32.18-27.5 57.55-59.5 56.7-30.98-.88-55.7-25.63-56.5-56.7v-5.2h116z" fill-opacity="0"/><path d="M3159.37 822.1v6c-1.58 2.6-9 6.3-21.6 8.5-7.98 1.4-16.14 2.06-24.3 2.06-29.94 0-46.35-7.74-46.35-11.66v-6c0 3.93 16.32 11.67 46.36 11.67 8.62.1 15.94-.55 24.38-1.97 12.7-2.18 20.02-5.88 21.7-8.6m.08 87.73c.1-.22.2-.44.2-.77v9.92l-.1.44c-.1.1-.2.32-.28.54v.1l-.28.34-.37.54-.36.44-.65.43-.57.45-.65.55-.74.32-.92.55-.75.43-1.3.55-.74.32c-.74.33-1.48.55-2.3.88l-.85.2-1.85.56-1.2.34-1.77.43-1.4.33-1.94.44-1.57.2-2.13.45-1.77.2-2.4.23-1.77.2-2.87.23-1.85.22-3.24.1h-6.94c-16.88 0-29.58-2.06-38-4.8-6.13-2.17-10.58-4.56-11.05-6.3v-9.5c.48 1.75 4.37 3.93 9.84 6l-.1-.54c13.36 4.14 25.22 5.88 39.22 5.88h6.96l3.33-.1 1.77-.1 2.78-.34 1.76-.1 2.5-.34 1.58-.2 2.32-.34 10.56-2.62c.84-.32 1.67-.54 2.4-.87l2.05-.86.47-.33 1.3-.64.46-.33.93-.54.37-.34.74-.65.28-.2.55-.67v-.43l.37-.87z" fill="#9b000c"/><path d="M3113.53 810c8.15-.07 16.3.6 24.36 1.98 14.25 2.55 21.85 7 21.85 9.74 0 2.78-7.6 7.08-21.95 9.65-8.06 1.35-16.12 2.03-24.27 1.98-29.92 0-46.4-7.73-46.4-11.67 0-3.97 16.4-11.68 46.4-11.68z" fill="#c92d39"/><path d="M3137.2 840.8c-1.3.27-2.5.36-3.8.64-.65 0-1.3.18-2.04.27l-3.53.38c-.83 0-1.67.18-2.4.18-1.58.1-3.07.2-4.64.28h-.85c-1.85 0-3.7.1-5.65.18h-1.2c-18.36 0-36.9-3.22-45.9-9.28v80.27c.47 1.85 4.92 4.24 11.03 6.36 8.26 2.67 21.05 4.78 37.92 4.78 30.87.1 43.76-7.45 43.76-11.5V832.9c-4.8 3.3-12.6 6.17-22.7 7.9z" fill="#c92d39"/><use xlink:href="#y" transform="matrix(1,0,0,1,3055.521605045419,930) translate(13.024999999999999 14.4)"/><use xlink:href="#b" transform="matrix(1,0,0,1,3055.521605045419,930) translate(67.975 14.4)"/><path d="M3348.52 880h-159.4" stroke="#000" stroke-width="2" fill="none"/><path d="M3349.52 881h-1v-2h1zM3188.4 884.64L3174.1 880l14.27-4.64z"/><path d="M3189.4 886l-18.5-6 18.5-6zm-12.04-6l10.03 3.26v-6.52z"/><path d="M1590.9 510h160v120h-160z" stroke="#000" stroke-width="2" fill="#fff"/><use xlink:href="#e" transform="matrix(1,0,0,1,1595.8892567096489,515.0000000000001) translate(38.55 58.6)"/><path d="M1925.12 511v5.92c0 2.7-7.6 7.15-21.96 9.7-8.06 1.38-16.1 2.05-24.27 2.04-29.92 0-46.4-7.74-46.4-11.7V511c0 3.96 16.3 11.7 46.4 11.7 8.6.04 15.83-.54 24.36-2 14.26-2.64 21.86-7 21.86-9.7z" fill="#55145a"/><path d="M1936.9 557.85v5.2c-.82 32.18-27.5 57.55-59.52 56.7-30.97-.88-55.68-25.63-56.5-56.7v-5.2h116z" fill-opacity="0"/><path d="M1924.73 512.1v6c-1.57 2.6-9 6.3-21.6 8.5-7.97 1.4-16.13 2.06-24.3 2.06-29.93 0-46.34-7.74-46.34-11.66v-6c0 3.93 16.3 11.67 46.34 11.67 8.62.1 15.95-.55 24.38-1.97 12.7-2.18 20.03-5.88 21.7-8.6m.1 87.73c.08-.22.18-.44.18-.77v9.92l-.1.44c-.1.1-.18.32-.27.54v.1l-.28.34-.37.54-.37.44-.64.43-.56.45-.65.55-.74.32-.92.55-.74.43-1.3.55-.74.32c-.74.33-1.48.55-2.32.88l-.83.2-1.85.56-1.2.34-1.77.43-1.4.33-1.94.44-1.58.2-2.14.45-1.76.2-2.4.23-1.77.2-2.87.23-1.86.22-3.24.1h-6.96c-16.87 0-29.57-2.06-38-4.8-6.12-2.17-10.57-4.56-11.04-6.3v-9.5c.47 1.75 4.36 3.93 9.83 6l-.08-.54c13.35 4.14 25.2 5.88 39.2 5.88h6.96l3.34-.1 1.76-.1 2.78-.34 1.77-.1 2.5-.34 1.58-.2 2.32-.34 10.57-2.62c.83-.32 1.66-.54 2.4-.87l2.04-.86.46-.33 1.3-.64.47-.33.92-.54.36-.34.75-.65.28-.2.56-.67v-.43l.37-.87z" fill="#55145a"/><path d="M1878.9 500c8.15-.07 16.3.6 24.36 1.98 14.26 2.55 21.86 7 21.86 9.74 0 2.78-7.6 7.08-21.96 9.65-8.06 1.35-16.1 2.03-24.27 1.98-29.92 0-46.4-7.73-46.4-11.67 0-3.97 16.38-11.68 46.4-11.68z" fill="#834187"/><path d="M1902.56 530.8c-1.3.27-2.5.36-3.8.64-.65 0-1.3.18-2.04.27l-3.52.38c-.83 0-1.67.18-2.4.18-1.6.1-3.07.2-4.64.28h-.84c-1.85 0-3.7.1-5.65.18h-1.2c-18.37 0-36.9-3.22-45.9-9.28v80.27c.46 1.85 4.9 4.24 11.03 6.36 8.25 2.67 21.05 4.78 37.92 4.78 30.87.1 43.76-7.45 43.76-11.5V522.9c-4.82 3.3-12.6 6.17-22.72 7.9z" fill="#834187"/><use xlink:href="#l" transform="matrix(1,0,0,1,1820.8892567096489,620.0000000000001) translate(11.549999999999997 14.4)"/><use xlink:href="#z" transform="matrix(1,0,0,1,1820.8892567096489,620.0000000000001) translate(49.5 14.4)"/><path d="M1514.25 570h57.4" stroke="#000" stroke-width="2" fill="none"/><path d="M1514.25 571h-.15l.15-1zM1586.65 570l-14.26 4.64v-9.28z"/><path d="M1589.9 570l-18.5 6v-12zm-16.5 3.26l10.02-3.26-10.03-3.26z"/><path d="M1751.9 570h51.37" stroke="#000" stroke-width="2" fill="none"/><path d="M1751.9 571h-1v-2h1zM1818.27 570l-14.27 4.64v-9.28z"/><path d="M1821.5 570l-18.5 6v-12zm-16.5 3.26l10.03-3.26-10.03-3.26z"/><path d="M1936.25 570h51.4" stroke="#000" stroke-width="2" fill="none"/><path d="M1936.25 571h-.15l.15-1zM2002.65 570l-14.26 4.64v-9.28z"/><path d="M2005.9 570l-18.5 6v-12zm-16.5 3.26l10.02-3.26-10.03-3.26z"/><path d="M1456.9 500v-40h630v30.76" stroke="#000" stroke-width="2" fill="none"/><path d="M1457.9 500.08l-1-.08h1zm-2-.05V500h1zM2086.9 505.76l-4.65-14.26h9.27z"/><path d="M2086.9 509l-6.02-18.5h12.02zm-3.27-16.5l3.26 10.03 3.25-10.03z"/><path d="M540 300h160v120H540z" stroke="#000" stroke-width="2" fill="#fff"/><use xlink:href="#A" transform="matrix(1,0,0,1,545,305.00000000000006) translate(26.525 37)"/><use xlink:href="#B" transform="matrix(1,0,0,1,545,305.00000000000006) translate(80.475 37)"/><use xlink:href="#C" transform="matrix(1,0,0,1,545,305.00000000000006) translate(19.224999999999994 58.6)"/><use xlink:href="#D" transform="matrix(1,0,0,1,545,305.00000000000006) translate(104.125 58.6)"/><use xlink:href="#E" transform="matrix(1,0,0,1,545,305.00000000000006) translate(41.025 80.20000000000002)"/><path d="M335.36 530h101.82V360h83.58" stroke="#000" stroke-width="2" fill="none"/><path d="M335.36 531h-.15l.16-1zM535.76 360l-14.26 4.64v-9.28z"/><path d="M539 360l-18.5 6v-12zm-16.5 3.26l10.03-3.26-10.03-3.26z"/><path d="M-224.64 360h745.4" stroke="#000" stroke-width="2" fill="none"/><path d="M-224.64 361h-.15l.16-1zM535.76 360l-14.26 4.64v-9.28z"/><path d="M539 360l-18.5 6v-12zm-16.5 3.26l10.03-3.26-10.03-3.26z"/><path d="M883.23 43v5.92c0 2.7-7.6 7.15-21.96 9.7-8.05 1.38-16.1 2.05-24.26 2.04-29.9 0-46.4-7.74-46.4-11.7V43c0 3.96 16.3 11.7 46.4 11.7 8.62.04 15.84-.54 24.37-2 14.26-2.64 21.86-7 21.86-9.7z" fill="#55145a"/><path d="M895 89.85v5.2c-.8 32.18-27.5 57.55-59.5 56.7-30.98-.88-55.7-25.63-56.5-56.7v-5.2h116z" fill-opacity="0"/><path d="M882.84 44.1v6c-1.57 2.6-9 6.3-21.6 8.5-7.97 1.4-16.13 2.06-24.3 2.06-29.93 0-46.34-7.74-46.34-11.66v-6c0 3.93 16.32 11.67 46.35 11.67 8.63.1 15.95-.55 24.4-1.97 12.7-2.18 20-5.88 21.68-8.6m.1 87.73c.08-.22.18-.44.18-.77v9.92l-.1.44c-.08.1-.17.32-.26.54v.1l-.28.34-.37.54-.38.44-.65.43-.56.45-.64.55-.74.32-.93.55-.75.43-1.3.55-.74.32c-.73.33-1.47.55-2.3.88l-.84.2-1.85.56-1.2.34-1.76.43-1.4.33-1.94.44-1.57.2-2.14.45-1.77.2-2.4.23-1.77.2-2.87.23-1.87.22-3.24.1h-6.97c-16.87 0-29.57-2.06-38-4.8-6.12-2.17-10.57-4.56-11.04-6.3v-9.5c.46 1.75 4.35 3.93 9.82 6l-.1-.54c13.36 4.14 25.22 5.88 39.22 5.88h6.96l3.33-.1 1.76-.1 2.78-.34 1.76-.1 2.5-.34 1.58-.2 2.3-.34 10.58-2.62c.84-.32 1.67-.54 2.4-.87l2.05-.86.47-.33 1.3-.64.46-.33.92-.54.37-.34.75-.65.27-.2.55-.67v-.43l.37-.87z" fill="#55145a"/><path d="M837 32c8.16-.07 16.3.6 24.37 1.98 14.26 2.55 21.86 7 21.86 9.74 0 2.78-7.6 7.08-21.96 9.65-8.05 1.35-16.1 2.03-24.26 1.98-29.9 0-46.4-7.73-46.4-11.67C790.6 39.7 807 32 837 32z" fill="#834187"/><path d="M860.68 62.8c-1.3.27-2.5.36-3.8.64-.65 0-1.3.18-2.05.27l-3.52.38c-.82 0-1.66.18-2.4.18-1.57.1-3.06.2-4.63.28h-.84c-1.85 0-3.7.1-5.65.18h-1.2c-18.36 0-36.9-3.22-45.9-9.28v80.27c.46 1.85 4.9 4.24 11.03 6.36 8.26 2.67 21.06 4.78 37.93 4.78 30.87.1 43.76-7.45 43.76-11.5V54.9c-4.83 3.3-12.62 6.17-22.72 7.9z" fill="#834187"/><use xlink:href="#F" transform="matrix(1,0,0,1,779,152) translate(1.5 14.4)"/><use xlink:href="#G" transform="matrix(1,0,0,1,779,152) translate(71.5 14.4)"/><use xlink:href="#H" transform="matrix(1,0,0,1,779,152) translate(24.025 36)"/><path d="M701 360h39.3V102h21.08" stroke="#000" stroke-width="2" fill="none"/><path d="M701 361h-1v-2h1zM776.38 102l-14.27 4.64v-9.28z"/><path d="M779.62 102l-18.5 6V96zm-16.5 3.26l10.02-3.26-10.03-3.26z"/><path d="M883.23 301v5.92c0 2.7-7.6 7.15-21.96 9.7-8.05 1.38-16.1 2.05-24.26 2.04-29.9 0-46.4-7.74-46.4-11.7V301c0 3.96 16.3 11.7 46.4 11.7 8.62.04 15.84-.54 24.37-2 14.26-2.64 21.86-7 21.86-9.7z" fill="#55145a"/><path d="M895 347.85v5.2c-.8 32.18-27.5 57.55-59.5 56.7-30.98-.88-55.7-25.63-56.5-56.7v-5.2h116z" fill-opacity="0"/><path d="M882.84 302.1v6c-1.57 2.6-9 6.3-21.6 8.5-7.97 1.4-16.13 2.06-24.3 2.06-29.93 0-46.34-7.74-46.34-11.66v-6c0 3.93 16.32 11.67 46.35 11.67 8.63.1 15.95-.55 24.4-1.97 12.7-2.18 20-5.88 21.68-8.6m.1 87.73c.08-.22.18-.44.18-.77v9.92l-.1.44c-.08.1-.17.32-.26.54v.1l-.28.34-.37.54-.38.44-.65.43-.56.45-.64.55-.74.32-.93.55-.75.43-1.3.55-.74.32c-.73.33-1.47.55-2.3.88l-.84.2-1.85.56-1.2.34-1.76.43-1.4.33-1.94.44-1.57.2-2.14.45-1.77.2-2.4.23-1.77.2-2.87.23-1.87.22-3.24.1h-6.97c-16.87 0-29.57-2.06-38-4.8-6.12-2.17-10.57-4.56-11.04-6.3v-9.5c.46 1.75 4.35 3.93 9.82 6l-.1-.54c13.36 4.14 25.22 5.88 39.22 5.88h6.96l3.33-.1 1.76-.1 2.78-.34 1.76-.1 2.5-.34 1.58-.2 2.3-.34 10.58-2.62c.84-.32 1.67-.54 2.4-.87l2.05-.86.47-.33 1.3-.64.46-.33.92-.54.37-.34.75-.65.27-.2.55-.67v-.43l.37-.87z" fill="#55145a"/><path d="M837 290c8.16-.07 16.3.6 24.37 1.98 14.26 2.55 21.86 7 21.86 9.74 0 2.78-7.6 7.08-21.96 9.65-8.05 1.35-16.1 2.03-24.26 1.98-29.9 0-46.4-7.73-46.4-11.67C790.6 297.7 807 290 837 290z" fill="#834187"/><path d="M860.68 320.8c-1.3.27-2.5.36-3.8.64-.65 0-1.3.18-2.05.27l-3.52.38c-.82 0-1.66.18-2.4.18-1.57.1-3.06.2-4.63.28h-.84c-1.85 0-3.7.1-5.65.18h-1.2c-18.36 0-36.9-3.22-45.9-9.28v80.27c.46 1.85 4.9 4.24 11.03 6.36 8.26 2.67 21.06 4.78 37.93 4.78 30.87.1 43.76-7.45 43.76-11.5V312.9c-4.83 3.3-12.62 6.17-22.72 7.9z" fill="#834187"/><use xlink:href="#I" transform="matrix(1,0,0,1,779,410) translate(13.524999999999999 14.4)"/><use xlink:href="#E" transform="matrix(1,0,0,1,779,410) translate(24.025 36)"/><path d="M701 360H761.38" stroke="#000" stroke-width="2" fill="none"/><path d="M701 361h-1v-2h1zM776.38 360l-14.27 4.64v-9.28z"/><path d="M779.62 360l-18.5 6v-12zm-16.5 3.26l10.02-3.26-10.03-3.26z"/><path d="M894.36 102H2416.9v148.76" stroke="#000" stroke-width="2" fill="none"/><path d="M894.36 103h-.15l.16-1zM2416.9 265.76l-4.63-14.26h9.27z"/><path d="M2416.9 269l-6-18.5h12.02zm-3.25-16.5l3.26 10.03 3.27-10.03z"/><path d="M3475.23 551v5.92c0 2.7-7.6 7.15-21.96 9.7-8.05 1.38-16.1 2.05-24.26 2.04-29.9 0-46.4-7.74-46.4-11.7V551c0 3.96 16.3 11.7 46.4 11.7 8.62.04 15.84-.54 24.37-2 14.26-2.64 21.86-7 21.86-9.7z" fill="#006950"/><path d="M3487 597.85v5.2c-.8 32.18-27.5 57.55-59.5 56.7-30.98-.88-55.7-25.63-56.5-56.7v-5.2h116z" fill-opacity="0"/><path d="M3474.84 552.1v6c-1.57 2.6-9 6.3-21.6 8.5-7.97 1.4-16.13 2.06-24.3 2.06-29.93 0-46.34-7.74-46.34-11.66v-6c0 3.93 16.32 11.67 46.35 11.67 8.63.1 15.95-.55 24.4-1.97 12.7-2.18 20-5.88 21.68-8.6m.1 87.73c.08-.22.18-.44.18-.77v9.92l-.1.44c-.08.1-.17.32-.26.54v.1l-.28.34-.37.54-.38.44-.65.43-.56.45-.64.55-.74.32-.93.55-.75.43-1.3.55-.74.32c-.73.33-1.47.55-2.3.88l-.84.2-1.85.56-1.2.34-1.76.43-1.4.33-1.94.44-1.57.2-2.14.45-1.77.2-2.4.23-1.77.2-2.87.23-1.87.22-3.24.1h-6.97c-16.87 0-29.57-2.06-38-4.8-6.12-2.17-10.57-4.56-11.04-6.3v-9.5c.46 1.75 4.35 3.93 9.82 6l-.1-.54c13.36 4.14 25.22 5.88 39.22 5.88h6.96l3.33-.1 1.76-.1 2.78-.34 1.76-.1 2.5-.34 1.58-.2 2.3-.34 10.58-2.62c.84-.32 1.67-.54 2.4-.87l2.05-.86.47-.33 1.3-.64.46-.33.92-.54.37-.34.75-.65.27-.2.55-.67v-.43l.37-.87z" fill="#006950"/><path d="M3429 540c8.16-.07 16.3.6 24.37 1.98 14.26 2.55 21.86 7 21.86 9.74 0 2.78-7.6 7.08-21.96 9.65-8.05 1.35-16.1 2.03-24.26 1.98-29.9 0-46.4-7.73-46.4-11.67 0-3.97 16.4-11.68 46.4-11.68z" fill="#19967d"/><path d="M3452.68 570.8c-1.3.27-2.5.36-3.8.64-.65 0-1.3.18-2.05.27l-3.52.38c-.82 0-1.66.18-2.4.18-1.57.1-3.06.2-4.63.28h-.84c-1.85 0-3.7.1-5.65.18h-1.2c-18.36 0-36.9-3.22-45.9-9.28v80.27c.46 1.85 4.9 4.24 11.03 6.36 8.26 2.67 21.06 4.78 37.93 4.78 30.87.1 43.76-7.45 43.76-11.5V562.9c-4.83 3.3-12.62 6.17-22.72 7.9z" fill="#19967d"/><use xlink:href="#a" transform="matrix(1,0,0,1,3371,660) translate(18.049999999999997 14.4)"/><use xlink:href="#J" transform="matrix(1,0,0,1,3371,660) translate(29 36)"/><use xlink:href="#K" transform="matrix(1,0,0,1,3371,660) translate(26.025 57.6)"/><path d="M3159.75 91v5.92c0 2.7-7.6 7.15-21.95 9.7-8.06 1.38-16.12 2.05-24.27 2.04-29.92 0-46.4-7.74-46.4-11.7V91c0 3.96 16.3 11.7 46.4 11.7 8.6.04 15.84-.54 24.36-2 14.25-2.64 21.85-7 21.85-9.7z" fill="#006950"/><path d="M3171.52 137.85v5.2c-.8 32.18-27.5 57.55-59.5 56.7-30.98-.88-55.7-25.63-56.5-56.7v-5.2h116z" fill-opacity="0"/><path d="M3159.37 92.1v6c-1.58 2.6-9 6.3-21.6 8.5-7.98 1.4-16.14 2.06-24.3 2.06-29.94 0-46.35-7.74-46.35-11.66v-6c0 3.93 16.32 11.67 46.36 11.67 8.62.1 15.94-.55 24.38-1.97 12.7-2.18 20.02-5.88 21.7-8.6m.08 87.73c.1-.22.2-.44.2-.77v9.92l-.1.44c-.1.1-.2.32-.28.54v.1l-.28.34-.37.54-.36.44-.65.43-.57.45-.65.55-.74.32-.92.55-.75.43-1.3.55-.74.32c-.74.33-1.48.55-2.3.88l-.85.2-1.85.56-1.2.34-1.77.43-1.4.33-1.94.44-1.57.2-2.13.45-1.77.2-2.4.23-1.77.2-2.87.23-1.85.22-3.24.1h-6.94c-16.88 0-29.58-2.06-38-4.8-6.13-2.17-10.58-4.56-11.05-6.3v-9.5c.48 1.75 4.37 3.93 9.84 6l-.1-.54c13.36 4.14 25.22 5.88 39.22 5.88h6.96l3.33-.1 1.77-.1 2.78-.34 1.76-.1 2.5-.34 1.58-.2 2.32-.34 10.56-2.62c.84-.32 1.67-.54 2.4-.87l2.05-.86.47-.33 1.3-.64.46-.33.93-.54.37-.34.74-.65.28-.2.55-.67v-.43l.37-.87z" fill="#006950"/><path d="M3113.53 80c8.15-.07 16.3.6 24.36 1.98 14.25 2.55 21.85 7 21.85 9.74 0 2.78-7.6 7.08-21.95 9.65-8.06 1.35-16.12 2.03-24.27 1.98-29.92 0-46.4-7.73-46.4-11.67 0-3.97 16.4-11.68 46.4-11.68z" fill="#19967d"/><path d="M3137.2 110.8c-1.3.27-2.5.36-3.8.64-.65 0-1.3.18-2.04.27l-3.53.38c-.83 0-1.67.18-2.4.18-1.58.1-3.07.2-4.64.28h-.85c-1.85 0-3.7.1-5.65.18h-1.2c-18.36 0-36.9-3.22-45.9-9.28v80.27c.47 1.85 4.92 4.24 11.03 6.36 8.26 2.67 21.05 4.78 37.92 4.78 30.87.1 43.76-7.45 43.76-11.5V102.9c-4.8 3.3-12.6 6.17-22.7 7.9z" fill="#19967d"/><use xlink:href="#a" transform="matrix(1,0,0,1,3055.521605045419,200) translate(18.049999999999997 14.4)"/><use xlink:href="#L" transform="matrix(1,0,0,1,3055.521605045419,200) translate(20.049999999999997 36)"/><path d="M3349.16 280h160v120h-160z" stroke="#000" stroke-width="2" fill="#fff"/><use xlink:href="#M" transform="matrix(1,0,0,1,3354.158093373706,284.99999999999994) translate(2.549999999999997 58.6)"/><use xlink:href="#N" transform="matrix(1,0,0,1,3354.158093373706,284.99999999999994) translate(62.55 58.6)"/><path d="M3170.9 150h88.62v190h70.4" stroke="#000" stroke-width="2" fill="none"/><path d="M3170.9 151h-.17l.16-1zM3344.92 340l-14.26 4.64v-9.28z"/><path d="M3348.16 340l-18.5 6v-12zm-16.5 3.26l10.03-3.26-10.04-3.26z"/><path d="M3429.16 401v69.5h-.16v51.26" stroke="#000" stroke-width="2" fill="none"/><path d="M3430.16 401h-2v-1h2zM3429 536.76l-4.64-14.26h9.28z"/><path d="M3429 540l-6-18.5h12zm-3.26-16.5l3.26 10.03 3.26-10.03z"/><path d="M2336.9 270h160v120h-160z" stroke="#000" stroke-width="2" fill="#fff"/><use xlink:href="#O" transform="matrix(1,0,0,1,2341.9094649848603,275) translate(41.05 58.6)"/><path d="M1514.27 330h803.4" stroke="#000" stroke-width="2" fill="none"/><path d="M1514.27 331h-.15l.15-1zM2332.67 330l-14.26 4.64v-9.28z"/><path d="M2335.9 330l-18.5 6v-12zm-16.5 3.26l10.04-3.26-10.03-3.26z"/><path d="M3160.1 281v5.92c0 2.7-7.58 7.15-21.94 9.7-8.06 1.38-16.12 2.05-24.27 2.04-29.93 0-46.4-7.74-46.4-11.7V281c0 3.96 16.3 11.7 46.4 11.7 8.6.04 15.83-.54 24.35-2 14.27-2.64 21.86-7 21.86-9.7z" fill="#55145a"/><path d="M3171.9 327.85v5.2c-.83 32.18-27.5 57.55-59.52 56.7-30.97-.88-55.68-25.63-56.5-56.7v-5.2h116z" fill-opacity="0"/><path d="M3159.73 282.1v6c-1.58 2.6-9 6.3-21.6 8.5-7.97 1.4-16.13 2.06-24.3 2.06-29.94 0-46.34-7.74-46.34-11.66v-6c0 3.93 16.3 11.67 46.34 11.67 8.62.1 15.94-.55 24.38-1.97 12.7-2.18 20.03-5.88 21.7-8.6m.1 87.73c.08-.22.17-.44.17-.77v9.92l-.1.44c-.1.1-.2.32-.28.54v.1l-.28.34-.37.54-.37.44-.65.43-.55.45-.65.55-.74.32-.92.55-.74.43-1.3.55-.74.32c-.74.33-1.5.55-2.32.88l-.83.2-1.86.56-1.2.34-1.78.43-1.4.33-1.93.44-1.6.2-2.12.45-1.76.2-2.4.23-1.77.2-2.88.23-1.85.22-3.25.1h-6.95c-16.87 0-29.57-2.06-38-4.8-6.13-2.17-10.58-4.56-11.04-6.3v-9.5c.46 1.75 4.36 3.93 9.82 6l-.1-.54c13.36 4.14 25.23 5.88 39.23 5.88h6.95l3.34-.1 1.76-.1 2.78-.34 1.76-.1 2.5-.34 1.58-.2 2.32-.34 10.57-2.62c.82-.32 1.66-.54 2.4-.87l2.04-.86.46-.33 1.3-.64.46-.33.93-.54.36-.34.74-.65.28-.2.56-.67v-.43l.37-.87z" fill="#55145a"/><path d="M3113.9 270c8.14-.07 16.3.6 24.35 1.98 14.27 2.55 21.86 7 21.86 9.74 0 2.78-7.58 7.08-21.94 9.65-8.06 1.35-16.12 2.03-24.27 1.98-29.93 0-46.4-7.73-46.4-11.67 0-3.97 16.38-11.68 46.4-11.68z" fill="#834187"/><path d="M3137.56 300.8c-1.3.27-2.5.36-3.8.64-.65 0-1.3.18-2.04.27l-3.52.38c-.84 0-1.67.18-2.4.18-1.6.1-3.07.2-4.65.28h-.83c-1.86 0-3.7.1-5.66.18h-1.2c-18.36 0-36.9-3.22-45.9-9.28v80.27c.47 1.85 4.92 4.24 11.04 6.36 8.25 2.67 21.04 4.78 37.92 4.78 30.87.1 43.75-7.45 43.75-11.5V292.9c-4.82 3.3-12.6 6.17-22.7 7.9z" fill="#834187"/><use xlink:href="#f" transform="matrix(1,0,0,1,3055.8851167171324,389.99999999999994) translate(25.5 14.4)"/><use xlink:href="#m" transform="matrix(1,0,0,1,3055.8851167171324,389.99999999999994) translate(31.025 36)"/><use xlink:href="#P" transform="matrix(1,0,0,1,3055.8851167171324,389.99999999999994) translate(28.049999999999997 57.6)"/><path d="M2817.52 280h160v120h-160z" stroke="#000" stroke-width="2" fill="#fff"/><use xlink:href="#M" transform="matrix(1,0,0,1,2822.521605045419,284.99999999999994) translate(18.025 47.8)"/><use xlink:href="#m" transform="matrix(1,0,0,1,2822.521605045419,284.99999999999994) translate(78.025 47.8)"/><use xlink:href="#Q" transform="matrix(1,0,0,1,2822.521605045419,284.99999999999994) translate(49.55 69.4)"/><path d="M2978.52 340h59.75" stroke="#000" stroke-width="2" fill="none"/><path d="M2978.52 341h-1v-2h1zM3053.27 340l-14.27 4.64v-9.28z"/><path d="M3056.5 340l-18.5 6v-12zm-16.5 3.26l10.03-3.26-10.03-3.26z"/><path d="M2710.5 281v5.92c0 2.7-7.6 7.15-21.95 9.7-8.06 1.38-16.12 2.05-24.27 2.04-29.92 0-46.4-7.74-46.4-11.7V281c0 3.96 16.3 11.7 46.4 11.7 8.6.04 15.84-.54 24.36-2 14.26-2.64 21.86-7 21.86-9.7z" fill="#55145a"/><path d="M2722.27 327.85v5.2c-.8 32.18-27.5 57.55-59.5 56.7-30.98-.88-55.7-25.63-56.5-56.7v-5.2h116z" fill-opacity="0"/><path d="M2710.12 282.1v6c-1.58 2.6-9 6.3-21.6 8.5-7.98 1.4-16.14 2.06-24.3 2.06-29.94 0-46.35-7.74-46.35-11.66v-6c0 3.93 16.32 11.67 46.36 11.67 8.62.1 15.94-.55 24.38-1.97 12.7-2.18 20.03-5.88 21.7-8.6m.1 87.73c.1-.22.18-.44.18-.77v9.92l-.1.44c-.1.1-.18.32-.27.54v.1l-.27.34-.37.54-.37.44-.66.43-.56.45-.65.55-.74.32-.93.55-.75.43-1.3.55-.74.32c-.74.33-1.48.55-2.3.88l-.85.2-1.85.56-1.2.34-1.77.43-1.38.33-1.95.44-1.57.2-2.13.45-1.77.2-2.4.23-1.77.2-2.87.23-1.86.22-3.24.1H2667c-16.87 0-29.57-2.06-38-4.8-6.12-2.17-10.57-4.56-11.04-6.3v-9.5c.47 1.75 4.36 3.93 9.83 6l-.1-.54c13.35 4.14 25.2 5.88 39.2 5.88h6.97l3.33-.1 1.77-.1 2.78-.34 1.76-.1 2.5-.34 1.6-.2 2.3-.34 10.57-2.62c.84-.32 1.67-.54 2.4-.87l2.05-.86.47-.33 1.3-.64.45-.33.93-.54.37-.34.74-.65.27-.2.55-.67v-.43l.37-.87z" fill="#55145a"/><path d="M2664.28 270c8.15-.07 16.3.6 24.36 1.98 14.26 2.55 21.86 7 21.86 9.74 0 2.78-7.6 7.08-21.95 9.65-8.06 1.35-16.12 2.03-24.27 1.98-29.92 0-46.4-7.73-46.4-11.67 0-3.97 16.4-11.68 46.4-11.68z" fill="#834187"/><path d="M2687.95 300.8c-1.3.27-2.5.36-3.8.64-.65 0-1.3.18-2.04.27l-3.52.38c-.83 0-1.67.18-2.4.18-1.58.1-3.07.2-4.64.28h-.84c-1.85 0-3.7.1-5.65.18h-1.2c-18.36 0-36.9-3.22-45.9-9.28v80.27c.47 1.85 4.92 4.24 11.03 6.36 8.26 2.67 21.05 4.78 37.92 4.78 30.87.1 43.76-7.45 43.76-11.5V292.9c-4.82 3.3-12.6 6.17-22.7 7.9z" fill="#834187"/><use xlink:href="#R" transform="matrix(1,0,0,1,2606.271605045419,389.99999999999994) translate(19.049999999999997 14.4)"/><path d="M2721.64 340h76.65" stroke="#000" stroke-width="2" fill="none"/><path d="M2721.64 341h-.16l.16-1zM2813.3 340l-14.28 4.64v-9.28z"/><path d="M2816.52 340l-18.5 6v-12zm-16.5 3.26l10.03-3.26-10.03-3.26z"/><path d="M3171.25 340h158.67" stroke="#000" stroke-width="2" fill="none"/><path d="M3171.25 341h-.15l.15-1zM3344.92 340l-14.26 4.64v-9.28z"/><path d="M3348.16 340l-18.5 6v-12zm-16.5 3.26l10.03-3.26-10.04-3.26z"/><path d="M3429 659.82v79.6h.52v61.34" stroke="#000" stroke-width="2" fill="none"/><path d="M3429 659.82h-1v-.06zM3429.52 815.76l-4.63-14.26h9.26z"/><path d="M3429.52 819l-6-18.5h12zm-3.26-16.5l3.26 10.03 3.26-10.03z"/><path d="M1100 880h1310v160H1100z" stroke="#000" stroke-width="2" fill="#e5e5e5"/><path d="M1965 900h180v60h-180z" stroke="#fff" stroke-width="2" fill="#19967d"/><use xlink:href="#S" transform="matrix(1,0,0,1,1970,905) translate(41.625 28.6)"/><path d="M1365 900h180v60h-180z" stroke="#fff" stroke-width="2" fill="#fcc438"/><g><use xlink:href="#T" transform="matrix(1,0,0,1,1370,905) translate(69.5 28.6)"/></g><path d="M1565 900h180v60h-180z" stroke="#fff" stroke-width="2" fill="#0c7cba"/><g><use xlink:href="#U" transform="matrix(1,0,0,1,1570,905) translate(48.099999999999994 28.6)"/></g><path d="M1765 900h180v60h-180z" stroke="#fff" stroke-width="2" fill="#834187"/><g><use xlink:href="#V" transform="matrix(1,0,0,1,1770,905) translate(35.099999999999994 28.6)"/></g><path d="M2170 900h180v60h-180z" stroke="#fff" stroke-width="2" fill="#c92d39"/><g><use xlink:href="#W" transform="matrix(1,0,0,1,2175,905) translate(57.574999999999996 28.6)"/></g><path d="M1635 980h240v60h-240z" stroke="#000" stroke-opacity="0" stroke-width="2" fill="#fff" fill-opacity="0"/><g><use xlink:href="#X" transform="matrix(1,0,0,1,1640,985) translate(34.724999999999994 28.6)"/><use xlink:href="#Y" transform="matrix(1,0,0,1,1640,985) translate(89.57499999999999 28.6)"/></g><path d="M1165 900h180v60h-180z" stroke="#fff" stroke-width="2" fill="#666"/><g><use xlink:href="#Z" transform="matrix(1,0,0,1,1170,905) translate(41.075 28.6)"/></g><path d="M883.23 511v5.92c0 2.7-7.6 7.15-21.96 9.7-8.05 1.38-16.1 2.05-24.26 2.04-29.9 0-46.4-7.74-46.4-11.7V511c0 3.96 16.3 11.7 46.4 11.7 8.62.04 15.84-.54 24.37-2 14.26-2.64 21.86-7 21.86-9.7z" fill="#55145a"/><path d="M895 557.85v5.2c-.8 32.18-27.5 57.55-59.5 56.7-30.98-.88-55.7-25.63-56.5-56.7v-5.2h116z" fill-opacity="0"/><path d="M882.84 512.1v6c-1.57 2.6-9 6.3-21.6 8.5-7.97 1.4-16.13 2.06-24.3 2.06-29.93 0-46.34-7.74-46.34-11.66v-6c0 3.93 16.32 11.67 46.35 11.67 8.63.1 15.95-.55 24.4-1.97 12.7-2.18 20-5.88 21.68-8.6m.1 87.73c.08-.22.18-.44.18-.77v9.92l-.1.44c-.08.1-.17.32-.26.54v.1l-.28.34-.37.54-.38.44-.65.43-.56.45-.64.55-.74.32-.93.55-.75.43-1.3.55-.74.32c-.73.33-1.47.55-2.3.88l-.84.2-1.85.56-1.2.34-1.76.43-1.4.33-1.94.44-1.57.2-2.14.45-1.77.2-2.4.23-1.77.2-2.87.23-1.87.22-3.24.1h-6.97c-16.87 0-29.57-2.06-38-4.8-6.12-2.17-10.57-4.56-11.04-6.3v-9.5c.46 1.75 4.35 3.93 9.82 6l-.1-.54c13.36 4.14 25.22 5.88 39.22 5.88h6.96l3.33-.1 1.76-.1 2.78-.34 1.76-.1 2.5-.34 1.58-.2 2.3-.34 10.58-2.62c.84-.32 1.67-.54 2.4-.87l2.05-.86.47-.33 1.3-.64.46-.33.92-.54.37-.34.75-.65.27-.2.55-.67v-.43l.37-.87z" fill="#55145a"/><path d="M837 500c8.16-.07 16.3.6 24.37 1.98 14.26 2.55 21.86 7 21.86 9.74 0 2.78-7.6 7.08-21.96 9.65-8.05 1.35-16.1 2.03-24.26 1.98-29.9 0-46.4-7.73-46.4-11.67C790.6 507.7 807 500 837 500z" fill="#834187"/><path d="M860.68 530.8c-1.3.27-2.5.36-3.8.64-.65 0-1.3.18-2.05.27l-3.52.38c-.82 0-1.66.18-2.4.18-1.57.1-3.06.2-4.63.28h-.84c-1.85 0-3.7.1-5.65.18h-1.2c-18.36 0-36.9-3.22-45.9-9.28v80.27c.46 1.85 4.9 4.24 11.03 6.36 8.26 2.67 21.06 4.78 37.93 4.78 30.87.1 43.76-7.45 43.76-11.5V522.9c-4.83 3.3-12.62 6.17-22.72 7.9z" fill="#834187"/><g><use xlink:href="#I" transform="matrix(1,0,0,1,779,620) translate(13.524999999999999 14.4)"/><use xlink:href="#aa" transform="matrix(1,0,0,1,779,620) translate(18.049999999999997 36)"/></g><path d="M701 360h39.3v210h21.08" stroke="#000" stroke-width="2" fill="none"/><path d="M701 361h-1v-2h1zM776.38 570l-14.27 4.64v-9.28z"/><path d="M779.62 570l-18.5 6v-12zm-16.5 3.26l10.02-3.26-10.03-3.26z"/><path d="M894.36 570h112.32V460h94.08" stroke="#000" stroke-width="2" fill="none"/><path d="M894.36 571h-.15l.16-1zM1115.76 460l-14.26 4.64v-9.28z"/><path d="M1119 460l-18.5 6v-12zm-16.5 3.26l10.03-3.26-10.03-3.26z"/><path d="M894.36 360h112.32v100h94.08" stroke="#000" stroke-width="2" fill="none"/><path d="M894.36 361h-.15l.16-1zM1115.76 460l-14.26 4.64v-9.28z"/><path d="M1119 460l-18.5 6v-12zm-16.5 3.26l10.03-3.26-10.03-3.26z"/><path d="M2497.9 330h54.5v10h36.25" stroke="#000" stroke-width="2" fill="none"/><path d="M2497.9 331h-1v-2h1zM2603.65 340l-14.26 4.64v-9.28z"/><path d="M2606.9 340l-18.5 6v-12zm-16.5 3.26l10.02-3.26-10.03-3.26z"/><defs><path d="M24-231v-30h32v30H24zM24 0v-190h32V0H24" id="ab"/><path d="M117-194c89-4 53 116 60 194h-32v-121c0-31-8-49-39-48C34-167 62-67 57 0H25l-1-190h30c1 10-1 24 2 32 11-22 29-35 61-36" id="ac"/><path d="M59-47c-2 24 18 29 38 22v24C64 9 27 4 27-40v-127H5v-23h24l9-43h21v43h35v23H59v120" id="ad"/><path d="M100-194c63 0 86 42 84 106H49c0 40 14 67 53 68 26 1 43-12 49-29l28 8c-11 28-37 45-77 45C44 4 14-33 15-96c1-61 26-98 85-98zm52 81c6-60-76-77-97-28-3 7-6 17-6 28h103" id="ae"/><path d="M177-190C167-65 218 103 67 71c-23-6-38-20-44-43l32-5c15 47 100 32 89-28v-30C133-14 115 1 83 1 29 1 15-40 15-95c0-56 16-97 71-98 29-1 48 16 59 35 1-10 0-23 2-32h30zM94-22c36 0 50-32 50-73 0-42-14-75-50-75-39 0-46 34-46 75s6 73 46 73" id="af"/><path d="M114-163C36-179 61-72 57 0H25l-1-190h30c1 12-1 29 2 39 6-27 23-49 58-41v29" id="ag"/><path d="M141-36C126-15 110 5 73 4 37 3 15-17 15-53c-1-64 63-63 125-63 3-35-9-54-41-54-24 1-41 7-42 31l-33-3c5-37 33-52 76-52 45 0 72 20 72 64v82c-1 20 7 32 28 27v20c-31 9-61-2-59-35zM48-53c0 20 12 33 32 33 41-3 63-29 60-74-43 2-92-5-92 41" id="ah"/><path d="M85-194c31 0 48 13 60 33l-1-100h32l1 261h-30c-2-10 0-23-3-31C134-8 116 4 85 4 32 4 16-35 15-94c0-66 23-100 70-100zm9 24c-40 0-46 34-46 75 0 40 6 74 45 74 42 0 51-32 51-76 0-42-9-74-50-73" id="ai"/><g id="a"><use transform="matrix(0.05,0,0,0.05,0,0)" xlink:href="#ab"/><use transform="matrix(0.05,0,0,0.05,3.95,0)" xlink:href="#ac"/><use transform="matrix(0.05,0,0,0.05,13.949999999999998,0)" xlink:href="#ad"/><use transform="matrix(0.05,0,0,0.05,18.95,0)" xlink:href="#ae"/><use transform="matrix(0.05,0,0,0.05,28.950000000000003,0)" xlink:href="#af"/><use transform="matrix(0.05,0,0,0.05,38.95,0)" xlink:href="#ag"/><use transform="matrix(0.05,0,0,0.05,44.900000000000006,0)" xlink:href="#ah"/><use transform="matrix(0.05,0,0,0.05,54.900000000000006,0)" xlink:href="#ad"/><use transform="matrix(0.05,0,0,0.05,59.900000000000006,0)" xlink:href="#ae"/><use transform="matrix(0.05,0,0,0.05,69.9,0)" xlink:href="#ai"/></g><g id="b"><use transform="matrix(0.05,0,0,0.05,0,0)" xlink:href="#ai"/><use transform="matrix(0.05,0,0,0.05,10,0)" xlink:href="#ah"/><use transform="matrix(0.05,0,0,0.05,20,0)" xlink:href="#ad"/><use transform="matrix(0.05,0,0,0.05,25,0)" xlink:href="#ah"/></g><path d="M206 0h-36l-40-164L89 0H53L-1-190h32L70-26l43-164h34l41 164 42-164h31" id="aj"/><g id="c"><use transform="matrix(0.05,0,0,0.05,0,0)" xlink:href="#ag"/><use transform="matrix(0.05,0,0,0.05,5.95,0)" xlink:href="#ah"/><use transform="matrix(0.05,0,0,0.05,15.949999999999998,0)" xlink:href="#aj"/></g><path d="M24 0v-261h32V0H24" id="ak"/><path d="M179-190L93 31C79 59 56 82 12 73V49c39 6 53-20 64-50L1-190h34L92-34l54-156h33" id="al"/><g id="d"><use transform="matrix(0.05,0,0,0.05,0,0)" xlink:href="#ai"/><use transform="matrix(0.05,0,0,0.05,10,0)" xlink:href="#ah"/><use transform="matrix(0.05,0,0,0.05,20,0)" xlink:href="#ab"/><use transform="matrix(0.05,0,0,0.05,23.95,0)" xlink:href="#ak"/><use transform="matrix(0.05,0,0,0.05,27.899999999999995,0)" xlink:href="#al"/></g><path d="M210-169c-67 3-38 105-44 169h-31v-121c0-29-5-50-35-48C34-165 62-65 56 0H25l-1-190h30c1 10-1 24 2 32 10-44 99-50 107 0 11-21 27-35 58-36 85-2 47 119 55 194h-31v-121c0-29-5-49-35-48" id="am"/><path d="M96-169c-40 0-48 33-48 73s9 75 48 75c24 0 41-14 43-38l32 2c-6 37-31 61-74 61-59 0-76-41-82-99-10-93 101-131 147-64 4 7 5 14 7 22l-32 3c-4-21-16-35-41-35" id="an"/><path d="M106-169C34-169 62-67 57 0H25v-261h32l-1 103c12-21 28-36 61-36 89 0 53 116 60 194h-32v-121c2-32-8-49-39-48" id="ao"/><g id="e"><use transform="matrix(0.05,0,0,0.05,0,0)" xlink:href="#am"/><use transform="matrix(0.05,0,0,0.05,14.950000000000001,0)" xlink:href="#ah"/><use transform="matrix(0.05,0,0,0.05,24.950000000000003,0)" xlink:href="#ad"/><use transform="matrix(0.05,0,0,0.05,29.950000000000003,0)" xlink:href="#an"/><use transform="matrix(0.05,0,0,0.05,38.95,0)" xlink:href="#ao"/><use transform="matrix(0.05,0,0,0.05,48.95,0)" xlink:href="#ab"/><use transform="matrix(0.05,0,0,0.05,52.900000000000006,0)" xlink:href="#ac"/><use transform="matrix(0.05,0,0,0.05,62.900000000000006,0)" xlink:href="#af"/></g><path d="M84 4C-5 8 30-112 23-190h32v120c0 31 7 50 39 49 72-2 45-101 50-169h31l1 190h-30c-1-10 1-25-2-33-11 22-28 36-60 37" id="ap"/><path d="M115-194c55 1 70 41 70 98S169 2 115 4C84 4 66-9 55-30l1 105H24l-1-265h31l2 30c10-21 28-34 59-34zm-8 174c40 0 45-34 45-75s-6-73-45-74c-42 0-51 32-51 76 0 43 10 73 51 73" id="aq"/><g id="f"><use transform="matrix(0.05,0,0,0.05,0,0)" xlink:href="#ap"/><use transform="matrix(0.05,0,0,0.05,10,0)" xlink:href="#aq"/><use transform="matrix(0.05,0,0,0.05,20,0)" xlink:href="#ai"/><use transform="matrix(0.05,0,0,0.05,30,0)" xlink:href="#ah"/><use transform="matrix(0.05,0,0,0.05,40,0)" xlink:href="#ad"/><use transform="matrix(0.05,0,0,0.05,45,0)" xlink:href="#ae"/><use transform="matrix(0.05,0,0,0.05,55,0)" xlink:href="#ai"/></g><g id="g"><use transform="matrix(0.05,0,0,0.05,0,0)" xlink:href="#ab"/><use transform="matrix(0.05,0,0,0.05,3.95,0)" xlink:href="#ac"/><use transform="matrix(0.05,0,0,0.05,13.949999999999998,0)" xlink:href="#ad"/><use transform="matrix(0.05,0,0,0.05,18.95,0)" xlink:href="#ae"/><use transform="matrix(0.05,0,0,0.05,28.950000000000003,0)" xlink:href="#af"/><use transform="matrix(0.05,0,0,0.05,38.95,0)" xlink:href="#ag"/><use transform="matrix(0.05,0,0,0.05,44.900000000000006,0)" xlink:href="#ah"/><use transform="matrix(0.05,0,0,0.05,54.900000000000006,0)" xlink:href="#ad"/><use transform="matrix(0.05,0,0,0.05,59.900000000000006,0)" xlink:href="#ae"/><use transform="matrix(0.05,0,0,0.05,69.9,0)" xlink:href="#ai"/></g><g id="h"><use transform="matrix(0.05,0,0,0.05,0,0)" xlink:href="#ai"/><use transform="matrix(0.05,0,0,0.05,10,0)" xlink:href="#ae"/><use transform="matrix(0.05,0,0,0.05,20,0)" xlink:href="#ak"/><use transform="matrix(0.05,0,0,0.05,23.95,0)" xlink:href="#ad"/><use transform="matrix(0.05,0,0,0.05,28.950000000000003,0)" xlink:href="#ah"/></g><path d="M101-234c-31-9-42 10-38 44h38v23H63V0H32v-167H5v-23h27c-7-52 17-82 69-68v24" id="ar"/><g id="i"><use transform="matrix(0.05,0,0,0.05,0,0)" xlink:href="#ak"/><use transform="matrix(0.05,0,0,0.05,3.95,0)" xlink:href="#ae"/><use transform="matrix(0.05,0,0,0.05,13.949999999999998,0)" xlink:href="#ar"/><use transform="matrix(0.05,0,0,0.05,18.95,0)" xlink:href="#ad"/></g><path d="M100-194c62-1 85 37 85 99 1 63-27 99-86 99S16-35 15-95c0-66 28-99 85-99zM99-20c44 1 53-31 53-75 0-43-8-75-51-75s-53 32-53 75 10 74 51 75" id="as"/><path d="M108 0H70L1-190h34L89-25l56-165h34" id="at"/><path d="M135-143c-3-34-86-38-87 0 15 53 115 12 119 90S17 21 10-45l28-5c4 36 97 45 98 0-10-56-113-15-118-90-4-57 82-63 122-42 12 7 21 19 24 35" id="au"/><g id="j"><use transform="matrix(0.05,0,0,0.05,0,0)" xlink:href="#as"/><use transform="matrix(0.05,0,0,0.05,10,0)" xlink:href="#at"/><use transform="matrix(0.05,0,0,0.05,19,0)" xlink:href="#ae"/><use transform="matrix(0.05,0,0,0.05,29,0)" xlink:href="#ag"/><use transform="matrix(0.05,0,0,0.05,34.95,0)" xlink:href="#au"/></g><path d="M24-231v-30h32v30H24zM-9 49c24 4 33-6 33-30v-209h32V24c2 40-23 58-65 49V49" id="av"/><g id="k"><use transform="matrix(0.05,0,0,0.05,0,0)" xlink:href="#av"/><use transform="matrix(0.05,0,0,0.05,3.95,0)" xlink:href="#as"/><use transform="matrix(0.05,0,0,0.05,13.949999999999998,0)" xlink:href="#ab"/><use transform="matrix(0.05,0,0,0.05,17.9,0)" xlink:href="#ac"/><use transform="matrix(0.05,0,0,0.05,27.899999999999995,0)" xlink:href="#ab"/><use transform="matrix(0.05,0,0,0.05,31.849999999999994,0)" xlink:href="#ac"/><use transform="matrix(0.05,0,0,0.05,41.849999999999994,0)" xlink:href="#af"/></g><g id="l"><use transform="matrix(0.05,0,0,0.05,0,0)" xlink:href="#ac"/><use transform="matrix(0.05,0,0,0.05,10,0)" xlink:href="#ae"/><use transform="matrix(0.05,0,0,0.05,20,0)" xlink:href="#aj"/></g><g id="m"><use transform="matrix(0.05,0,0,0.05,0,0)" xlink:href="#af"/><use transform="matrix(0.05,0,0,0.05,10,0)" xlink:href="#as"/><use transform="matrix(0.05,0,0,0.05,20,0)" xlink:href="#ak"/><use transform="matrix(0.05,0,0,0.05,23.95,0)" xlink:href="#ai"/><use transform="matrix(0.05,0,0,0.05,33.95,0)" xlink:href="#ae"/><use transform="matrix(0.05,0,0,0.05,43.95,0)" xlink:href="#ac"/></g><g id="n"><use transform="matrix(0.05,0,0,0.05,0,0)" xlink:href="#ag"/><use transform="matrix(0.05,0,0,0.05,5.95,0)" xlink:href="#ae"/><use transform="matrix(0.05,0,0,0.05,15.949999999999998,0)" xlink:href="#an"/><use transform="matrix(0.05,0,0,0.05,24.95,0)" xlink:href="#as"/><use transform="matrix(0.05,0,0,0.05,34.95,0)" xlink:href="#ag"/><use transform="matrix(0.05,0,0,0.05,40.900000000000006,0)" xlink:href="#ai"/><use transform="matrix(0.05,0,0,0.05,50.900000000000006,0)" xlink:href="#au"/></g><path d="M118-107v75H92v-75H18v-26h74v-75h26v75h74v26h-74" id="aw"/><use transform="matrix(0.05,0,0,0.05,0,0)" xlink:href="#aw" id="o"/><path d="M115-194c53 0 69 39 70 98 0 66-23 100-70 100C84 3 66-7 56-30L54 0H23l1-261h32v101c10-23 28-34 59-34zm-8 174c40 0 45-34 45-75 0-40-5-75-45-74-42 0-51 32-51 76 0 43 10 73 51 73" id="ax"/><g id="p"><use transform="matrix(0.05,0,0,0.05,0,0)" xlink:href="#as"/><use transform="matrix(0.05,0,0,0.05,10,0)" xlink:href="#ao"/><use transform="matrix(0.05,0,0,0.05,20,0)" xlink:href="#ap"/><use transform="matrix(0.05,0,0,0.05,30,0)" xlink:href="#ax"/></g><g id="q"><use transform="matrix(0.05,0,0,0.05,0,0)" xlink:href="#ab"/><use transform="matrix(0.05,0,0,0.05,3.95,0)" xlink:href="#ai"/></g><g id="r"><use transform="matrix(0.05,0,0,0.05,0,0)" xlink:href="#ai"/><use transform="matrix(0.05,0,0,0.05,10,0)" xlink:href="#as"/><use transform="matrix(0.05,0,0,0.05,20,0)" xlink:href="#am"/><use transform="matrix(0.05,0,0,0.05,34.95,0)" xlink:href="#ah"/><use transform="matrix(0.05,0,0,0.05,44.95,0)" xlink:href="#ab"/><use transform="matrix(0.05,0,0,0.05,48.900000000000006,0)" xlink:href="#ac"/></g><g id="s"><use transform="matrix(0.05,0,0,0.05,0,0)" xlink:href="#am"/><use transform="matrix(0.05,0,0,0.05,14.950000000000001,0)" xlink:href="#as"/><use transform="matrix(0.05,0,0,0.05,24.950000000000003,0)" xlink:href="#ai"/><use transform="matrix(0.05,0,0,0.05,34.95,0)" xlink:href="#ae"/><use transform="matrix(0.05,0,0,0.05,44.95,0)" xlink:href="#ak"/></g><g id="t"><use transform="matrix(0.05,0,0,0.05,0,0)" xlink:href="#ab"/><use transform="matrix(0.05,0,0,0.05,3.95,0)" xlink:href="#ac"/><use transform="matrix(0.05,0,0,0.05,13.949999999999998,0)" xlink:href="#af"/><use transform="matrix(0.05,0,0,0.05,23.95,0)" xlink:href="#ae"/><use transform="matrix(0.05,0,0,0.05,33.95,0)" xlink:href="#au"/><use transform="matrix(0.05,0,0,0.05,42.95,0)" xlink:href="#ad"/><use transform="matrix(0.05,0,0,0.05,47.95,0)" xlink:href="#ae"/><use transform="matrix(0.05,0,0,0.05,57.95,0)" xlink:href="#ai"/></g><g id="u"><use transform="matrix(0.05,0,0,0.05,0,0)" xlink:href="#ai"/><use transform="matrix(0.05,0,0,0.05,10,0)" xlink:href="#ah"/><use transform="matrix(0.05,0,0,0.05,20,0)" xlink:href="#ab"/><use transform="matrix(0.05,0,0,0.05,23.95,0)" xlink:href="#ak"/><use transform="matrix(0.05,0,0,0.05,27.899999999999995,0)" xlink:href="#al"/></g><g id="v"><use transform="matrix(0.05,0,0,0.05,0,0)" xlink:href="#ad"/><use transform="matrix(0.05,0,0,0.05,5,0)" xlink:href="#ag"/><use transform="matrix(0.05,0,0,0.05,10.95,0)" xlink:href="#ah"/><use transform="matrix(0.05,0,0,0.05,20.95,0)" xlink:href="#ac"/><use transform="matrix(0.05,0,0,0.05,30.950000000000003,0)" xlink:href="#ar"/><use transform="matrix(0.05,0,0,0.05,35.95,0)" xlink:href="#as"/><use transform="matrix(0.05,0,0,0.05,45.95,0)" xlink:href="#ag"/><use transform="matrix(0.05,0,0,0.05,51.900000000000006,0)" xlink:href="#am"/></g><g id="w"><use transform="matrix(0.05,0,0,0.05,0,0)" xlink:href="#ar"/><use transform="matrix(0.05,0,0,0.05,5,0)" xlink:href="#as"/><use transform="matrix(0.05,0,0,0.05,15,0)" xlink:href="#ag"/></g><path d="M141 0L90-78 38 0H4l68-98-65-92h35l48 74 47-74h35l-64 92 68 98h-35" id="ay"/><g id="x"><use transform="matrix(0.05,0,0,0.05,0,0)" xlink:href="#ae"/><use transform="matrix(0.05,0,0,0.05,10,0)" xlink:href="#ay"/><use transform="matrix(0.05,0,0,0.05,19,0)" xlink:href="#aq"/><use transform="matrix(0.05,0,0,0.05,29,0)" xlink:href="#as"/><use transform="matrix(0.05,0,0,0.05,39,0)" xlink:href="#ag"/><use transform="matrix(0.05,0,0,0.05,44.95,0)" xlink:href="#ad"/></g><g id="y"><use transform="matrix(0.05,0,0,0.05,0,0)" xlink:href="#ae"/><use transform="matrix(0.05,0,0,0.05,10,0)" xlink:href="#ay"/><use transform="matrix(0.05,0,0,0.05,19,0)" xlink:href="#aq"/><use transform="matrix(0.05,0,0,0.05,29,0)" xlink:href="#as"/><use transform="matrix(0.05,0,0,0.05,39,0)" xlink:href="#ag"/><use transform="matrix(0.05,0,0,0.05,44.95,0)" xlink:href="#ad"/></g><g id="z"><use transform="matrix(0.05,0,0,0.05,0,0)" xlink:href="#af"/><use transform="matrix(0.05,0,0,0.05,10,0)" xlink:href="#ag"/><use transform="matrix(0.05,0,0,0.05,15.949999999999998,0)" xlink:href="#as"/><use transform="matrix(0.05,0,0,0.05,25.950000000000003,0)" xlink:href="#ap"/><use transform="matrix(0.05,0,0,0.05,35.95,0)" xlink:href="#aq"/><use transform="matrix(0.05,0,0,0.05,45.95,0)" xlink:href="#au"/></g><g id="A"><use transform="matrix(0.05,0,0,0.05,0,0)" xlink:href="#am"/><use transform="matrix(0.05,0,0,0.05,14.950000000000001,0)" xlink:href="#ah"/><use transform="matrix(0.05,0,0,0.05,24.950000000000003,0)" xlink:href="#ad"/><use transform="matrix(0.05,0,0,0.05,29.950000000000003,0)" xlink:href="#an"/><use transform="matrix(0.05,0,0,0.05,38.95,0)" xlink:href="#ao"/></g><g id="B"><use transform="matrix(0.05,0,0,0.05,0,0)" xlink:href="#ae"/><use transform="matrix(0.05,0,0,0.05,10,0)" xlink:href="#ay"/><use transform="matrix(0.05,0,0,0.05,19,0)" xlink:href="#ah"/><use transform="matrix(0.05,0,0,0.05,29,0)" xlink:href="#an"/><use transform="matrix(0.05,0,0,0.05,38,0)" xlink:href="#ad"/></g><g id="C"><use transform="matrix(0.05,0,0,0.05,0,0)" xlink:href="#ab"/><use transform="matrix(0.05,0,0,0.05,3.95,0)" xlink:href="#ac"/><use transform="matrix(0.05,0,0,0.05,13.949999999999998,0)" xlink:href="#ad"/><use transform="matrix(0.05,0,0,0.05,18.95,0)" xlink:href="#ae"/><use transform="matrix(0.05,0,0,0.05,28.950000000000003,0)" xlink:href="#af"/><use transform="matrix(0.05,0,0,0.05,38.95,0)" xlink:href="#ag"/><use transform="matrix(0.05,0,0,0.05,44.900000000000006,0)" xlink:href="#ah"/><use transform="matrix(0.05,0,0,0.05,54.900000000000006,0)" xlink:href="#ad"/><use transform="matrix(0.05,0,0,0.05,59.900000000000006,0)" xlink:href="#ae"/><use transform="matrix(0.05,0,0,0.05,69.9,0)" xlink:href="#ai"/></g><path d="M33 0v-38h34V0H33" id="az"/><g id="D"><use transform="matrix(0.05,0,0,0.05,0,0)" xlink:href="#az"/><use transform="matrix(0.05,0,0,0.05,5,0)" xlink:href="#at"/><use transform="matrix(0.05,0,0,0.05,12.65,0)" xlink:href="#az"/><use transform="matrix(0.05,0,0,0.05,17.65,0)" xlink:href="#au"/></g><g id="E"><use transform="matrix(0.05,0,0,0.05,0,0)" xlink:href="#ab"/><use transform="matrix(0.05,0,0,0.05,3.95,0)" xlink:href="#ac"/><use transform="matrix(0.05,0,0,0.05,13.949999999999998,0)" xlink:href="#af"/><use transform="matrix(0.05,0,0,0.05,23.95,0)" xlink:href="#ae"/><use transform="matrix(0.05,0,0,0.05,33.95,0)" xlink:href="#au"/><use transform="matrix(0.05,0,0,0.05,42.95,0)" xlink:href="#ad"/><use transform="matrix(0.05,0,0,0.05,47.95,0)" xlink:href="#ae"/><use transform="matrix(0.05,0,0,0.05,57.95,0)" xlink:href="#ai"/></g><g id="F"><use transform="matrix(0.05,0,0,0.05,0,0)" xlink:href="#ap"/><use transform="matrix(0.05,0,0,0.05,10,0)" xlink:href="#aq"/><use transform="matrix(0.05,0,0,0.05,20,0)" xlink:href="#ai"/><use transform="matrix(0.05,0,0,0.05,30,0)" xlink:href="#ah"/><use transform="matrix(0.05,0,0,0.05,40,0)" xlink:href="#ad"/><use transform="matrix(0.05,0,0,0.05,45,0)" xlink:href="#ae"/><use transform="matrix(0.05,0,0,0.05,55,0)" xlink:href="#ai"/></g><g id="G"><use transform="matrix(0.05,0,0,0.05,0,0)" xlink:href="#ae"/><use transform="matrix(0.05,0,0,0.05,10,0)" xlink:href="#ay"/><use transform="matrix(0.05,0,0,0.05,19,0)" xlink:href="#ah"/><use transform="matrix(0.05,0,0,0.05,29,0)" xlink:href="#an"/><use transform="matrix(0.05,0,0,0.05,38,0)" xlink:href="#ad"/></g><g id="H"><use transform="matrix(0.05,0,0,0.05,0,0)" xlink:href="#am"/><use transform="matrix(0.05,0,0,0.05,14.950000000000001,0)" xlink:href="#ah"/><use transform="matrix(0.05,0,0,0.05,24.950000000000003,0)" xlink:href="#ad"/><use transform="matrix(0.05,0,0,0.05,29.950000000000003,0)" xlink:href="#an"/><use transform="matrix(0.05,0,0,0.05,38.95,0)" xlink:href="#ao"/><use transform="matrix(0.05,0,0,0.05,48.95,0)" xlink:href="#ae"/><use transform="matrix(0.05,0,0,0.05,58.95,0)" xlink:href="#au"/></g><g id="I"><use transform="matrix(0.05,0,0,0.05,0,0)" xlink:href="#ap"/><use transform="matrix(0.05,0,0,0.05,10,0)" xlink:href="#ac"/><use transform="matrix(0.05,0,0,0.05,20,0)" xlink:href="#am"/><use transform="matrix(0.05,0,0,0.05,34.95,0)" xlink:href="#ah"/><use transform="matrix(0.05,0,0,0.05,44.95,0)" xlink:href="#ad"/><use transform="matrix(0.05,0,0,0.05,49.95,0)" xlink:href="#an"/><use transform="matrix(0.05,0,0,0.05,58.95,0)" xlink:href="#ao"/><use transform="matrix(0.05,0,0,0.05,68.95,0)" xlink:href="#ae"/><use transform="matrix(0.05,0,0,0.05,78.95,0)" xlink:href="#ai"/></g><g id="J"><use transform="matrix(0.05,0,0,0.05,0,0)" xlink:href="#an"/><use transform="matrix(0.05,0,0,0.05,9,0)" xlink:href="#as"/><use transform="matrix(0.05,0,0,0.05,19,0)" xlink:href="#ac"/><use transform="matrix(0.05,0,0,0.05,29,0)" xlink:href="#ad"/><use transform="matrix(0.05,0,0,0.05,34,0)" xlink:href="#ah"/><use transform="matrix(0.05,0,0,0.05,44,0)" xlink:href="#an"/><use transform="matrix(0.05,0,0,0.05,53,0)" xlink:href="#ad"/></g><g id="K"><use transform="matrix(0.05,0,0,0.05,0,0)" xlink:href="#aq"/><use transform="matrix(0.05,0,0,0.05,10,0)" xlink:href="#ae"/><use transform="matrix(0.05,0,0,0.05,20,0)" xlink:href="#ag"/><use transform="matrix(0.05,0,0,0.05,25.950000000000003,0)" xlink:href="#au"/><use transform="matrix(0.05,0,0,0.05,34.95,0)" xlink:href="#as"/><use transform="matrix(0.05,0,0,0.05,44.95,0)" xlink:href="#ac"/><use transform="matrix(0.05,0,0,0.05,54.95,0)" xlink:href="#au"/></g><g id="L"><use transform="matrix(0.05,0,0,0.05,0,0)" xlink:href="#as"/><use transform="matrix(0.05,0,0,0.05,10,0)" xlink:href="#aq"/><use transform="matrix(0.05,0,0,0.05,20,0)" xlink:href="#ae"/><use transform="matrix(0.05,0,0,0.05,30,0)" xlink:href="#ag"/><use transform="matrix(0.05,0,0,0.05,35.95,0)" xlink:href="#ah"/><use transform="matrix(0.05,0,0,0.05,45.95,0)" xlink:href="#ad"/><use transform="matrix(0.05,0,0,0.05,50.95,0)" xlink:href="#as"/><use transform="matrix(0.05,0,0,0.05,60.95,0)" xlink:href="#ag"/><use transform="matrix(0.05,0,0,0.05,66.9,0)" xlink:href="#au"/></g><g id="M"><use transform="matrix(0.05,0,0,0.05,0,0)" xlink:href="#ap"/><use transform="matrix(0.05,0,0,0.05,10,0)" xlink:href="#aq"/><use transform="matrix(0.05,0,0,0.05,20,0)" xlink:href="#ai"/><use transform="matrix(0.05,0,0,0.05,30,0)" xlink:href="#ah"/><use transform="matrix(0.05,0,0,0.05,40,0)" xlink:href="#ad"/><use transform="matrix(0.05,0,0,0.05,45,0)" xlink:href="#ae"/></g><g id="N"><use transform="matrix(0.05,0,0,0.05,0,0)" xlink:href="#ag"/><use transform="matrix(0.05,0,0,0.05,5.95,0)" xlink:href="#ae"/><use transform="matrix(0.05,0,0,0.05,15.949999999999998,0)" xlink:href="#ar"/><use transform="matrix(0.05,0,0,0.05,20.95,0)" xlink:href="#ae"/><use transform="matrix(0.05,0,0,0.05,30.950000000000003,0)" xlink:href="#ag"/><use transform="matrix(0.05,0,0,0.05,36.9,0)" xlink:href="#ae"/><use transform="matrix(0.05,0,0,0.05,46.9,0)" xlink:href="#ac"/><use transform="matrix(0.05,0,0,0.05,56.900000000000006,0)" xlink:href="#an"/><use transform="matrix(0.05,0,0,0.05,65.9,0)" xlink:href="#ae"/><use transform="matrix(0.05,0,0,0.05,75.9,0)" xlink:href="#au"/></g><g id="O"><use transform="matrix(0.05,0,0,0.05,0,0)" xlink:href="#an"/><use transform="matrix(0.05,0,0,0.05,9,0)" xlink:href="#as"/><use transform="matrix(0.05,0,0,0.05,19,0)" xlink:href="#am"/><use transform="matrix(0.05,0,0,0.05,33.95,0)" xlink:href="#ax"/><use transform="matrix(0.05,0,0,0.05,43.95,0)" xlink:href="#ab"/><use transform="matrix(0.05,0,0,0.05,47.900000000000006,0)" xlink:href="#ac"/><use transform="matrix(0.05,0,0,0.05,57.900000000000006,0)" xlink:href="#ae"/></g><g id="P"><use transform="matrix(0.05,0,0,0.05,0,0)" xlink:href="#ag"/><use transform="matrix(0.05,0,0,0.05,5.95,0)" xlink:href="#ae"/><use transform="matrix(0.05,0,0,0.05,15.949999999999998,0)" xlink:href="#an"/><use transform="matrix(0.05,0,0,0.05,24.95,0)" xlink:href="#as"/><use transform="matrix(0.05,0,0,0.05,34.95,0)" xlink:href="#ag"/><use transform="matrix(0.05,0,0,0.05,40.900000000000006,0)" xlink:href="#ai"/><use transform="matrix(0.05,0,0,0.05,50.900000000000006,0)" xlink:href="#au"/></g><g id="Q"><use transform="matrix(0.05,0,0,0.05,0,0)" xlink:href="#ag"/><use transform="matrix(0.05,0,0,0.05,5.95,0)" xlink:href="#ae"/><use transform="matrix(0.05,0,0,0.05,15.949999999999998,0)" xlink:href="#an"/><use transform="matrix(0.05,0,0,0.05,24.95,0)" xlink:href="#as"/><use transform="matrix(0.05,0,0,0.05,34.95,0)" xlink:href="#ag"/><use transform="matrix(0.05,0,0,0.05,40.900000000000006,0)" xlink:href="#ai"/></g><g id="R"><use transform="matrix(0.05,0,0,0.05,0,0)" xlink:href="#an"/><use transform="matrix(0.05,0,0,0.05,9,0)" xlink:href="#as"/><use transform="matrix(0.05,0,0,0.05,19,0)" xlink:href="#am"/><use transform="matrix(0.05,0,0,0.05,33.95,0)" xlink:href="#ax"/><use transform="matrix(0.05,0,0,0.05,43.95,0)" xlink:href="#ab"/><use transform="matrix(0.05,0,0,0.05,47.900000000000006,0)" xlink:href="#ac"/><use transform="matrix(0.05,0,0,0.05,57.900000000000006,0)" xlink:href="#ae"/><use transform="matrix(0.05,0,0,0.05,67.9,0)" xlink:href="#ai"/></g><path fill="#fff" d="M25-224v-37h50v37H25zM25 0v-190h50V0H25" id="aA"/><path fill="#fff" d="M135-194c87-1 58 113 63 194h-50c-7-57 23-157-34-157-59 0-34 97-39 157H25l-1-190h47c2 12-1 28 3 38 12-26 28-41 61-42" id="aB"/><path fill="#fff" d="M115-3C79 11 28 4 28-45v-112H4v-33h27l15-45h31v45h36v33H77v99c-1 23 16 31 38 25v30" id="aC"/><path fill="#fff" d="M185-48c-13 30-37 53-82 52C43 2 14-33 14-96s30-98 90-98c62 0 83 45 84 108H66c0 31 8 55 39 56 18 0 30-7 34-22zm-45-69c5-46-57-63-70-21-2 6-4 13-4 21h74" id="aD"/><path fill="#fff" d="M195-6C206 82 75 100 31 46c-4-6-6-13-8-21l49-6c3 16 16 24 34 25 40 0 42-37 40-79-11 22-30 35-61 35-53 0-70-43-70-97 0-56 18-96 73-97 30 0 46 14 59 34l2-30h47zm-90-29c32 0 41-27 41-63 0-35-9-62-40-62-32 0-39 29-40 63 0 36 9 62 39 62" id="aE"/><path fill="#fff" d="M135-150c-39-12-60 13-60 57V0H25l-1-190h47c2 13-1 29 3 40 6-28 27-53 61-41v41" id="aF"/><path fill="#fff" d="M133-34C117-15 103 5 69 4 32 3 11-16 11-54c-1-60 55-63 116-61 1-26-3-47-28-47-18 1-26 9-28 27l-52-2c7-38 36-58 82-57s74 22 75 68l1 82c-1 14 12 18 25 15v27c-30 8-71 5-69-32zm-48 3c29 0 43-24 42-57-32 0-66-3-65 30 0 17 8 27 23 27" id="aG"/><path fill="#fff" d="M88-194c31-1 46 15 58 34l-1-101h50l1 261h-48c-2-10 0-23-3-31C134-8 116 4 84 4 32 4 16-41 15-95c0-56 19-97 73-99zm17 164c33 0 40-30 41-66 1-37-9-64-41-64s-38 30-39 65c0 43 13 65 39 65" id="aH"/><g id="S"><use transform="matrix(0.05,0,0,0.05,0,0)" xlink:href="#aA"/><use transform="matrix(0.05,0,0,0.05,5,0)" xlink:href="#aB"/><use transform="matrix(0.05,0,0,0.05,15.950000000000001,0)" xlink:href="#aC"/><use transform="matrix(0.05,0,0,0.05,21.900000000000002,0)" xlink:href="#aD"/><use transform="matrix(0.05,0,0,0.05,31.900000000000002,0)" xlink:href="#aE"/><use transform="matrix(0.05,0,0,0.05,42.85,0)" xlink:href="#aF"/><use transform="matrix(0.05,0,0,0.05,49.85,0)" xlink:href="#aG"/><use transform="matrix(0.05,0,0,0.05,59.85,0)" xlink:href="#aC"/><use transform="matrix(0.05,0,0,0.05,65.8,0)" xlink:href="#aD"/><use transform="matrix(0.05,0,0,0.05,75.8,0)" xlink:href="#aH"/></g><path d="M135-150c-39-12-60 13-60 57V0H25l-1-190h47c2 13-1 29 3 40 6-28 27-53 61-41v41" id="aI"/><path d="M133-34C117-15 103 5 69 4 32 3 11-16 11-54c-1-60 55-63 116-61 1-26-3-47-28-47-18 1-26 9-28 27l-52-2c7-38 36-58 82-57s74 22 75 68l1 82c-1 14 12 18 25 15v27c-30 8-71 5-69-32zm-48 3c29 0 43-24 42-57-32 0-66-3-65 30 0 17 8 27 23 27" id="aJ"/><path d="M231 0h-52l-39-155L100 0H48L-1-190h46L77-45c9-52 24-97 36-145h53l37 145 32-145h46" id="aK"/><g id="T"><use transform="matrix(0.05,0,0,0.05,0,0)" xlink:href="#aI"/><use transform="matrix(0.05,0,0,0.05,7,0)" xlink:href="#aJ"/><use transform="matrix(0.05,0,0,0.05,17,0)" xlink:href="#aK"/></g><path fill="#fff" d="M137-138c1-29-70-34-71-4 15 46 118 7 119 86 1 83-164 76-172 9l43-7c4 19 20 25 44 25 33 8 57-30 24-41C81-84 22-81 20-136c-2-80 154-74 161-7" id="aL"/><g id="U"><use transform="matrix(0.05,0,0,0.05,0,0)" xlink:href="#aA"/><use transform="matrix(0.05,0,0,0.05,5,0)" xlink:href="#aB"/><use transform="matrix(0.05,0,0,0.05,15.950000000000001,0)" xlink:href="#aE"/><use transform="matrix(0.05,0,0,0.05,26.900000000000002,0)" xlink:href="#aD"/><use transform="matrix(0.05,0,0,0.05,36.900000000000006,0)" xlink:href="#aL"/><use transform="matrix(0.05,0,0,0.05,46.900000000000006,0)" xlink:href="#aC"/><use transform="matrix(0.05,0,0,0.05,52.85,0)" xlink:href="#aD"/><use transform="matrix(0.05,0,0,0.05,62.85,0)" xlink:href="#aH"/></g><path fill="#fff" d="M220-157c-53 9-28 100-34 157h-49v-107c1-27-5-49-29-50C55-147 81-57 75 0H25l-1-190h47c2 12-1 28 3 38 10-53 101-56 108 0 13-22 24-43 59-42 82 1 51 116 57 194h-49v-107c-1-25-5-48-29-50" id="aM"/><g id="V"><use transform="matrix(0.05,0,0,0.05,0,0)" xlink:href="#aA"/><use transform="matrix(0.05,0,0,0.05,5,0)" xlink:href="#aB"/><use transform="matrix(0.05,0,0,0.05,15.950000000000001,0)" xlink:href="#aC"/><use transform="matrix(0.05,0,0,0.05,21.900000000000002,0)" xlink:href="#aD"/><use transform="matrix(0.05,0,0,0.05,31.900000000000002,0)" xlink:href="#aM"/><use transform="matrix(0.05,0,0,0.05,47.900000000000006,0)" xlink:href="#aD"/><use transform="matrix(0.05,0,0,0.05,57.900000000000006,0)" xlink:href="#aH"/><use transform="matrix(0.05,0,0,0.05,68.85000000000001,0)" xlink:href="#aA"/><use transform="matrix(0.05,0,0,0.05,73.85000000000001,0)" xlink:href="#aG"/><use transform="matrix(0.05,0,0,0.05,83.85000000000001,0)" xlink:href="#aC"/><use transform="matrix(0.05,0,0,0.05,89.80000000000001,0)" xlink:href="#aD"/></g><path fill="#fff" d="M144 0l-44-69L55 0H2l70-98-66-92h53l41 62 40-62h54l-67 91 71 99h-54" id="aN"/><path fill="#fff" d="M135-194c53 0 70 44 70 98 0 56-19 98-73 100-31 1-45-17-59-34 3 33 2 69 2 105H25l-1-265h48c2 10 0 23 3 31 11-24 29-35 60-35zM114-30c33 0 39-31 40-66 0-38-9-64-40-64-56 0-55 130 0 130" id="aO"/><path fill="#fff" d="M110-194c64 0 96 36 96 99 0 64-35 99-97 99-61 0-95-36-95-99 0-62 34-99 96-99zm-1 164c35 0 45-28 45-65 0-40-10-65-43-65-34 0-45 26-45 65 0 36 10 65 43 65" id="aP"/><g id="W"><use transform="matrix(0.05,0,0,0.05,0,0)" xlink:href="#aD"/><use transform="matrix(0.05,0,0,0.05,10,0)" xlink:href="#aN"/><use transform="matrix(0.05,0,0,0.05,20,0)" xlink:href="#aO"/><use transform="matrix(0.05,0,0,0.05,30.950000000000003,0)" xlink:href="#aP"/><use transform="matrix(0.05,0,0,0.05,41.900000000000006,0)" xlink:href="#aF"/><use transform="matrix(0.05,0,0,0.05,48.900000000000006,0)" xlink:href="#aC"/></g><path d="M121-226c-27-7-43 5-38 36h38v33H83V0H34v-157H6v-33h28c-9-59 32-81 87-68v32" id="aQ"/><path d="M110-194c64 0 96 36 96 99 0 64-35 99-97 99-61 0-95-36-95-99 0-62 34-99 96-99zm-1 164c35 0 45-28 45-65 0-40-10-65-43-65-34 0-45 26-45 65 0 36 10 65 43 65" id="aR"/><path d="M25 0v-261h50V0H25" id="aS"/><path d="M88-194c31-1 46 15 58 34l-1-101h50l1 261h-48c-2-10 0-23-3-31C134-8 116 4 84 4 32 4 16-41 15-95c0-56 19-97 73-99zm17 164c33 0 40-30 41-66 1-37-9-64-41-64s-38 30-39 65c0 43 13 65 39 65" id="aT"/><path d="M185-48c-13 30-37 53-82 52C43 2 14-33 14-96s30-98 90-98c62 0 83 45 84 108H66c0 31 8 55 39 56 18 0 30-7 34-22zm-45-69c5-46-57-63-70-21-2 6-4 13-4 21h74" id="aU"/><g id="X"><use transform="matrix(0.05,0,0,0.05,0,0)" xlink:href="#aQ"/><use transform="matrix(0.05,0,0,0.05,5.95,0)" xlink:href="#aR"/><use transform="matrix(0.05,0,0,0.05,16.900000000000002,0)" xlink:href="#aS"/><use transform="matrix(0.05,0,0,0.05,21.900000000000002,0)" xlink:href="#aT"/><use transform="matrix(0.05,0,0,0.05,32.85,0)" xlink:href="#aU"/><use transform="matrix(0.05,0,0,0.05,42.85,0)" xlink:href="#aI"/></g><path d="M190-63c-7 42-38 67-86 67-59 0-84-38-90-98-12-110 154-137 174-36l-49 2c-2-19-15-32-35-32-30 0-35 28-38 64-6 74 65 87 74 30" id="aV"/><path d="M135-194c87-1 58 113 63 194h-50c-7-57 23-157-34-157-59 0-34 97-39 157H25l-1-190h47c2 12-1 28 3 38 12-26 28-41 61-42" id="aW"/><path d="M128 0H69L1-190h53L99-40l48-150h52" id="aX"/><path d="M115-3C79 11 28 4 28-45v-112H4v-33h27l15-45h31v45h36v33H77v99c-1 23 16 31 38 25v30" id="aY"/><path d="M25-224v-37h50v37H25zM25 0v-190h50V0H25" id="aZ"/><path d="M137-138c1-29-70-34-71-4 15 46 118 7 119 86 1 83-164 76-172 9l43-7c4 19 20 25 44 25 33 8 57-30 24-41C81-84 22-81 20-136c-2-80 154-74 161-7" id="ba"/><g id="Y"><use transform="matrix(0.05,0,0,0.05,0,0)" xlink:href="#aV"/><use transform="matrix(0.05,0,0,0.05,10,0)" xlink:href="#aR"/><use transform="matrix(0.05,0,0,0.05,20.950000000000003,0)" xlink:href="#aW"/><use transform="matrix(0.05,0,0,0.05,31.900000000000006,0)" xlink:href="#aX"/><use transform="matrix(0.05,0,0,0.05,41.900000000000006,0)" xlink:href="#aU"/><use transform="matrix(0.05,0,0,0.05,51.900000000000006,0)" xlink:href="#aW"/><use transform="matrix(0.05,0,0,0.05,62.85,0)" xlink:href="#aY"/><use transform="matrix(0.05,0,0,0.05,68.80000000000001,0)" xlink:href="#aZ"/><use transform="matrix(0.05,0,0,0.05,73.80000000000001,0)" xlink:href="#aR"/><use transform="matrix(0.05,0,0,0.05,84.75000000000001,0)" xlink:href="#aW"/><use transform="matrix(0.05,0,0,0.05,95.70000000000002,0)" xlink:href="#ba"/></g><path fill="#fff" d="M123 10C108 53 80 86 19 72V37c35 8 53-11 59-39L3-190h52l48 148c12-52 28-100 44-148h51" id="bb"/><g id="Z"><use transform="matrix(0.05,0,0,0.05,0,0)" xlink:href="#aC"/><use transform="matrix(0.05,0,0,0.05,5.95,0)" xlink:href="#aD"/><use transform="matrix(0.05,0,0,0.05,15.949999999999998,0)" xlink:href="#aM"/><use transform="matrix(0.05,0,0,0.05,31.950000000000003,0)" xlink:href="#aO"/><use transform="matrix(0.05,0,0,0.05,42.9,0)" xlink:href="#aP"/><use transform="matrix(0.05,0,0,0.05,53.85,0)" xlink:href="#aF"/><use transform="matrix(0.05,0,0,0.05,60.85,0)" xlink:href="#aG"/><use transform="matrix(0.05,0,0,0.05,70.85,0)" xlink:href="#aF"/><use transform="matrix(0.05,0,0,0.05,77.85,0)" xlink:href="#bb"/></g><g id="aa"><use transform="matrix(0.05,0,0,0.05,0,0)" xlink:href="#ab"/><use transform="matrix(0.05,0,0,0.05,3.95,0)" xlink:href="#ac"/><use transform="matrix(0.05,0,0,0.05,13.949999999999998,0)" xlink:href="#ad"/><use transform="matrix(0.05,0,0,0.05,18.95,0)" xlink:href="#ae"/><use transform="matrix(0.05,0,0,0.05,28.950000000000003,0)" xlink:href="#af"/><use transform="matrix(0.05,0,0,0.05,38.95,0)" xlink:href="#ag"/><use transform="matrix(0.05,0,0,0.05,44.900000000000006,0)" xlink:href="#ah"/><use transform="matrix(0.05,0,0,0.05,54.900000000000006,0)" xlink:href="#ad"/><use transform="matrix(0.05,0,0,0.05,59.900000000000006,0)" xlink:href="#ae"/><use transform="matrix(0.05,0,0,0.05,69.9,0)" xlink:href="#ai"/></g></defs></g></svg>