<svg xmlns="http://www.w3.org/2000/svg" xmlns:xlink="http://www.w3.org/1999/xlink" xmlns:lucid="lucid" width="3456" height="1360"><g transform="translate(0 0)" lucid:page-tab-id="0_0"><path d="M224.23 331v5.92c0 2.7-7.6 7.15-21.96 9.7-8.05 1.38-16.1 2.05-24.26 2.04-29.9 0-46.4-7.74-46.4-11.7V331c0 3.96 16.3 11.7 46.4 11.7 8.62.04 15.84-.54 24.37-2 14.26-2.64 21.86-7 21.86-9.7z" fill="#006950"/><path d="M236 377.85v5.2c-.8 32.18-27.5 57.55-59.5 56.7-30.98-.88-55.7-25.63-56.5-56.7v-5.2h116z" fill-opacity="0"/><path d="M223.84 332.1v6c-1.57 2.6-9 6.3-21.6 8.5-7.97 1.4-16.13 2.06-24.3 2.06-29.93 0-46.34-7.74-46.34-11.66v-6c0 3.93 16.32 11.67 46.35 11.67 8.63.1 15.95-.55 24.4-1.97 12.7-2.18 20-5.88 21.68-8.6m.1 87.73c.08-.22.18-.44.18-.77v9.92l-.1.44c-.08.1-.17.32-.26.54v.1l-.28.34-.37.54-.38.44-.65.43-.56.45-.64.55-.74.32-.93.55-.75.43-1.3.55-.74.32c-.73.33-1.47.55-2.3.88l-.84.2-1.85.56-1.2.34-1.76.43-1.4.33-1.94.44-1.57.2-2.14.45-1.77.2-2.4.23-1.77.2-2.87.23-1.87.22-3.24.1h-6.97c-16.87 0-29.57-2.06-38-4.8-6.12-2.17-10.57-4.56-11.04-6.3v-9.5c.46 1.75 4.35 3.93 9.82 6l-.1-.54c13.36 4.14 25.22 5.88 39.22 5.88h6.96l3.33-.1 1.76-.1 2.78-.34 1.76-.1 2.5-.34 1.58-.2 2.3-.34 10.58-2.62c.84-.32 1.67-.54 2.4-.87l2.05-.86.47-.33 1.3-.64.46-.33.92-.54.37-.34.75-.65.27-.2.55-.67v-.43l.37-.87z" fill="#006950"/><path d="M178 320c8.16-.07 16.3.6 24.37 1.98 14.26 2.55 21.86 7 21.86 9.74 0 2.78-7.6 7.08-21.96 9.65-8.05 1.35-16.1 2.03-24.26 1.98-29.9 0-46.4-7.73-46.4-11.67C131.6 327.7 148 320 178 320z" fill="#19967d"/><path d="M201.68 350.8c-1.3.27-2.5.36-3.8.64-.65 0-1.3.18-2.05.27l-3.52.38c-.82 0-1.66.18-2.4.18-1.57.1-3.06.2-4.63.28h-.84c-1.85 0-3.7.1-5.65.18h-1.2c-18.36 0-36.9-3.22-45.9-9.28v80.27c.46 1.85 4.9 4.24 11.03 6.36 8.26 2.67 21.06 4.78 37.93 4.78 30.87.1 43.76-7.45 43.76-11.5V342.9c-4.83 3.3-12.62 6.17-22.72 7.9z" fill="#19967d"/><use xlink:href="#a" transform="matrix(1,0,0,1,120,440) translate(18.049999999999997 14.4)"/><path d="M340 330h160v120H340z" stroke="#000" stroke-width="2" fill="#fff"/><use xlink:href="#b" transform="matrix(1,0,0,1,345,335) translate(30.549999999999997 58.6)"/><path d="M708.23 331v5.92c0 2.7-7.6 7.15-21.96 9.7-8.05 1.38-16.1 2.05-24.26 2.04-29.9 0-46.4-7.74-46.4-11.7V331c0 3.96 16.3 11.7 46.4 11.7 8.62.04 15.84-.54 24.37-2 14.26-2.64 21.86-7 21.86-9.7z" fill="#4f4f4f"/><path d="M720 377.85v5.2c-.8 32.18-27.5 57.55-59.5 56.7-30.98-.88-55.7-25.63-56.5-56.7v-5.2h116z" fill-opacity="0"/><path d="M707.84 332.1v6c-1.57 2.6-9 6.3-21.6 8.5-7.97 1.4-16.13 2.06-24.3 2.06-29.93 0-46.34-7.74-46.34-11.66v-6c0 3.93 16.32 11.67 46.35 11.67 8.63.1 15.95-.55 24.4-1.97 12.7-2.18 20-5.88 21.68-8.6m.1 87.73c.08-.22.18-.44.18-.77v9.92l-.1.44c-.08.1-.17.32-.26.54v.1l-.28.34-.37.54-.38.44-.65.43-.56.45-.64.55-.74.32-.93.55-.75.43-1.3.55-.74.32c-.73.33-1.47.55-2.3.88l-.84.2-1.85.56-1.2.34-1.76.43-1.4.33-1.94.44-1.57.2-2.14.45-1.77.2-2.4.23-1.77.2-2.87.23-1.87.22-3.24.1h-6.97c-16.87 0-29.57-2.06-38-4.8-6.12-2.17-10.57-4.56-11.04-6.3v-9.5c.46 1.75 4.35 3.93 9.82 6l-.1-.54c13.36 4.14 25.22 5.88 39.22 5.88h6.96l3.33-.1 1.76-.1 2.78-.34 1.76-.1 2.5-.34 1.58-.2 2.3-.34 10.58-2.62c.84-.32 1.67-.54 2.4-.87l2.05-.86.47-.33 1.3-.64.46-.33.92-.54.37-.34.75-.65.27-.2.55-.67v-.43l.37-.87z" fill="#4f4f4f"/><path d="M662 320c8.16-.07 16.3.6 24.37 1.98 14.26 2.55 21.86 7 21.86 9.74 0 2.78-7.6 7.08-21.96 9.65-8.05 1.35-16.1 2.03-24.26 1.98-29.9 0-46.4-7.73-46.4-11.67C615.6 327.7 632 320 662 320z" fill="#7d7c7c"/><path d="M685.68 350.8c-1.3.27-2.5.36-3.8.64-.65 0-1.3.18-2.05.27l-3.52.38c-.82 0-1.66.18-2.4.18-1.57.1-3.06.2-4.63.28h-.84c-1.85 0-3.7.1-5.65.18h-1.2c-18.36 0-36.9-3.22-45.9-9.28v80.27c.46 1.85 4.9 4.24 11.03 6.36 8.26 2.67 21.06 4.78 37.93 4.78 30.87.1 43.76-7.45 43.76-11.5V342.9c-4.83 3.3-12.62 6.17-22.72 7.9z" fill="#7d7c7c"/><use xlink:href="#c" transform="matrix(1,0,0,1,604,440) translate(18.049999999999997 14.4)"/><use xlink:href="#d" transform="matrix(1,0,0,1,604,440) translate(3.549999999999997 36)"/><path d="M235.36 390h85.4" stroke="#000" stroke-width="2" fill="none"/><path d="M235.36 391h-.15l.16-1zM335.76 390l-14.26 4.64v-9.28z"/><path d="M339 390l-18.5 6v-12zm-16.5 3.26l10.03-3.26-10.03-3.26z"/><path d="M501 390h85.38" stroke="#000" stroke-width="2" fill="none"/><path d="M501 391h-1v-2h1zM601.38 390l-14.27 4.64v-9.28z"/><path d="M604.62 390l-18.5 6v-12zm-16.5 3.26l10.02-3.26-10.03-3.26z"/><path d="M224.23 491v5.92c0 2.7-7.6 7.15-21.96 9.7-8.05 1.38-16.1 2.05-24.26 2.04-29.9 0-46.4-7.74-46.4-11.7V491c0 3.96 16.3 11.7 46.4 11.7 8.62.04 15.84-.54 24.37-2 14.26-2.64 21.86-7 21.86-9.7z" fill="#004f8d"/><path d="M236 537.85v5.2c-.8 32.18-27.5 57.55-59.5 56.7-30.98-.88-55.7-25.63-56.5-56.7v-5.2h116z" fill-opacity="0"/><path d="M223.84 492.1v6c-1.57 2.6-9 6.3-21.6 8.5-7.97 1.4-16.13 2.06-24.3 2.06-29.93 0-46.34-7.74-46.34-11.66v-6c0 3.93 16.32 11.67 46.35 11.67 8.63.1 15.95-.55 24.4-1.97 12.7-2.18 20-5.88 21.68-8.6m.1 87.73c.08-.22.18-.44.18-.77v9.92l-.1.44c-.08.1-.17.32-.26.54v.1l-.28.34-.37.54-.38.44-.65.43-.56.45-.64.55-.74.32-.93.55-.75.43-1.3.55-.74.32c-.73.33-1.47.55-2.3.88l-.84.2-1.85.56-1.2.34-1.76.43-1.4.33-1.94.44-1.57.2-2.14.45-1.77.2-2.4.23-1.77.2-2.87.23-1.87.22-3.24.1h-6.97c-16.87 0-29.57-2.06-38-4.8-6.12-2.17-10.57-4.56-11.04-6.3v-9.5c.46 1.75 4.35 3.93 9.82 6l-.1-.54c13.36 4.14 25.22 5.88 39.22 5.88h6.96l3.33-.1 1.76-.1 2.78-.34 1.76-.1 2.5-.34 1.58-.2 2.3-.34 10.58-2.62c.84-.32 1.67-.54 2.4-.87l2.05-.86.47-.33 1.3-.64.46-.33.92-.54.37-.34.75-.65.27-.2.55-.67v-.43l.37-.87z" fill="#004f8d"/><path d="M178 480c8.16-.07 16.3.6 24.37 1.98 14.26 2.55 21.86 7 21.86 9.74 0 2.78-7.6 7.08-21.96 9.65-8.05 1.35-16.1 2.03-24.26 1.98-29.9 0-46.4-7.73-46.4-11.67C131.6 487.7 148 480 178 480z" fill="#0c7cba"/><path d="M201.68 510.8c-1.3.27-2.5.36-3.8.64-.65 0-1.3.18-2.05.27l-3.52.38c-.82 0-1.66.18-2.4.18-1.57.1-3.06.2-4.63.28h-.84c-1.85 0-3.7.1-5.65.18h-1.2c-18.36 0-36.9-3.22-45.9-9.28v80.27c.46 1.85 4.9 4.24 11.03 6.36 8.26 2.67 21.06 4.78 37.93 4.78 30.87.1 43.76-7.45 43.76-11.5V502.9c-4.83 3.3-12.62 6.17-22.72 7.9z" fill="#0c7cba"/><use xlink:href="#e" transform="matrix(1,0,0,1,120,600) translate(3.075000000000003 14.4)"/><use xlink:href="#f" transform="matrix(1,0,0,1,120,600) translate(76.025 14.4)"/><path d="M340 490h160v120H340z" stroke="#000" stroke-width="2" fill="#fff"/><use xlink:href="#b" transform="matrix(1,0,0,1,345,495) translate(30.549999999999997 58.6)"/><path d="M708.23 491v5.92c0 2.7-7.6 7.15-21.96 9.7-8.05 1.38-16.1 2.05-24.26 2.04-29.9 0-46.4-7.74-46.4-11.7V491c0 3.96 16.3 11.7 46.4 11.7 8.62.04 15.84-.54 24.37-2 14.26-2.64 21.86-7 21.86-9.7z" fill="#4f4f4f"/><path d="M720 537.85v5.2c-.8 32.18-27.5 57.55-59.5 56.7-30.98-.88-55.7-25.63-56.5-56.7v-5.2h116z" fill-opacity="0"/><path d="M707.84 492.1v6c-1.57 2.6-9 6.3-21.6 8.5-7.97 1.4-16.13 2.06-24.3 2.06-29.93 0-46.34-7.74-46.34-11.66v-6c0 3.93 16.32 11.67 46.35 11.67 8.63.1 15.95-.55 24.4-1.97 12.7-2.18 20-5.88 21.68-8.6m.1 87.73c.08-.22.18-.44.18-.77v9.92l-.1.44c-.08.1-.17.32-.26.54v.1l-.28.34-.37.54-.38.44-.65.43-.56.45-.64.55-.74.32-.93.55-.75.43-1.3.55-.74.32c-.73.33-1.47.55-2.3.88l-.84.2-1.85.56-1.2.34-1.76.43-1.4.33-1.94.44-1.57.2-2.14.45-1.77.2-2.4.23-1.77.2-2.87.23-1.87.22-3.24.1h-6.97c-16.87 0-29.57-2.06-38-4.8-6.12-2.17-10.57-4.56-11.04-6.3v-9.5c.46 1.75 4.35 3.93 9.82 6l-.1-.54c13.36 4.14 25.22 5.88 39.22 5.88h6.96l3.33-.1 1.76-.1 2.78-.34 1.76-.1 2.5-.34 1.58-.2 2.3-.34 10.58-2.62c.84-.32 1.67-.54 2.4-.87l2.05-.86.47-.33 1.3-.64.46-.33.92-.54.37-.34.75-.65.27-.2.55-.67v-.43l.37-.87z" fill="#4f4f4f"/><path d="M662 480c8.16-.07 16.3.6 24.37 1.98 14.26 2.55 21.86 7 21.86 9.74 0 2.78-7.6 7.08-21.96 9.65-8.05 1.35-16.1 2.03-24.26 1.98-29.9 0-46.4-7.73-46.4-11.67C615.6 487.7 632 480 662 480z" fill="#7d7c7c"/><path d="M685.68 510.8c-1.3.27-2.5.36-3.8.64-.65 0-1.3.18-2.05.27l-3.52.38c-.82 0-1.66.18-2.4.18-1.57.1-3.06.2-4.63.28h-.84c-1.85 0-3.7.1-5.65.18h-1.2c-18.36 0-36.9-3.22-45.9-9.28v80.27c.46 1.85 4.9 4.24 11.03 6.36 8.26 2.67 21.06 4.78 37.93 4.78 30.87.1 43.76-7.45 43.76-11.5V502.9c-4.83 3.3-12.62 6.17-22.72 7.9z" fill="#7d7c7c"/><use xlink:href="#e" transform="matrix(1,0,0,1,604,600) translate(3.075000000000003 14.4)"/><use xlink:href="#g" transform="matrix(1,0,0,1,604,600) translate(76.025 14.4)"/><use xlink:href="#d" transform="matrix(1,0,0,1,604,600) translate(3.549999999999997 36)"/><path d="M235.36 550h85.4" stroke="#000" stroke-width="2" fill="none"/><path d="M235.36 551h-.15l.16-1zM335.76 550l-14.26 4.64v-9.28z"/><path d="M339 550l-18.5 6v-12zm-16.5 3.26l10.03-3.26-10.03-3.26z"/><path d="M501 550h85.38" stroke="#000" stroke-width="2" fill="none"/><path d="M501 551h-1v-2h1zM601.38 550l-14.27 4.64v-9.28z"/><path d="M604.62 550l-18.5 6v-12zm-16.5 3.26l10.02-3.26-10.03-3.26z"/><path d="M800 330h160v120H800z" stroke="#000" stroke-width="2" fill="#fff"/><use xlink:href="#h" transform="matrix(1,0,0,1,805,335) translate(40.15 58.6)"/><path d="M1020 330h160v120h-160z" stroke="#000" stroke-width="2" fill="#fff"/><use xlink:href="#i" transform="matrix(1,0,0,1,1025,335) translate(5.049999999999997 58.6)"/><use xlink:href="#j" transform="matrix(1,0,0,1,1025,335) translate(57 58.6)"/><use xlink:href="#k" transform="matrix(1,0,0,1,1025,335) translate(96 58.6)"/><path d="M1240 330h160v120h-160z" stroke="#000" stroke-width="2" fill="#fff"/><use xlink:href="#l" transform="matrix(1,0,0,1,1245,335) translate(12.575000000000003 47.8)"/><use xlink:href="#m" transform="matrix(1,0,0,1,1245,335) translate(34.425 47.8)"/><use xlink:href="#n" transform="matrix(1,0,0,1,1245,335) translate(107.425 47.8)"/><use xlink:href="#o" transform="matrix(1,0,0,1,1245,335) translate(47.5 69.4)"/><path d="M719.36 390h61.4" stroke="#000" stroke-width="2" fill="none"/><path d="M719.36 391h-.15l.16-1zM795.76 390l-14.26 4.64v-9.28z"/><path d="M799 390l-18.5 6v-12zm-16.5 3.26l10.03-3.26-10.03-3.26z"/><path d="M961 390h39.76" stroke="#000" stroke-width="2" fill="none"/><path d="M961 391h-1v-2h1zM1015.76 390l-14.26 4.64v-9.28z"/><path d="M1019 390l-18.5 6v-12zm-16.5 3.26l10.03-3.26-10.03-3.26z"/><path d="M1181 390h39.76" stroke="#000" stroke-width="2" fill="none"/><path d="M1181 391h-1v-2h1zM1235.76 390l-14.26 4.64v-9.28z"/><path d="M1239 390l-18.5 6v-12zm-16.5 3.26l10.03-3.26-10.03-3.26z"/><path d="M1564.23 331v5.92c0 2.7-7.6 7.15-21.96 9.7-8.05 1.38-16.1 2.05-24.26 2.04-29.9 0-46.4-7.74-46.4-11.7V331c0 3.96 16.3 11.7 46.4 11.7 8.62.04 15.84-.54 24.37-2 14.26-2.64 21.86-7 21.86-9.7z" fill="#4f4f4f"/><path d="M1576 377.85v5.2c-.8 32.18-27.5 57.55-59.5 56.7-30.98-.88-55.7-25.63-56.5-56.7v-5.2h116z" fill-opacity="0"/><path d="M1563.84 332.1v6c-1.57 2.6-9 6.3-21.6 8.5-7.97 1.4-16.13 2.06-24.3 2.06-29.93 0-46.34-7.74-46.34-11.66v-6c0 3.93 16.32 11.67 46.35 11.67 8.63.1 15.95-.55 24.4-1.97 12.7-2.18 20-5.88 21.68-8.6m.1 87.73c.08-.22.18-.44.18-.77v9.92l-.1.44c-.08.1-.17.32-.26.54v.1l-.28.34-.37.54-.38.44-.65.43-.56.45-.64.55-.74.32-.93.55-.75.43-1.3.55-.74.32c-.73.33-1.47.55-2.3.88l-.84.2-1.85.56-1.2.34-1.76.43-1.4.33-1.94.44-1.57.2-2.14.45-1.77.2-2.4.23-1.77.2-2.87.23-1.87.22-3.24.1h-6.97c-16.87 0-29.57-2.06-38-4.8-6.12-2.17-10.57-4.56-11.04-6.3v-9.5c.46 1.75 4.35 3.93 9.82 6l-.1-.54c13.36 4.14 25.22 5.88 39.22 5.88h6.96l3.33-.1 1.76-.1 2.78-.34 1.76-.1 2.5-.34 1.58-.2 2.3-.34 10.58-2.62c.84-.32 1.67-.54 2.4-.87l2.05-.86.47-.33 1.3-.64.46-.33.92-.54.37-.34.75-.65.27-.2.55-.67v-.43l.37-.87z" fill="#4f4f4f"/><path d="M1518 320c8.16-.07 16.3.6 24.37 1.98 14.26 2.55 21.86 7 21.86 9.74 0 2.78-7.6 7.08-21.96 9.65-8.05 1.35-16.1 2.03-24.26 1.98-29.9 0-46.4-7.73-46.4-11.67 0-3.97 16.4-11.68 46.4-11.68z" fill="#7d7c7c"/><path d="M1541.68 350.8c-1.3.27-2.5.36-3.8.64-.65 0-1.3.18-2.05.27l-3.52.38c-.82 0-1.66.18-2.4.18-1.57.1-3.06.2-4.63.28h-.84c-1.85 0-3.7.1-5.65.18h-1.2c-18.36 0-36.9-3.22-45.9-9.28v80.27c.46 1.85 4.9 4.24 11.03 6.36 8.26 2.67 21.06 4.78 37.93 4.78 30.87.1 43.76-7.45 43.76-11.5V342.9c-4.83 3.3-12.62 6.17-22.72 7.9z" fill="#7d7c7c"/><use xlink:href="#p" transform="matrix(1,0,0,1,1460,440) translate(23.525 14.4)"/><use xlink:href="#q" transform="matrix(1,0,0,1,1460,440) translate(3.075000000000003 36)"/><use xlink:href="#f" transform="matrix(1,0,0,1,1460,440) translate(76.025 36)"/><path d="M1401 390h41.38" stroke="#000" stroke-width="2" fill="none"/><path d="M1401 391h-1v-2h1zM1457.38 390l-14.27 4.64v-9.28z"/><path d="M1460.62 390l-18.5 6v-12zm-16.5 3.26l10.02-3.26-10.03-3.26z"/><path d="M719.36 550H1320v-80.76" stroke="#000" stroke-width="2" fill="none"/><path d="M719.36 551h-.15l.16-1zM1324.64 468.5h-9.28l4.64-14.26z"/><path d="M1326 469.5h-12l6-18.5zm-9.26-2h6.52l-3.26-10.03z"/><path d="M662 320v-40h658v30.76" stroke="#000" stroke-width="2" fill="none"/><path d="M663 320.08l-1-.08h1zm-2-.05V320h1zM1320 325.76l-4.64-14.26h9.28z"/><path d="M1320 329l-6-18.5h12zm-3.26-16.5l3.26 10.03 3.26-10.03z"/><path d="M1660 330h160v120h-160z" stroke="#000" stroke-width="2" fill="#fff"/><use xlink:href="#r" transform="matrix(1,0,0,1,1665,335) translate(8.125 58.6)"/><use xlink:href="#s" transform="matrix(1,0,0,1,1665,335) translate(63.075 58.6)"/><use xlink:href="#t" transform="matrix(1,0,0,1,1665,335) translate(90.975 58.6)"/><path d="M1575.36 390h65.4" stroke="#000" stroke-width="2" fill="none"/><path d="M1575.36 391h-.15l.16-1zM1655.76 390l-14.26 4.64v-9.28z"/><path d="M1659 390l-18.5 6v-12zm-16.5 3.26l10.03-3.26-10.03-3.26z"/><path d="M2304.23 321v5.92c0 2.7-7.6 7.15-21.96 9.7-8.05 1.38-16.1 2.05-24.26 2.04-29.9 0-46.4-7.74-46.4-11.7V321c0 3.96 16.3 11.7 46.4 11.7 8.62.04 15.84-.54 24.37-2 14.26-2.64 21.86-7 21.86-9.7z" fill="#55145a"/><path d="M2316 367.85v5.2c-.8 32.18-27.5 57.55-59.5 56.7-30.98-.88-55.7-25.63-56.5-56.7v-5.2h116z" fill-opacity="0"/><path d="M2303.84 322.1v6c-1.57 2.6-9 6.3-21.6 8.5-7.97 1.4-16.13 2.06-24.3 2.06-29.93 0-46.34-7.74-46.34-11.66v-6c0 3.93 16.32 11.67 46.35 11.67 8.63.1 15.95-.55 24.4-1.97 12.7-2.18 20-5.88 21.68-8.6m.1 87.73c.08-.22.18-.44.18-.77v9.92l-.1.44c-.08.1-.17.32-.26.54v.1l-.28.34-.37.54-.38.44-.65.43-.56.45-.64.55-.74.32-.93.55-.75.43-1.3.55-.74.32c-.73.33-1.47.55-2.3.88l-.84.2-1.85.56-1.2.34-1.76.43-1.4.33-1.94.44-1.57.2-2.14.45-1.77.2-2.4.23-1.77.2-2.87.23-1.87.22-3.24.1h-6.97c-16.87 0-29.57-2.06-38-4.8-6.12-2.17-10.57-4.56-11.04-6.3v-9.5c.46 1.75 4.35 3.93 9.82 6l-.1-.54c13.36 4.14 25.22 5.88 39.22 5.88h6.96l3.33-.1 1.76-.1 2.78-.34 1.76-.1 2.5-.34 1.58-.2 2.3-.34 10.58-2.62c.84-.32 1.67-.54 2.4-.87l2.05-.86.47-.33 1.3-.64.46-.33.92-.54.37-.34.75-.65.27-.2.55-.67v-.43l.37-.87z" fill="#55145a"/><path d="M2258 310c8.16-.07 16.3.6 24.37 1.98 14.26 2.55 21.86 7 21.86 9.74 0 2.78-7.6 7.08-21.96 9.65-8.05 1.35-16.1 2.03-24.26 1.98-29.9 0-46.4-7.73-46.4-11.67 0-3.97 16.4-11.68 46.4-11.68z" fill="#834187"/><path d="M2281.68 340.8c-1.3.27-2.5.36-3.8.64-.65 0-1.3.18-2.05.27l-3.52.38c-.82 0-1.66.18-2.4.18-1.57.1-3.06.2-4.63.28h-.84c-1.85 0-3.7.1-5.65.18h-1.2c-18.36 0-36.9-3.22-45.9-9.28v80.27c.46 1.85 4.9 4.24 11.03 6.36 8.26 2.67 21.06 4.78 37.93 4.78 30.87.1 43.76-7.45 43.76-11.5V332.9c-4.83 3.3-12.62 6.17-22.72 7.9z" fill="#834187"/><use xlink:href="#u" transform="matrix(1,0,0,1,2200,430) translate(25.5 14.4)"/><use xlink:href="#v" transform="matrix(1,0,0,1,2200,430) translate(18.049999999999997 36)"/><path d="M1821 390h99.76" stroke="#000" stroke-width="2" fill="none"/><path d="M1821 391h-1v-2h1zM1935.76 390l-14.26 4.64v-9.28z"/><path d="M1939 390l-18.5 6v-12zm-16.5 3.26l10.03-3.26-10.03-3.26z"/><path d="M178 320V170h1842v130.76" stroke="#000" stroke-width="2" fill="none"/><path d="M179 320.08l-1-.08h1zm-2-.05V320h1zM2020 315.76l-4.64-14.26h9.28z"/><path d="M2020 319l-6-18.5h12zm-3.26-16.5l3.26 10.03 3.26-10.03z"/><path d="M1940 320h160v120h-160z" stroke="#000" stroke-width="2" fill="#fff"/><use xlink:href="#w" transform="matrix(1,0,0,1,1945,325) translate(41.05 58.6)"/><path d="M2101 380h81.38" stroke="#000" stroke-width="2" fill="none"/><path d="M2101 381h-1v-2h1zM2197.38 380l-14.27 4.64v-9.28z"/><path d="M2200.62 380l-18.5 6v-12zm-16.5 3.26l10.02-3.26-10.03-3.26z"/><path d="M1940 520h160v120h-160z" stroke="#000" stroke-width="2" fill="#fff"/><use xlink:href="#w" transform="matrix(1,0,0,1,1945,525) translate(41.05 58.6)"/><path d="M178 599.82V680h1562V469.24" stroke="#000" stroke-width="2" fill="none"/><path d="M178 599.82h-1v-.06zM1744.64 468.5h-9.28l4.64-14.26z"/><path d="M1746 469.5h-12l6-18.5zm-9.26-2h6.52l-3.26-10.03z"/><path d="M178 599.82V730h1842v-70.76" stroke="#000" stroke-width="2" fill="none"/><path d="M178 599.82h-1v-.06zM2024.64 658.5h-9.28l4.64-14.26z"/><path d="M2026 659.5h-12l6-18.5zm-9.26-2h6.52l-3.26-10.03z"/><path d="M2304.23 521v5.92c0 2.7-7.6 7.15-21.96 9.7-8.05 1.38-16.1 2.05-24.26 2.04-29.9 0-46.4-7.74-46.4-11.7V521c0 3.96 16.3 11.7 46.4 11.7 8.62.04 15.84-.54 24.37-2 14.26-2.64 21.86-7 21.86-9.7z" fill="#55145a"/><path d="M2316 567.85v5.2c-.8 32.18-27.5 57.55-59.5 56.7-30.98-.88-55.7-25.63-56.5-56.7v-5.2h116z" fill-opacity="0"/><path d="M2303.84 522.1v6c-1.57 2.6-9 6.3-21.6 8.5-7.97 1.4-16.13 2.06-24.3 2.06-29.93 0-46.34-7.74-46.34-11.66v-6c0 3.93 16.32 11.67 46.35 11.67 8.63.1 15.95-.55 24.4-1.97 12.7-2.18 20-5.88 21.68-8.6m.1 87.73c.08-.22.18-.44.18-.77v9.92l-.1.44c-.08.1-.17.32-.26.54v.1l-.28.34-.37.54-.38.44-.65.43-.56.45-.64.55-.74.32-.93.55-.75.43-1.3.55-.74.32c-.73.33-1.47.55-2.3.88l-.84.2-1.85.56-1.2.34-1.76.43-1.4.33-1.94.44-1.57.2-2.14.45-1.77.2-2.4.23-1.77.2-2.87.23-1.87.22-3.24.1h-6.97c-16.87 0-29.57-2.06-38-4.8-6.12-2.17-10.57-4.56-11.04-6.3v-9.5c.46 1.75 4.35 3.93 9.82 6l-.1-.54c13.36 4.14 25.22 5.88 39.22 5.88h6.96l3.33-.1 1.76-.1 2.78-.34 1.76-.1 2.5-.34 1.58-.2 2.3-.34 10.58-2.62c.84-.32 1.67-.54 2.4-.87l2.05-.86.47-.33 1.3-.64.46-.33.92-.54.37-.34.75-.65.27-.2.55-.67v-.43l.37-.87z" fill="#55145a"/><path d="M2258 510c8.16-.07 16.3.6 24.37 1.98 14.26 2.55 21.86 7 21.86 9.74 0 2.78-7.6 7.08-21.96 9.65-8.05 1.35-16.1 2.03-24.26 1.98-29.9 0-46.4-7.73-46.4-11.67 0-3.97 16.4-11.68 46.4-11.68z" fill="#834187"/><path d="M2281.68 540.8c-1.3.27-2.5.36-3.8.64-.65 0-1.3.18-2.05.27l-3.52.38c-.82 0-1.66.18-2.4.18-1.57.1-3.06.2-4.63.28h-.84c-1.85 0-3.7.1-5.65.18h-1.2c-18.36 0-36.9-3.22-45.9-9.28v80.27c.46 1.85 4.9 4.24 11.03 6.36 8.26 2.67 21.06 4.78 37.93 4.78 30.87.1 43.76-7.45 43.76-11.5V532.9c-4.83 3.3-12.62 6.17-22.72 7.9z" fill="#834187"/><use xlink:href="#x" transform="matrix(1,0,0,1,2200,630) translate(13.524999999999999 14.4)"/><path d="M2101 580h81.38" stroke="#000" stroke-width="2" fill="none"/><path d="M2101 581h-1v-2h1zM2197.38 580l-14.27 4.64v-9.28z"/><path d="M2200.62 580l-18.5 6v-12zm-16.5 3.26l10.02-3.26-10.03-3.26z"/><path d="M520 780h1310v160H520z" stroke="#000" stroke-width="2" fill="#e5e5e5"/><path d="M1390 800h180v60h-180z" stroke="#fff" stroke-width="2" fill="#19967d"/><use xlink:href="#y" transform="matrix(1,0,0,1,1395,805) translate(41.625 28.6)"/><path d="M790 800h180v60H790z" stroke="#fff" stroke-width="2" fill="#fcc438"/><use xlink:href="#z" transform="matrix(1,0,0,1,795,805) translate(69.5 28.6)"/><path d="M990 800h180v60H990z" stroke="#fff" stroke-width="2" fill="#0c7cba"/><g><use xlink:href="#A" transform="matrix(1,0,0,1,995,805) translate(48.099999999999994 28.6)"/></g><path d="M1190 800h180v60h-180z" stroke="#fff" stroke-width="2" fill="#834187"/><g><use xlink:href="#B" transform="matrix(1,0,0,1,1195,805) translate(35.099999999999994 28.6)"/></g><path d="M1590 800h180v60h-180z" stroke="#fff" stroke-width="2" fill="#c92d39"/><g><use xlink:href="#C" transform="matrix(1,0,0,1,1595,805) translate(57.574999999999996 28.6)"/></g><path d="M1060 880h240v60h-240z" stroke="#000" stroke-opacity="0" stroke-width="2" fill="#fff" fill-opacity="0"/><g><use xlink:href="#D" transform="matrix(1,0,0,1,1065,885) translate(34.724999999999994 28.6)"/><use xlink:href="#E" transform="matrix(1,0,0,1,1065,885) translate(89.57499999999999 28.6)"/></g><path d="M590 800h180v60H590z" stroke="#fff" stroke-width="2" fill="#666"/><g><use xlink:href="#F" transform="matrix(1,0,0,1,595,805) translate(41.075 28.6)"/></g><path d="M1518 439.82V580h217c0-2.76 2.24-5 5-5s5 2.24 5 5h175.76" stroke="#000" stroke-width="2" fill="none"/><path d="M1518 439.82h-1v-.06zM1935.76 580l-14.26 4.64v-9.28z"/><path d="M1939 580l-18.5 6v-12zm-16.5 3.26l10.03-3.26-10.03-3.26z"/><defs><path d="M24-231v-30h32v30H24zM24 0v-190h32V0H24" id="G"/><path d="M117-194c89-4 53 116 60 194h-32v-121c0-31-8-49-39-48C34-167 62-67 57 0H25l-1-190h30c1 10-1 24 2 32 11-22 29-35 61-36" id="H"/><path d="M59-47c-2 24 18 29 38 22v24C64 9 27 4 27-40v-127H5v-23h24l9-43h21v43h35v23H59v120" id="I"/><path d="M100-194c63 0 86 42 84 106H49c0 40 14 67 53 68 26 1 43-12 49-29l28 8c-11 28-37 45-77 45C44 4 14-33 15-96c1-61 26-98 85-98zm52 81c6-60-76-77-97-28-3 7-6 17-6 28h103" id="J"/><path d="M177-190C167-65 218 103 67 71c-23-6-38-20-44-43l32-5c15 47 100 32 89-28v-30C133-14 115 1 83 1 29 1 15-40 15-95c0-56 16-97 71-98 29-1 48 16 59 35 1-10 0-23 2-32h30zM94-22c36 0 50-32 50-73 0-42-14-75-50-75-39 0-46 34-46 75s6 73 46 73" id="K"/><path d="M114-163C36-179 61-72 57 0H25l-1-190h30c1 12-1 29 2 39 6-27 23-49 58-41v29" id="L"/><path d="M141-36C126-15 110 5 73 4 37 3 15-17 15-53c-1-64 63-63 125-63 3-35-9-54-41-54-24 1-41 7-42 31l-33-3c5-37 33-52 76-52 45 0 72 20 72 64v82c-1 20 7 32 28 27v20c-31 9-61-2-59-35zM48-53c0 20 12 33 32 33 41-3 63-29 60-74-43 2-92-5-92 41" id="M"/><path d="M85-194c31 0 48 13 60 33l-1-100h32l1 261h-30c-2-10 0-23-3-31C134-8 116 4 85 4 32 4 16-35 15-94c0-66 23-100 70-100zm9 24c-40 0-46 34-46 75 0 40 6 74 45 74 42 0 51-32 51-76 0-42-9-74-50-73" id="N"/><g id="a"><use transform="matrix(0.05,0,0,0.05,0,0)" xlink:href="#G"/><use transform="matrix(0.05,0,0,0.05,3.95,0)" xlink:href="#H"/><use transform="matrix(0.05,0,0,0.05,13.949999999999998,0)" xlink:href="#I"/><use transform="matrix(0.05,0,0,0.05,18.95,0)" xlink:href="#J"/><use transform="matrix(0.05,0,0,0.05,28.950000000000003,0)" xlink:href="#K"/><use transform="matrix(0.05,0,0,0.05,38.95,0)" xlink:href="#L"/><use transform="matrix(0.05,0,0,0.05,44.900000000000006,0)" xlink:href="#M"/><use transform="matrix(0.05,0,0,0.05,54.900000000000006,0)" xlink:href="#I"/><use transform="matrix(0.05,0,0,0.05,59.900000000000006,0)" xlink:href="#J"/><use transform="matrix(0.05,0,0,0.05,69.9,0)" xlink:href="#N"/></g><path d="M115-194c55 1 70 41 70 98S169 2 115 4C84 4 66-9 55-30l1 105H24l-1-265h31l2 30c10-21 28-34 59-34zm-8 174c40 0 45-34 45-75s-6-73-45-74c-42 0-51 32-51 76 0 43 10 73 51 73" id="O"/><path d="M100-194c62-1 85 37 85 99 1 63-27 99-86 99S16-35 15-95c0-66 28-99 85-99zM99-20c44 1 53-31 53-75 0-43-8-75-51-75s-53 32-53 75 10 74 51 75" id="P"/><path d="M96-169c-40 0-48 33-48 73s9 75 48 75c24 0 41-14 43-38l32 2c-6 37-31 61-74 61-59 0-76-41-82-99-10-93 101-131 147-64 4 7 5 14 7 22l-32 3c-4-21-16-35-41-35" id="Q"/><path d="M135-143c-3-34-86-38-87 0 15 53 115 12 119 90S17 21 10-45l28-5c4 36 97 45 98 0-10-56-113-15-118-90-4-57 82-63 122-42 12 7 21 19 24 35" id="R"/><g id="b"><use transform="matrix(0.05,0,0,0.05,0,0)" xlink:href="#O"/><use transform="matrix(0.05,0,0,0.05,10,0)" xlink:href="#L"/><use transform="matrix(0.05,0,0,0.05,15.949999999999998,0)" xlink:href="#J"/><use transform="matrix(0.05,0,0,0.05,25.950000000000003,0)" xlink:href="#O"/><use transform="matrix(0.05,0,0,0.05,35.95,0)" xlink:href="#L"/><use transform="matrix(0.05,0,0,0.05,41.900000000000006,0)" xlink:href="#P"/><use transform="matrix(0.05,0,0,0.05,51.900000000000006,0)" xlink:href="#Q"/><use transform="matrix(0.05,0,0,0.05,60.900000000000006,0)" xlink:href="#J"/><use transform="matrix(0.05,0,0,0.05,70.9,0)" xlink:href="#R"/><use transform="matrix(0.05,0,0,0.05,79.9,0)" xlink:href="#R"/></g><g id="c"><use transform="matrix(0.05,0,0,0.05,0,0)" xlink:href="#G"/><use transform="matrix(0.05,0,0,0.05,3.95,0)" xlink:href="#H"/><use transform="matrix(0.05,0,0,0.05,13.949999999999998,0)" xlink:href="#I"/><use transform="matrix(0.05,0,0,0.05,18.95,0)" xlink:href="#J"/><use transform="matrix(0.05,0,0,0.05,28.950000000000003,0)" xlink:href="#K"/><use transform="matrix(0.05,0,0,0.05,38.95,0)" xlink:href="#L"/><use transform="matrix(0.05,0,0,0.05,44.900000000000006,0)" xlink:href="#M"/><use transform="matrix(0.05,0,0,0.05,54.900000000000006,0)" xlink:href="#I"/><use transform="matrix(0.05,0,0,0.05,59.900000000000006,0)" xlink:href="#J"/><use transform="matrix(0.05,0,0,0.05,69.9,0)" xlink:href="#N"/></g><g id="d"><use transform="matrix(0.05,0,0,0.05,0,0)" xlink:href="#O"/><use transform="matrix(0.05,0,0,0.05,10,0)" xlink:href="#L"/><use transform="matrix(0.05,0,0,0.05,15.949999999999998,0)" xlink:href="#J"/><use transform="matrix(0.05,0,0,0.05,25.950000000000003,0)" xlink:href="#O"/><use transform="matrix(0.05,0,0,0.05,35.95,0)" xlink:href="#L"/><use transform="matrix(0.05,0,0,0.05,41.900000000000006,0)" xlink:href="#P"/><use transform="matrix(0.05,0,0,0.05,51.900000000000006,0)" xlink:href="#Q"/><use transform="matrix(0.05,0,0,0.05,60.900000000000006,0)" xlink:href="#J"/><use transform="matrix(0.05,0,0,0.05,70.9,0)" xlink:href="#R"/><use transform="matrix(0.05,0,0,0.05,79.9,0)" xlink:href="#R"/><use transform="matrix(0.05,0,0,0.05,88.9,0)" xlink:href="#J"/><use transform="matrix(0.05,0,0,0.05,98.9,0)" xlink:href="#N"/></g><g id="e"><use transform="matrix(0.05,0,0,0.05,0,0)" xlink:href="#G"/><use transform="matrix(0.05,0,0,0.05,3.95,0)" xlink:href="#H"/><use transform="matrix(0.05,0,0,0.05,13.949999999999998,0)" xlink:href="#K"/><use transform="matrix(0.05,0,0,0.05,23.95,0)" xlink:href="#J"/><use transform="matrix(0.05,0,0,0.05,33.95,0)" xlink:href="#R"/><use transform="matrix(0.05,0,0,0.05,42.95,0)" xlink:href="#I"/><use transform="matrix(0.05,0,0,0.05,47.95,0)" xlink:href="#J"/><use transform="matrix(0.05,0,0,0.05,57.95,0)" xlink:href="#N"/></g><path d="M24 0v-261h32V0H24" id="S"/><path d="M179-190L93 31C79 59 56 82 12 73V49c39 6 53-20 64-50L1-190h34L92-34l54-156h33" id="T"/><g id="f"><use transform="matrix(0.05,0,0,0.05,0,0)" xlink:href="#N"/><use transform="matrix(0.05,0,0,0.05,10,0)" xlink:href="#M"/><use transform="matrix(0.05,0,0,0.05,20,0)" xlink:href="#G"/><use transform="matrix(0.05,0,0,0.05,23.95,0)" xlink:href="#S"/><use transform="matrix(0.05,0,0,0.05,27.899999999999995,0)" xlink:href="#T"/></g><g id="g"><use transform="matrix(0.05,0,0,0.05,0,0)" xlink:href="#N"/><use transform="matrix(0.05,0,0,0.05,10,0)" xlink:href="#M"/><use transform="matrix(0.05,0,0,0.05,20,0)" xlink:href="#G"/><use transform="matrix(0.05,0,0,0.05,23.95,0)" xlink:href="#S"/><use transform="matrix(0.05,0,0,0.05,27.899999999999995,0)" xlink:href="#T"/></g><path d="M210-169c-67 3-38 105-44 169h-31v-121c0-29-5-50-35-48C34-165 62-65 56 0H25l-1-190h30c1 10-1 24 2 32 10-44 99-50 107 0 11-21 27-35 58-36 85-2 47 119 55 194h-31v-121c0-29-5-49-35-48" id="U"/><g id="h"><use transform="matrix(0.05,0,0,0.05,0,0)" xlink:href="#R"/><use transform="matrix(0.05,0,0,0.05,9,0)" xlink:href="#G"/><use transform="matrix(0.05,0,0,0.05,12.949999999999998,0)" xlink:href="#U"/><use transform="matrix(0.05,0,0,0.05,27.899999999999995,0)" xlink:href="#G"/><use transform="matrix(0.05,0,0,0.05,31.849999999999994,0)" xlink:href="#S"/><use transform="matrix(0.05,0,0,0.05,35.8,0)" xlink:href="#M"/><use transform="matrix(0.05,0,0,0.05,45.8,0)" xlink:href="#L"/><use transform="matrix(0.05,0,0,0.05,51.75,0)" xlink:href="#G"/><use transform="matrix(0.05,0,0,0.05,55.7,0)" xlink:href="#I"/><use transform="matrix(0.05,0,0,0.05,60.7,0)" xlink:href="#T"/></g><g id="i"><use transform="matrix(0.05,0,0,0.05,0,0)" xlink:href="#R"/><use transform="matrix(0.05,0,0,0.05,9,0)" xlink:href="#J"/><use transform="matrix(0.05,0,0,0.05,19,0)" xlink:href="#S"/><use transform="matrix(0.05,0,0,0.05,22.95,0)" xlink:href="#J"/><use transform="matrix(0.05,0,0,0.05,32.95,0)" xlink:href="#Q"/><use transform="matrix(0.05,0,0,0.05,41.95,0)" xlink:href="#I"/></g><path d="M115-194c53 0 69 39 70 98 0 66-23 100-70 100C84 3 66-7 56-30L54 0H23l1-261h32v101c10-23 28-34 59-34zm-8 174c40 0 45-34 45-75 0-40-5-75-45-74-42 0-51 32-51 76 0 43 10 73 51 73" id="V"/><g id="j"><use transform="matrix(0.05,0,0,0.05,0,0)" xlink:href="#V"/><use transform="matrix(0.05,0,0,0.05,10,0)" xlink:href="#J"/><use transform="matrix(0.05,0,0,0.05,20,0)" xlink:href="#R"/><use transform="matrix(0.05,0,0,0.05,29,0)" xlink:href="#I"/></g><path d="M106-169C34-169 62-67 57 0H25v-261h32l-1 103c12-21 28-36 61-36 89 0 53 116 60 194h-32v-121c2-32-8-49-39-48" id="W"/><g id="k"><use transform="matrix(0.05,0,0,0.05,0,0)" xlink:href="#U"/><use transform="matrix(0.05,0,0,0.05,14.950000000000001,0)" xlink:href="#M"/><use transform="matrix(0.05,0,0,0.05,24.950000000000003,0)" xlink:href="#I"/><use transform="matrix(0.05,0,0,0.05,29.950000000000003,0)" xlink:href="#Q"/><use transform="matrix(0.05,0,0,0.05,38.95,0)" xlink:href="#W"/></g><path d="M101-234c-31-9-42 10-38 44h38v23H63V0H32v-167H5v-23h27c-7-52 17-82 69-68v24" id="X"/><g id="l"><use transform="matrix(0.05,0,0,0.05,0,0)" xlink:href="#X"/><use transform="matrix(0.05,0,0,0.05,5,0)" xlink:href="#G"/><use transform="matrix(0.05,0,0,0.05,8.95,0)" xlink:href="#S"/><use transform="matrix(0.05,0,0,0.05,12.899999999999999,0)" xlink:href="#S"/></g><path d="M33 0v-248h34V0H33" id="Y"/><g id="m"><use transform="matrix(0.05,0,0,0.05,0,0)" xlink:href="#Q"/><use transform="matrix(0.05,0,0,0.05,9,0)" xlink:href="#P"/><use transform="matrix(0.05,0,0,0.05,19,0)" xlink:href="#H"/><use transform="matrix(0.05,0,0,0.05,29,0)" xlink:href="#Q"/><use transform="matrix(0.05,0,0,0.05,38,0)" xlink:href="#M"/><use transform="matrix(0.05,0,0,0.05,48,0)" xlink:href="#I"/><use transform="matrix(0.05,0,0,0.05,53,0)" xlink:href="#Y"/><use transform="matrix(0.05,0,0,0.05,58,0)" xlink:href="#N"/></g><g id="n"><use transform="matrix(0.05,0,0,0.05,0,0)" xlink:href="#M"/><use transform="matrix(0.05,0,0,0.05,10,0)" xlink:href="#H"/><use transform="matrix(0.05,0,0,0.05,20,0)" xlink:href="#N"/></g><path d="M84 4C-5 8 30-112 23-190h32v120c0 31 7 50 39 49 72-2 45-101 50-169h31l1 190h-30c-1-10 1-25-2-33-11 22-28 36-60 37" id="Z"/><g id="o"><use transform="matrix(0.05,0,0,0.05,0,0)" xlink:href="#P"/><use transform="matrix(0.05,0,0,0.05,10,0)" xlink:href="#W"/><use transform="matrix(0.05,0,0,0.05,20,0)" xlink:href="#Z"/><use transform="matrix(0.05,0,0,0.05,30,0)" xlink:href="#V"/><use transform="matrix(0.05,0,0,0.05,40,0)" xlink:href="#Y"/><use transform="matrix(0.05,0,0,0.05,45,0)" xlink:href="#N"/></g><g id="p"><use transform="matrix(0.05,0,0,0.05,0,0)" xlink:href="#U"/><use transform="matrix(0.05,0,0,0.05,14.950000000000001,0)" xlink:href="#M"/><use transform="matrix(0.05,0,0,0.05,24.950000000000003,0)" xlink:href="#I"/><use transform="matrix(0.05,0,0,0.05,29.950000000000003,0)" xlink:href="#Q"/><use transform="matrix(0.05,0,0,0.05,38.95,0)" xlink:href="#W"/><use transform="matrix(0.05,0,0,0.05,48.95,0)" xlink:href="#J"/><use transform="matrix(0.05,0,0,0.05,58.95,0)" xlink:href="#N"/></g><g id="q"><use transform="matrix(0.05,0,0,0.05,0,0)" xlink:href="#G"/><use transform="matrix(0.05,0,0,0.05,3.95,0)" xlink:href="#H"/><use transform="matrix(0.05,0,0,0.05,13.949999999999998,0)" xlink:href="#K"/><use transform="matrix(0.05,0,0,0.05,23.95,0)" xlink:href="#J"/><use transform="matrix(0.05,0,0,0.05,33.95,0)" xlink:href="#R"/><use transform="matrix(0.05,0,0,0.05,42.95,0)" xlink:href="#I"/><use transform="matrix(0.05,0,0,0.05,47.95,0)" xlink:href="#J"/><use transform="matrix(0.05,0,0,0.05,57.95,0)" xlink:href="#N"/></g><g id="r"><use transform="matrix(0.05,0,0,0.05,0,0)" xlink:href="#Q"/><use transform="matrix(0.05,0,0,0.05,9,0)" xlink:href="#L"/><use transform="matrix(0.05,0,0,0.05,14.949999999999998,0)" xlink:href="#J"/><use transform="matrix(0.05,0,0,0.05,24.95,0)" xlink:href="#M"/><use transform="matrix(0.05,0,0,0.05,34.95,0)" xlink:href="#I"/><use transform="matrix(0.05,0,0,0.05,39.95,0)" xlink:href="#J"/></g><g id="s"><use transform="matrix(0.05,0,0,0.05,0,0)" xlink:href="#X"/><use transform="matrix(0.05,0,0,0.05,5,0)" xlink:href="#Z"/><use transform="matrix(0.05,0,0,0.05,15,0)" xlink:href="#S"/><use transform="matrix(0.05,0,0,0.05,18.95,0)" xlink:href="#S"/></g><g id="t"><use transform="matrix(0.05,0,0,0.05,0,0)" xlink:href="#L"/><use transform="matrix(0.05,0,0,0.05,5.95,0)" xlink:href="#J"/><use transform="matrix(0.05,0,0,0.05,15.949999999999998,0)" xlink:href="#Q"/><use transform="matrix(0.05,0,0,0.05,24.95,0)" xlink:href="#P"/><use transform="matrix(0.05,0,0,0.05,34.95,0)" xlink:href="#L"/><use transform="matrix(0.05,0,0,0.05,40.900000000000006,0)" xlink:href="#N"/></g><g id="u"><use transform="matrix(0.05,0,0,0.05,0,0)" xlink:href="#Z"/><use transform="matrix(0.05,0,0,0.05,10,0)" xlink:href="#O"/><use transform="matrix(0.05,0,0,0.05,20,0)" xlink:href="#N"/><use transform="matrix(0.05,0,0,0.05,30,0)" xlink:href="#M"/><use transform="matrix(0.05,0,0,0.05,40,0)" xlink:href="#I"/><use transform="matrix(0.05,0,0,0.05,45,0)" xlink:href="#J"/><use transform="matrix(0.05,0,0,0.05,55,0)" xlink:href="#N"/></g><g id="v"><use transform="matrix(0.05,0,0,0.05,0,0)" xlink:href="#G"/><use transform="matrix(0.05,0,0,0.05,3.95,0)" xlink:href="#H"/><use transform="matrix(0.05,0,0,0.05,13.949999999999998,0)" xlink:href="#I"/><use transform="matrix(0.05,0,0,0.05,18.95,0)" xlink:href="#J"/><use transform="matrix(0.05,0,0,0.05,28.950000000000003,0)" xlink:href="#K"/><use transform="matrix(0.05,0,0,0.05,38.95,0)" xlink:href="#L"/><use transform="matrix(0.05,0,0,0.05,44.900000000000006,0)" xlink:href="#M"/><use transform="matrix(0.05,0,0,0.05,54.900000000000006,0)" xlink:href="#I"/><use transform="matrix(0.05,0,0,0.05,59.900000000000006,0)" xlink:href="#J"/><use transform="matrix(0.05,0,0,0.05,69.9,0)" xlink:href="#N"/></g><g id="w"><use transform="matrix(0.05,0,0,0.05,0,0)" xlink:href="#Q"/><use transform="matrix(0.05,0,0,0.05,9,0)" xlink:href="#P"/><use transform="matrix(0.05,0,0,0.05,19,0)" xlink:href="#U"/><use transform="matrix(0.05,0,0,0.05,33.95,0)" xlink:href="#V"/><use transform="matrix(0.05,0,0,0.05,43.95,0)" xlink:href="#G"/><use transform="matrix(0.05,0,0,0.05,47.900000000000006,0)" xlink:href="#H"/><use transform="matrix(0.05,0,0,0.05,57.900000000000006,0)" xlink:href="#J"/></g><g id="x"><use transform="matrix(0.05,0,0,0.05,0,0)" xlink:href="#Z"/><use transform="matrix(0.05,0,0,0.05,10,0)" xlink:href="#H"/><use transform="matrix(0.05,0,0,0.05,20,0)" xlink:href="#U"/><use transform="matrix(0.05,0,0,0.05,34.95,0)" xlink:href="#M"/><use transform="matrix(0.05,0,0,0.05,44.95,0)" xlink:href="#I"/><use transform="matrix(0.05,0,0,0.05,49.95,0)" xlink:href="#Q"/><use transform="matrix(0.05,0,0,0.05,58.95,0)" xlink:href="#W"/><use transform="matrix(0.05,0,0,0.05,68.95,0)" xlink:href="#J"/><use transform="matrix(0.05,0,0,0.05,78.95,0)" xlink:href="#N"/></g><path fill="#fff" d="M25-224v-37h50v37H25zM25 0v-190h50V0H25" id="aa"/><path fill="#fff" d="M135-194c87-1 58 113 63 194h-50c-7-57 23-157-34-157-59 0-34 97-39 157H25l-1-190h47c2 12-1 28 3 38 12-26 28-41 61-42" id="ab"/><path fill="#fff" d="M115-3C79 11 28 4 28-45v-112H4v-33h27l15-45h31v45h36v33H77v99c-1 23 16 31 38 25v30" id="ac"/><path fill="#fff" d="M185-48c-13 30-37 53-82 52C43 2 14-33 14-96s30-98 90-98c62 0 83 45 84 108H66c0 31 8 55 39 56 18 0 30-7 34-22zm-45-69c5-46-57-63-70-21-2 6-4 13-4 21h74" id="ad"/><path fill="#fff" d="M195-6C206 82 75 100 31 46c-4-6-6-13-8-21l49-6c3 16 16 24 34 25 40 0 42-37 40-79-11 22-30 35-61 35-53 0-70-43-70-97 0-56 18-96 73-97 30 0 46 14 59 34l2-30h47zm-90-29c32 0 41-27 41-63 0-35-9-62-40-62-32 0-39 29-40 63 0 36 9 62 39 62" id="ae"/><path fill="#fff" d="M135-150c-39-12-60 13-60 57V0H25l-1-190h47c2 13-1 29 3 40 6-28 27-53 61-41v41" id="af"/><path fill="#fff" d="M133-34C117-15 103 5 69 4 32 3 11-16 11-54c-1-60 55-63 116-61 1-26-3-47-28-47-18 1-26 9-28 27l-52-2c7-38 36-58 82-57s74 22 75 68l1 82c-1 14 12 18 25 15v27c-30 8-71 5-69-32zm-48 3c29 0 43-24 42-57-32 0-66-3-65 30 0 17 8 27 23 27" id="ag"/><path fill="#fff" d="M88-194c31-1 46 15 58 34l-1-101h50l1 261h-48c-2-10 0-23-3-31C134-8 116 4 84 4 32 4 16-41 15-95c0-56 19-97 73-99zm17 164c33 0 40-30 41-66 1-37-9-64-41-64s-38 30-39 65c0 43 13 65 39 65" id="ah"/><g id="y"><use transform="matrix(0.05,0,0,0.05,0,0)" xlink:href="#aa"/><use transform="matrix(0.05,0,0,0.05,5,0)" xlink:href="#ab"/><use transform="matrix(0.05,0,0,0.05,15.950000000000001,0)" xlink:href="#ac"/><use transform="matrix(0.05,0,0,0.05,21.900000000000002,0)" xlink:href="#ad"/><use transform="matrix(0.05,0,0,0.05,31.900000000000002,0)" xlink:href="#ae"/><use transform="matrix(0.05,0,0,0.05,42.85,0)" xlink:href="#af"/><use transform="matrix(0.05,0,0,0.05,49.85,0)" xlink:href="#ag"/><use transform="matrix(0.05,0,0,0.05,59.85,0)" xlink:href="#ac"/><use transform="matrix(0.05,0,0,0.05,65.8,0)" xlink:href="#ad"/><use transform="matrix(0.05,0,0,0.05,75.8,0)" xlink:href="#ah"/></g><path d="M135-150c-39-12-60 13-60 57V0H25l-1-190h47c2 13-1 29 3 40 6-28 27-53 61-41v41" id="ai"/><path d="M133-34C117-15 103 5 69 4 32 3 11-16 11-54c-1-60 55-63 116-61 1-26-3-47-28-47-18 1-26 9-28 27l-52-2c7-38 36-58 82-57s74 22 75 68l1 82c-1 14 12 18 25 15v27c-30 8-71 5-69-32zm-48 3c29 0 43-24 42-57-32 0-66-3-65 30 0 17 8 27 23 27" id="aj"/><path d="M231 0h-52l-39-155L100 0H48L-1-190h46L77-45c9-52 24-97 36-145h53l37 145 32-145h46" id="ak"/><g id="z"><use transform="matrix(0.05,0,0,0.05,0,0)" xlink:href="#ai"/><use transform="matrix(0.05,0,0,0.05,7,0)" xlink:href="#aj"/><use transform="matrix(0.05,0,0,0.05,17,0)" xlink:href="#ak"/></g><path fill="#fff" d="M137-138c1-29-70-34-71-4 15 46 118 7 119 86 1 83-164 76-172 9l43-7c4 19 20 25 44 25 33 8 57-30 24-41C81-84 22-81 20-136c-2-80 154-74 161-7" id="al"/><g id="A"><use transform="matrix(0.05,0,0,0.05,0,0)" xlink:href="#aa"/><use transform="matrix(0.05,0,0,0.05,5,0)" xlink:href="#ab"/><use transform="matrix(0.05,0,0,0.05,15.950000000000001,0)" xlink:href="#ae"/><use transform="matrix(0.05,0,0,0.05,26.900000000000002,0)" xlink:href="#ad"/><use transform="matrix(0.05,0,0,0.05,36.900000000000006,0)" xlink:href="#al"/><use transform="matrix(0.05,0,0,0.05,46.900000000000006,0)" xlink:href="#ac"/><use transform="matrix(0.05,0,0,0.05,52.85,0)" xlink:href="#ad"/><use transform="matrix(0.05,0,0,0.05,62.85,0)" xlink:href="#ah"/></g><path fill="#fff" d="M220-157c-53 9-28 100-34 157h-49v-107c1-27-5-49-29-50C55-147 81-57 75 0H25l-1-190h47c2 12-1 28 3 38 10-53 101-56 108 0 13-22 24-43 59-42 82 1 51 116 57 194h-49v-107c-1-25-5-48-29-50" id="am"/><g id="B"><use transform="matrix(0.05,0,0,0.05,0,0)" xlink:href="#aa"/><use transform="matrix(0.05,0,0,0.05,5,0)" xlink:href="#ab"/><use transform="matrix(0.05,0,0,0.05,15.950000000000001,0)" xlink:href="#ac"/><use transform="matrix(0.05,0,0,0.05,21.900000000000002,0)" xlink:href="#ad"/><use transform="matrix(0.05,0,0,0.05,31.900000000000002,0)" xlink:href="#am"/><use transform="matrix(0.05,0,0,0.05,47.900000000000006,0)" xlink:href="#ad"/><use transform="matrix(0.05,0,0,0.05,57.900000000000006,0)" xlink:href="#ah"/><use transform="matrix(0.05,0,0,0.05,68.85000000000001,0)" xlink:href="#aa"/><use transform="matrix(0.05,0,0,0.05,73.85000000000001,0)" xlink:href="#ag"/><use transform="matrix(0.05,0,0,0.05,83.85000000000001,0)" xlink:href="#ac"/><use transform="matrix(0.05,0,0,0.05,89.80000000000001,0)" xlink:href="#ad"/></g><path fill="#fff" d="M144 0l-44-69L55 0H2l70-98-66-92h53l41 62 40-62h54l-67 91 71 99h-54" id="an"/><path fill="#fff" d="M135-194c53 0 70 44 70 98 0 56-19 98-73 100-31 1-45-17-59-34 3 33 2 69 2 105H25l-1-265h48c2 10 0 23 3 31 11-24 29-35 60-35zM114-30c33 0 39-31 40-66 0-38-9-64-40-64-56 0-55 130 0 130" id="ao"/><path fill="#fff" d="M110-194c64 0 96 36 96 99 0 64-35 99-97 99-61 0-95-36-95-99 0-62 34-99 96-99zm-1 164c35 0 45-28 45-65 0-40-10-65-43-65-34 0-45 26-45 65 0 36 10 65 43 65" id="ap"/><g id="C"><use transform="matrix(0.05,0,0,0.05,0,0)" xlink:href="#ad"/><use transform="matrix(0.05,0,0,0.05,10,0)" xlink:href="#an"/><use transform="matrix(0.05,0,0,0.05,20,0)" xlink:href="#ao"/><use transform="matrix(0.05,0,0,0.05,30.950000000000003,0)" xlink:href="#ap"/><use transform="matrix(0.05,0,0,0.05,41.900000000000006,0)" xlink:href="#af"/><use transform="matrix(0.05,0,0,0.05,48.900000000000006,0)" xlink:href="#ac"/></g><path d="M121-226c-27-7-43 5-38 36h38v33H83V0H34v-157H6v-33h28c-9-59 32-81 87-68v32" id="aq"/><path d="M110-194c64 0 96 36 96 99 0 64-35 99-97 99-61 0-95-36-95-99 0-62 34-99 96-99zm-1 164c35 0 45-28 45-65 0-40-10-65-43-65-34 0-45 26-45 65 0 36 10 65 43 65" id="ar"/><path d="M25 0v-261h50V0H25" id="as"/><path d="M88-194c31-1 46 15 58 34l-1-101h50l1 261h-48c-2-10 0-23-3-31C134-8 116 4 84 4 32 4 16-41 15-95c0-56 19-97 73-99zm17 164c33 0 40-30 41-66 1-37-9-64-41-64s-38 30-39 65c0 43 13 65 39 65" id="at"/><path d="M185-48c-13 30-37 53-82 52C43 2 14-33 14-96s30-98 90-98c62 0 83 45 84 108H66c0 31 8 55 39 56 18 0 30-7 34-22zm-45-69c5-46-57-63-70-21-2 6-4 13-4 21h74" id="au"/><g id="D"><use transform="matrix(0.05,0,0,0.05,0,0)" xlink:href="#aq"/><use transform="matrix(0.05,0,0,0.05,5.95,0)" xlink:href="#ar"/><use transform="matrix(0.05,0,0,0.05,16.900000000000002,0)" xlink:href="#as"/><use transform="matrix(0.05,0,0,0.05,21.900000000000002,0)" xlink:href="#at"/><use transform="matrix(0.05,0,0,0.05,32.85,0)" xlink:href="#au"/><use transform="matrix(0.05,0,0,0.05,42.85,0)" xlink:href="#ai"/></g><path d="M190-63c-7 42-38 67-86 67-59 0-84-38-90-98-12-110 154-137 174-36l-49 2c-2-19-15-32-35-32-30 0-35 28-38 64-6 74 65 87 74 30" id="av"/><path d="M135-194c87-1 58 113 63 194h-50c-7-57 23-157-34-157-59 0-34 97-39 157H25l-1-190h47c2 12-1 28 3 38 12-26 28-41 61-42" id="aw"/><path d="M128 0H69L1-190h53L99-40l48-150h52" id="ax"/><path d="M115-3C79 11 28 4 28-45v-112H4v-33h27l15-45h31v45h36v33H77v99c-1 23 16 31 38 25v30" id="ay"/><path d="M25-224v-37h50v37H25zM25 0v-190h50V0H25" id="az"/><path d="M137-138c1-29-70-34-71-4 15 46 118 7 119 86 1 83-164 76-172 9l43-7c4 19 20 25 44 25 33 8 57-30 24-41C81-84 22-81 20-136c-2-80 154-74 161-7" id="aA"/><g id="E"><use transform="matrix(0.05,0,0,0.05,0,0)" xlink:href="#av"/><use transform="matrix(0.05,0,0,0.05,10,0)" xlink:href="#ar"/><use transform="matrix(0.05,0,0,0.05,20.950000000000003,0)" xlink:href="#aw"/><use transform="matrix(0.05,0,0,0.05,31.900000000000006,0)" xlink:href="#ax"/><use transform="matrix(0.05,0,0,0.05,41.900000000000006,0)" xlink:href="#au"/><use transform="matrix(0.05,0,0,0.05,51.900000000000006,0)" xlink:href="#aw"/><use transform="matrix(0.05,0,0,0.05,62.85,0)" xlink:href="#ay"/><use transform="matrix(0.05,0,0,0.05,68.80000000000001,0)" xlink:href="#az"/><use transform="matrix(0.05,0,0,0.05,73.80000000000001,0)" xlink:href="#ar"/><use transform="matrix(0.05,0,0,0.05,84.75000000000001,0)" xlink:href="#aw"/><use transform="matrix(0.05,0,0,0.05,95.70000000000002,0)" xlink:href="#aA"/></g><path fill="#fff" d="M123 10C108 53 80 86 19 72V37c35 8 53-11 59-39L3-190h52l48 148c12-52 28-100 44-148h51" id="aB"/><g id="F"><use transform="matrix(0.05,0,0,0.05,0,0)" xlink:href="#ac"/><use transform="matrix(0.05,0,0,0.05,5.95,0)" xlink:href="#ad"/><use transform="matrix(0.05,0,0,0.05,15.949999999999998,0)" xlink:href="#am"/><use transform="matrix(0.05,0,0,0.05,31.950000000000003,0)" xlink:href="#ao"/><use transform="matrix(0.05,0,0,0.05,42.9,0)" xlink:href="#ap"/><use transform="matrix(0.05,0,0,0.05,53.85,0)" xlink:href="#af"/><use transform="matrix(0.05,0,0,0.05,60.85,0)" xlink:href="#ag"/><use transform="matrix(0.05,0,0,0.05,70.85,0)" xlink:href="#af"/><use transform="matrix(0.05,0,0,0.05,77.85,0)" xlink:href="#aB"/></g></defs></g></svg>