<svg xmlns="http://www.w3.org/2000/svg" xmlns:xlink="http://www.w3.org/1999/xlink" xmlns:lucid="lucid" width="3456" height="2656"><g transform="translate(1696 1296)" lucid:page-tab-id="0_0"><path d="M-315.77 341v5.92c0 2.7-7.6 7.15-21.96 9.7-8.05 1.38-16.1 2.05-24.26 2.04-29.9 0-46.4-7.74-46.4-11.7V341c0 3.96 16.3 11.7 46.4 11.7 8.62.04 15.84-.54 24.37-2 14.26-2.64 21.86-7 21.86-9.7z" fill="#006950"/><path d="M-304 387.85v5.2c-.8 32.18-27.5 57.55-59.5 56.7-30.98-.88-55.7-25.63-56.5-56.7v-5.2h116z" fill-opacity="0"/><path d="M-316.16 342.1v6c-1.57 2.6-9 6.3-21.6 8.5-7.97 1.4-16.13 2.06-24.3 2.06-29.93 0-46.34-7.74-46.34-11.66v-6c0 3.93 16.32 11.67 46.35 11.67 8.63.1 15.95-.55 24.4-1.97 12.7-2.18 20-5.88 21.68-8.6m.1 87.73c.08-.22.18-.44.18-.77v9.92l-.1.44c-.08.1-.17.32-.26.54v.1l-.28.34-.37.54-.38.44-.65.43-.56.45-.64.55-.74.32-.93.55-.75.43-1.3.55-.74.32c-.73.33-1.47.55-2.3.88l-.84.2-1.85.56-1.2.34-1.76.43-1.4.33-1.94.44-1.57.2-2.14.45-1.77.2-2.4.23-1.77.2-2.87.23-1.87.22-3.24.1h-6.97c-16.87 0-29.57-2.06-38-4.8-6.12-2.17-10.57-4.56-11.04-6.3v-9.5c.46 1.75 4.35 3.93 9.82 6l-.1-.54c13.36 4.14 25.22 5.88 39.22 5.88h6.96l3.33-.1 1.76-.1 2.78-.34 1.76-.1 2.5-.34 1.58-.2 2.3-.34 10.58-2.62c.84-.32 1.67-.54 2.4-.87l2.05-.86.47-.33 1.3-.64.46-.33.92-.54.37-.34.75-.65.27-.2.55-.67v-.43l.37-.87z" fill="#006950"/><path d="M-362 330c8.16-.07 16.3.6 24.37 1.98 14.26 2.55 21.86 7 21.86 9.74 0 2.78-7.6 7.08-21.96 9.65-8.05 1.35-16.1 2.03-24.26 1.98-29.9 0-46.4-7.73-46.4-11.67 0-3.97 16.4-11.68 46.4-11.68z" fill="#19967d"/><path d="M-338.32 360.8c-1.3.27-2.5.36-3.8.64-.65 0-1.3.18-2.05.27l-3.52.38c-.82 0-1.66.18-2.4.18-1.57.1-3.06.2-4.63.28h-.84c-1.85 0-3.7.1-5.65.18h-1.2c-18.36 0-36.9-3.22-45.9-9.28v80.27c.46 1.85 4.9 4.24 11.03 6.36 8.26 2.67 21.06 4.78 37.93 4.78 30.87.1 43.76-7.45 43.76-11.5V352.9c-4.83 3.3-12.62 6.17-22.72 7.9z" fill="#19967d"/><use xlink:href="#a" transform="matrix(1,0,0,1,-420,450) translate(18.049999999999997 14.4)"/><use xlink:href="#b" transform="matrix(1,0,0,1,-420,450) translate(40.5 36)"/><path d="M-95.77 471v5.92c0 2.7-7.6 7.15-21.96 9.7-8.05 1.38-16.1 2.05-24.26 2.04-29.9 0-46.4-7.74-46.4-11.7V471c0 3.96 16.3 11.7 46.4 11.7 8.62.04 15.84-.54 24.37-2 14.26-2.64 21.86-7 21.86-9.7z" fill="#ce970b"/><path d="M-84 517.85v5.2c-.8 32.18-27.5 57.55-59.5 56.7-30.98-.88-55.7-25.63-56.5-56.7v-5.2h116z" fill-opacity="0"/><path d="M-96.16 472.1v6c-1.57 2.6-9 6.3-21.6 8.5-7.97 1.4-16.13 2.06-24.3 2.06-29.93 0-46.34-7.74-46.34-11.66v-6c0 3.93 16.32 11.67 46.35 11.67 8.63.1 15.95-.55 24.4-1.97 12.7-2.18 20-5.88 21.68-8.6m.1 87.73c.08-.22.18-.44.18-.77v9.92l-.1.44c-.08.1-.17.32-.26.54v.1l-.28.34-.37.54-.38.44-.65.43-.56.45-.64.55-.74.32-.93.55-.75.43-1.3.55-.74.32c-.73.33-1.47.55-2.3.88l-.84.2-1.85.56-1.2.34-1.76.43-1.4.33-1.94.44-1.57.2-2.14.45-1.77.2-2.4.23-1.77.2-2.87.23-1.87.22-3.24.1h-6.97c-16.87 0-29.57-2.06-38-4.8-6.12-2.17-10.57-4.56-11.04-6.3v-9.5c.46 1.75 4.35 3.93 9.82 6l-.1-.54c13.36 4.14 25.22 5.88 39.22 5.88h6.96l3.33-.1 1.76-.1 2.78-.34 1.76-.1 2.5-.34 1.58-.2 2.3-.34 10.58-2.62c.84-.32 1.67-.54 2.4-.87l2.05-.86.47-.33 1.3-.64.46-.33.92-.54.37-.34.75-.65.27-.2.55-.67v-.43l.37-.87z" fill="#ce970b"/><path d="M-142 460c8.16-.07 16.3.6 24.37 1.98 14.26 2.55 21.86 7 21.86 9.74 0 2.78-7.6 7.08-21.96 9.65-8.05 1.35-16.1 2.03-24.26 1.98-29.9 0-46.4-7.73-46.4-11.67 0-3.97 16.4-11.68 46.4-11.68z" fill="#fcc438"/><path d="M-118.32 490.8c-1.3.27-2.5.36-3.8.64-.65 0-1.3.18-2.05.27l-3.52.38c-.82 0-1.66.18-2.4.18-1.57.1-3.06.2-4.63.28h-.84c-1.85 0-3.7.1-5.65.18h-1.2c-18.36 0-36.9-3.22-45.9-9.28v80.27c.46 1.85 4.9 4.24 11.03 6.36 8.26 2.67 21.06 4.78 37.93 4.78 30.87.1 43.76-7.45 43.76-11.5V482.9c-4.83 3.3-12.62 6.17-22.72 7.9z" fill="#fcc438"/><use xlink:href="#c" transform="matrix(1,0,0,1,-200,580) translate(2.6000000000000014 14.4)"/><use xlink:href="#d" transform="matrix(1,0,0,1,-200,580) translate(36.5 14.4)"/><use xlink:href="#b" transform="matrix(1,0,0,1,-200,580) translate(78.4 14.4)"/><path d="M-12 470h160v120H-12z" stroke="#000" stroke-width="2" fill="#fff"/><use xlink:href="#e" transform="matrix(1,0,0,1,-7,475) translate(18.599999999999994 58.6)"/><use xlink:href="#f" transform="matrix(1,0,0,1,-7,475) translate(82.5 58.6)"/><path d="M-84.64 530h53.4" stroke="#000" stroke-width="2" fill="none"/><path d="M-84.64 531h-.15l.16-1zM-16.24 530l-14.26 4.64v-9.28z"/><path d="M-13 530l-18.5 6v-12zm-16.5 3.26l10.03-3.26-10.03-3.26z"/><path d="M324.23 471v5.92c0 2.7-7.6 7.15-21.96 9.7-8.05 1.38-16.1 2.05-24.26 2.04-29.9 0-46.4-7.74-46.4-11.7V471c0 3.96 16.3 11.7 46.4 11.7 8.62.04 15.84-.54 24.37-2 14.26-2.64 21.86-7 21.86-9.7z" fill="#004f8d"/><path d="M336 517.85v5.2c-.8 32.18-27.5 57.55-59.5 56.7-30.98-.88-55.7-25.63-56.5-56.7v-5.2h116z" fill-opacity="0"/><path d="M323.84 472.1v6c-1.57 2.6-9 6.3-21.6 8.5-7.97 1.4-16.13 2.06-24.3 2.06-29.93 0-46.34-7.74-46.34-11.66v-6c0 3.93 16.32 11.67 46.35 11.67 8.63.1 15.95-.55 24.4-1.97 12.7-2.18 20-5.88 21.68-8.6m.1 87.73c.08-.22.18-.44.18-.77v9.92l-.1.44c-.08.1-.17.32-.26.54v.1l-.28.34-.37.54-.38.44-.65.43-.56.45-.64.55-.74.32-.93.55-.75.43-1.3.55-.74.32c-.73.33-1.47.55-2.3.88l-.84.2-1.85.56-1.2.34-1.76.43-1.4.33-1.94.44-1.57.2-2.14.45-1.77.2-2.4.23-1.77.2-2.87.23-1.87.22-3.24.1h-6.97c-16.87 0-29.57-2.06-38-4.8-6.12-2.17-10.57-4.56-11.04-6.3v-9.5c.46 1.75 4.35 3.93 9.82 6l-.1-.54c13.36 4.14 25.22 5.88 39.22 5.88h6.96l3.33-.1 1.76-.1 2.78-.34 1.76-.1 2.5-.34 1.58-.2 2.3-.34 10.58-2.62c.84-.32 1.67-.54 2.4-.87l2.05-.86.47-.33 1.3-.64.46-.33.92-.54.37-.34.75-.65.27-.2.55-.67v-.43l.37-.87z" fill="#004f8d"/><path d="M278 460c8.16-.07 16.3.6 24.37 1.98 14.26 2.55 21.86 7 21.86 9.74 0 2.78-7.6 7.08-21.96 9.65-8.05 1.35-16.1 2.03-24.26 1.98-29.9 0-46.4-7.73-46.4-11.67C231.6 467.7 248 460 278 460z" fill="#0c7cba"/><path d="M301.68 490.8c-1.3.27-2.5.36-3.8.64-.65 0-1.3.18-2.05.27l-3.52.38c-.82 0-1.66.18-2.4.18-1.57.1-3.06.2-4.63.28h-.84c-1.85 0-3.7.1-5.65.18h-1.2c-18.36 0-36.9-3.22-45.9-9.28v80.27c.46 1.85 4.9 4.24 11.03 6.36 8.26 2.67 21.06 4.78 37.93 4.78 30.87.1 43.76-7.45 43.76-11.5V482.9c-4.83 3.3-12.62 6.17-22.72 7.9z" fill="#0c7cba"/><use xlink:href="#g" transform="matrix(1,0,0,1,220,580) translate(3.075000000000003 14.4)"/><use xlink:href="#h" transform="matrix(1,0,0,1,220,580) translate(76.025 14.4)"/><use xlink:href="#b" transform="matrix(1,0,0,1,220,580) translate(40.5 36)"/><path d="M149 530h53.38" stroke="#000" stroke-width="2" fill="none"/><path d="M149 531h-1v-2h1zM217.38 530l-14.27 4.64v-9.28z"/><path d="M220.62 530l-18.5 6v-12zm-16.5 3.26l10.02-3.26-10.03-3.26z"/><path d="M972.86 341v5.92c0 2.7-7.6 7.15-21.95 9.7-8.05 1.38-16.1 2.05-24.26 2.04-29.92 0-46.4-7.74-46.4-11.7V341c0 3.96 16.3 11.7 46.4 11.7 8.62.04 15.84-.54 24.36-2 14.27-2.64 21.86-7 21.86-9.7z" fill="#006950"/><path d="M984.64 387.85v5.2c-.82 32.18-27.5 57.55-59.5 56.7-30.98-.88-55.7-25.63-56.5-56.7v-5.2h116z" fill-opacity="0"/><path d="M972.48 342.1v6c-1.58 2.6-9 6.3-21.6 8.5-7.97 1.4-16.13 2.06-24.3 2.06-29.93 0-46.34-7.74-46.34-11.66v-6c0 3.93 16.3 11.67 46.35 11.67 8.6.1 15.94-.55 24.37-1.97 12.7-2.18 20.03-5.88 21.7-8.6m.1 87.73c.08-.22.17-.44.17-.77v9.92l-.1.44c-.08.1-.17.32-.27.54v.1l-.28.34-.38.54-.37.44-.65.43-.55.45-.65.55-.74.32-.93.55-.74.43-1.3.55-.75.32c-.74.33-1.48.55-2.32.88l-.83.2-1.86.56-1.2.34-1.76.43-1.4.33-1.94.44-1.58.2-2.13.45-1.76.2-2.4.23-1.77.2-2.88.23-1.85.22-3.25.1h-6.95c-16.87 0-29.57-2.06-38-4.8-6.13-2.17-10.58-4.56-11.04-6.3v-9.5c.46 1.75 4.36 3.93 9.83 6l-.1-.54c13.35 4.14 25.22 5.88 39.22 5.88h6.95l3.34-.1 1.76-.1 2.78-.34 1.77-.1 2.5-.34 1.58-.2 2.32-.34 10.57-2.62c.83-.32 1.67-.54 2.4-.87l2.05-.86.45-.33 1.3-.64.46-.33.94-.54.37-.34.75-.65.28-.2.56-.67v-.43l.36-.87z" fill="#006950"/><path d="M926.64 330c8.15-.07 16.3.6 24.36 1.98 14.27 2.55 21.86 7 21.86 9.74 0 2.78-7.6 7.08-21.95 9.65-8.05 1.35-16.1 2.03-24.26 1.98-29.92 0-46.4-7.73-46.4-11.67 0-3.97 16.4-11.68 46.4-11.68z" fill="#19967d"/><path d="M950.3 360.8c-1.3.27-2.5.36-3.8.64-.64 0-1.3.18-2.03.27l-3.52.38c-.84 0-1.67.18-2.4.18-1.6.1-3.07.2-4.65.28h-.83c-1.86 0-3.7.1-5.66.18h-1.2c-18.35 0-36.9-3.22-45.88-9.28v80.27c.46 1.85 4.9 4.24 11.03 6.36 8.25 2.67 21.04 4.78 37.92 4.78 30.87.1 43.75-7.45 43.75-11.5V352.9c-4.82 3.3-12.6 6.17-22.7 7.9z" fill="#19967d"/><use xlink:href="#a" transform="matrix(1,0,0,1,868.6364883282865,450) translate(18.049999999999997 14.4)"/><use xlink:href="#b" transform="matrix(1,0,0,1,868.6364883282865,450) translate(40.5 36)"/><path d="M846.64 570h160v120h-160z" stroke="#000" stroke-width="2" fill="#fff"/><use xlink:href="#i" transform="matrix(1,0,0,1,851.6364883282865,575) translate(1.125 58.6)"/><use xlink:href="#j" transform="matrix(1,0,0,1,851.6364883282865,575) translate(72.97500000000001 58.6)"/><use xlink:href="#k" transform="matrix(1,0,0,1,851.6364883282865,575) translate(98.92500000000001 58.6)"/><path d="M926.64 470v80.76" stroke="#000" stroke-width="2" fill="none"/><path d="M927.64 470h-2v-3h2zM926.64 565.76L922 551.5h9.27z"/><path d="M926.64 569l-6.02-18.5h12.03zm-3.26-16.5l3.26 10.03 3.26-10.03z"/><path d="M972.23 831v5.92c0 2.7-7.6 7.15-21.96 9.7-8.05 1.38-16.1 2.05-24.26 2.04-29.9 0-46.4-7.74-46.4-11.7V831c0 3.96 16.3 11.7 46.4 11.7 8.62.04 15.84-.54 24.37-2 14.26-2.64 21.86-7 21.86-9.7z" fill="#9b000c"/><path d="M984 877.85v5.2c-.8 32.18-27.5 57.55-59.5 56.7-30.98-.88-55.7-25.63-56.5-56.7v-5.2h116z" fill-opacity="0"/><path d="M971.84 832.1v6c-1.57 2.6-9 6.3-21.6 8.5-7.97 1.4-16.13 2.06-24.3 2.06-29.93 0-46.34-7.74-46.34-11.66v-6c0 3.93 16.32 11.67 46.35 11.67 8.63.1 15.95-.55 24.4-1.97 12.7-2.18 20-5.88 21.68-8.6m.1 87.73c.08-.22.18-.44.18-.77v9.92l-.1.44c-.08.1-.17.32-.26.54v.1l-.28.34-.37.54-.38.44-.65.43-.56.45-.64.55-.74.32-.93.55-.75.43-1.3.55-.74.32c-.73.33-1.47.55-2.3.88l-.84.2-1.85.56-1.2.34-1.76.43-1.4.33-1.94.44-1.57.2-2.14.45-1.77.2-2.4.23-1.77.2-2.87.23-1.87.22-3.24.1h-6.97c-16.87 0-29.57-2.06-38-4.8-6.12-2.17-10.57-4.56-11.04-6.3v-9.5c.46 1.75 4.35 3.93 9.82 6l-.1-.54c13.36 4.14 25.22 5.88 39.22 5.88h6.96l3.33-.1 1.76-.1 2.78-.34 1.76-.1 2.5-.34 1.58-.2 2.3-.34 10.58-2.62c.84-.32 1.67-.54 2.4-.87l2.05-.86.47-.33 1.3-.64.46-.33.92-.54.37-.34.75-.65.27-.2.55-.67v-.43l.37-.87z" fill="#9b000c"/><path d="M926 820c8.16-.07 16.3.6 24.37 1.98 14.26 2.55 21.86 7 21.86 9.74 0 2.78-7.6 7.08-21.96 9.65-8.05 1.35-16.1 2.03-24.26 1.98-29.9 0-46.4-7.73-46.4-11.67C879.6 827.7 896 820 926 820z" fill="#c92d39"/><path d="M949.68 850.8c-1.3.27-2.5.36-3.8.64-.65 0-1.3.18-2.05.27l-3.52.38c-.82 0-1.66.18-2.4.18-1.57.1-3.06.2-4.63.28h-.84c-1.85 0-3.7.1-5.65.18h-1.2c-18.36 0-36.9-3.22-45.9-9.28v80.27c.46 1.85 4.9 4.24 11.03 6.36 8.26 2.67 21.06 4.78 37.93 4.78 30.87.1 43.76-7.45 43.76-11.5V842.9c-4.83 3.3-12.62 6.17-22.72 7.9z" fill="#c92d39"/><use xlink:href="#l" transform="matrix(1,0,0,1,868,940) translate(13.024999999999999 14.4)"/><use xlink:href="#b" transform="matrix(1,0,0,1,868,940) translate(67.975 14.4)"/><path d="M926.64 691v64.5H926v46.26" stroke="#000" stroke-width="2" fill="none"/><path d="M927.64 691h-2v-1h2zM926 816.76l-4.64-14.26h9.28z"/><path d="M926 820l-6-18.5h12zm-3.26-16.5l3.26 10.03 3.26-10.03z"/><path d="M640.64 340h160v120h-160z" stroke="#000" stroke-width="2" fill="#fff"/><use xlink:href="#m" transform="matrix(1,0,0,1,645.6364883282865,345) translate(2.549999999999997 47.8)"/><use xlink:href="#n" transform="matrix(1,0,0,1,645.6364883282865,345) translate(62.55 47.8)"/><use xlink:href="#o" transform="matrix(1,0,0,1,645.6364883282865,345) translate(23.549999999999997 69.4)"/><use xlink:href="#p" transform="matrix(1,0,0,1,645.6364883282865,345) translate(58.55 69.4)"/><path d="M801.64 400h49.38" stroke="#000" stroke-width="2" fill="none"/><path d="M801.64 401h-1v-2h1zM866.02 400l-14.27 4.64v-9.28z"/><path d="M869.25 400l-18.5 6v-12zm-16.5 3.26l10.03-3.26-10.03-3.26z"/><path d="M-500 700H810v160H-500z" stroke="#000" stroke-width="2" fill="#e5e5e5"/><path d="M370 720h180v60H370z" stroke="#fff" stroke-width="2" fill="#19967d"/><use xlink:href="#q" transform="matrix(1,0,0,1,375,725) translate(41.625 28.6)"/><path d="M-230 720h180v60h-180z" stroke="#fff" stroke-width="2" fill="#fcc438"/><use xlink:href="#r" transform="matrix(1,0,0,1,-225,725) translate(69.5 28.6)"/><path d="M-30 720h180v60H-30z" stroke="#fff" stroke-width="2" fill="#0c7cba"/><use xlink:href="#s" transform="matrix(1,0,0,1,-25,725) translate(48.099999999999994 28.6)"/><path d="M170 720h180v60H170z" stroke="#fff" stroke-width="2" fill="#834187"/><use xlink:href="#t" transform="matrix(1,0,0,1,175,725) translate(35.099999999999994 28.6)"/><path d="M570 720h180v60H570z" stroke="#fff" stroke-width="2" fill="#c92d39"/><use xlink:href="#u" transform="matrix(1,0,0,1,575,725) translate(57.574999999999996 28.6)"/><path d="M40 800h240v60H40z" stroke="#000" stroke-opacity="0" stroke-width="2" fill="#fff" fill-opacity="0"/><use xlink:href="#v" transform="matrix(1,0,0,1,44.999999999999886,805) translate(34.724999999999994 28.6)"/><use xlink:href="#w" transform="matrix(1,0,0,1,44.999999999999886,805) translate(89.57499999999999 28.6)"/><path d="M-430 720h180v60h-180z" stroke="#fff" stroke-width="2" fill="#666"/><use xlink:href="#x" transform="matrix(1,0,0,1,-425,725) translate(41.075 28.6)"/><path d="M-304.64 400H621.4" stroke="#000" stroke-width="2" fill="none"/><path d="M-304.64 401h-.15l.16-1zM636.4 400l-14.27 4.64v-9.28z"/><path d="M639.64 400l-18.5 6v-12zm-16.5 3.26l10.02-3.26-10.03-3.26z"/><path d="M335.36 530H487.5V400h133.9" stroke="#000" stroke-width="2" fill="none"/><path d="M335.36 531h-.15l.16-1zM636.4 400l-14.27 4.64v-9.28z"/><path d="M639.64 400l-18.5 6v-12zm-16.5 3.26l10.02-3.26-10.03-3.26z"/><path d="M506.23-89v5.92c0 2.7-7.6 7.15-21.96 9.7-8.05 1.38-16.1 2.05-24.26 2.04-29.9 0-46.4-7.74-46.4-11.7V-89c0 3.96 16.3 11.7 46.4 11.7 8.62.04 15.84-.54 24.37-2 14.26-2.64 21.86-7 21.86-9.7z" fill="#006950"/><path d="M518-42.15v5.2c-.8 32.18-27.5 57.55-59.5 56.7-30.98-.88-55.7-25.63-56.5-56.7v-5.2h116z" fill-opacity="0"/><path d="M505.84-87.9v6c-1.57 2.6-9 6.3-21.6 8.5-7.97 1.4-16.13 2.06-24.3 2.06-29.93 0-46.34-7.74-46.34-11.66v-6c0 3.93 16.32 11.67 46.35 11.67 8.63.1 15.95-.55 24.4-1.97 12.7-2.18 20-5.88 21.68-8.6m.1 87.73c.08-.22.18-.44.18-.77v9.92l-.1.44c-.08.1-.17.32-.26.54v.1l-.28.34-.37.54-.38.44-.65.43-.56.45-.64.55-.74.32-.93.55-.75.43-1.3.55-.74.32c-.73.33-1.47.55-2.3.88l-.84.2-1.85.56-1.2.34-1.76.43-1.4.33-1.94.44-1.57.2-2.14.45-1.77.2-2.4.23-1.77.2-2.87.23-1.87.22-3.24.1h-6.97c-16.87 0-29.57-2.06-38-4.8-6.12-2.17-10.57-4.56-11.04-6.3v-9.5c.46 1.75 4.35 3.93 9.82 6l-.1-.54c13.36 4.14 25.22 5.88 39.22 5.88h6.96l3.33-.1 1.76-.1 2.78-.34 1.76-.1 2.5-.34 1.58-.2 2.3-.34 10.58-2.62c.84-.32 1.67-.54 2.4-.87l2.05-.86.47-.33 1.3-.64.46-.33.92-.54.37-.34.75-.65.27-.2.55-.67V.7l.37-.87z" fill="#006950"/><path d="M460-100c8.16-.07 16.3.6 24.37 1.98 14.26 2.55 21.86 7 21.86 9.74 0 2.78-7.6 7.08-21.96 9.65-8.05 1.35-16.1 2.03-24.26 1.98-29.9 0-46.4-7.73-46.4-11.67C413.6-92.3 430-100 460-100z" fill="#19967d"/><path d="M483.68-69.2c-1.3.27-2.5.36-3.8.64-.65 0-1.3.18-2.05.27l-3.52.38c-.82 0-1.66.18-2.4.18-1.57.1-3.06.2-4.63.28h-.84c-1.85 0-3.7.1-5.65.18h-1.2c-18.36 0-36.9-3.22-45.9-9.28V3.7c.46 1.85 4.9 4.24 11.03 6.36 8.26 2.67 21.06 4.78 37.93 4.78 30.87.1 43.76-7.45 43.76-11.5V-77.1c-4.83 3.3-12.62 6.17-22.72 7.9z" fill="#19967d"/><use xlink:href="#a" transform="matrix(1,0,0,1,402,20) translate(18.049999999999997 14.4)"/><use xlink:href="#y" transform="matrix(1,0,0,1,402,20) translate(23.525 36)"/><path d="M506.23 111v5.92c0 2.7-7.6 7.15-21.96 9.7-8.05 1.38-16.1 2.05-24.26 2.04-29.9 0-46.4-7.74-46.4-11.7V111c0 3.96 16.3 11.7 46.4 11.7 8.62.04 15.84-.54 24.37-2 14.26-2.64 21.86-7 21.86-9.7z" fill="#006950"/><path d="M518 157.85v5.2c-.8 32.18-27.5 57.55-59.5 56.7-30.98-.88-55.7-25.63-56.5-56.7v-5.2h116z" fill-opacity="0"/><path d="M505.84 112.1v6c-1.57 2.6-9 6.3-21.6 8.5-7.97 1.4-16.13 2.06-24.3 2.06-29.93 0-46.34-7.74-46.34-11.66v-6c0 3.93 16.32 11.67 46.35 11.67 8.63.1 15.95-.55 24.4-1.97 12.7-2.18 20-5.88 21.68-8.6m.1 87.73c.08-.22.18-.44.18-.77v9.92l-.1.44c-.08.1-.17.32-.26.54v.1l-.28.34-.37.54-.38.44-.65.43-.56.45-.64.55-.74.32-.93.55-.75.43-1.3.55-.74.32c-.73.33-1.47.55-2.3.88l-.84.2-1.85.56-1.2.34-1.76.43-1.4.33-1.94.44-1.57.2-2.14.45-1.77.2-2.4.23-1.77.2-2.87.23-1.87.22-3.24.1h-6.97c-16.87 0-29.57-2.06-38-4.8-6.12-2.17-10.57-4.56-11.04-6.3v-9.5c.46 1.75 4.35 3.93 9.82 6l-.1-.54c13.36 4.14 25.22 5.88 39.22 5.88h6.96l3.33-.1 1.76-.1 2.78-.34 1.76-.1 2.5-.34 1.58-.2 2.3-.34 10.58-2.62c.84-.32 1.67-.54 2.4-.87l2.05-.86.47-.33 1.3-.64.46-.33.92-.54.37-.34.75-.65.27-.2.55-.67v-.43l.37-.87z" fill="#006950"/><path d="M460 100c8.16-.07 16.3.6 24.37 1.98 14.26 2.55 21.86 7 21.86 9.74 0 2.78-7.6 7.08-21.96 9.65-8.05 1.35-16.1 2.03-24.26 1.98-29.9 0-46.4-7.73-46.4-11.67C413.6 107.7 430 100 460 100z" fill="#19967d"/><path d="M483.68 130.8c-1.3.27-2.5.36-3.8.64-.65 0-1.3.18-2.05.27l-3.52.38c-.82 0-1.66.18-2.4.18-1.57.1-3.06.2-4.63.28h-.84c-1.85 0-3.7.1-5.65.18h-1.2c-18.36 0-36.9-3.22-45.9-9.28v80.27c.46 1.85 4.9 4.24 11.03 6.36 8.26 2.67 21.06 4.78 37.93 4.78 30.87.1 43.76-7.45 43.76-11.5V122.9c-4.83 3.3-12.62 6.17-22.72 7.9z" fill="#19967d"/><g><use xlink:href="#z" transform="matrix(1,0,0,1,402,220) translate(18.049999999999997 14.4)"/><use xlink:href="#A" transform="matrix(1,0,0,1,402,220) translate(32.55 36)"/></g><path d="M517.36-30h203.28v350.76" stroke="#000" stroke-width="2" fill="none"/><path d="M517.36-29h-.15l.16-1zM720.64 335.76L716 321.5h9.27z"/><path d="M720.64 339l-6.02-18.5h12.03zm-3.26-16.5l3.26 10.03 3.26-10.03z"/><path d="M517.36 170h203.28v150.76" stroke="#000" stroke-width="2" fill="none"/><path d="M517.36 171h-.15l.16-1zM720.64 335.76L716 321.5h9.27z"/><path d="M720.64 339l-6.02-18.5h12.03zm-3.26-16.5l3.26 10.03 3.26-10.03z"/><defs><path d="M24-231v-30h32v30H24zM24 0v-190h32V0H24" id="B"/><path d="M117-194c89-4 53 116 60 194h-32v-121c0-31-8-49-39-48C34-167 62-67 57 0H25l-1-190h30c1 10-1 24 2 32 11-22 29-35 61-36" id="C"/><path d="M59-47c-2 24 18 29 38 22v24C64 9 27 4 27-40v-127H5v-23h24l9-43h21v43h35v23H59v120" id="D"/><path d="M100-194c63 0 86 42 84 106H49c0 40 14 67 53 68 26 1 43-12 49-29l28 8c-11 28-37 45-77 45C44 4 14-33 15-96c1-61 26-98 85-98zm52 81c6-60-76-77-97-28-3 7-6 17-6 28h103" id="E"/><path d="M177-190C167-65 218 103 67 71c-23-6-38-20-44-43l32-5c15 47 100 32 89-28v-30C133-14 115 1 83 1 29 1 15-40 15-95c0-56 16-97 71-98 29-1 48 16 59 35 1-10 0-23 2-32h30zM94-22c36 0 50-32 50-73 0-42-14-75-50-75-39 0-46 34-46 75s6 73 46 73" id="F"/><path d="M114-163C36-179 61-72 57 0H25l-1-190h30c1 12-1 29 2 39 6-27 23-49 58-41v29" id="G"/><path d="M141-36C126-15 110 5 73 4 37 3 15-17 15-53c-1-64 63-63 125-63 3-35-9-54-41-54-24 1-41 7-42 31l-33-3c5-37 33-52 76-52 45 0 72 20 72 64v82c-1 20 7 32 28 27v20c-31 9-61-2-59-35zM48-53c0 20 12 33 32 33 41-3 63-29 60-74-43 2-92-5-92 41" id="H"/><path d="M85-194c31 0 48 13 60 33l-1-100h32l1 261h-30c-2-10 0-23-3-31C134-8 116 4 85 4 32 4 16-35 15-94c0-66 23-100 70-100zm9 24c-40 0-46 34-46 75 0 40 6 74 45 74 42 0 51-32 51-76 0-42-9-74-50-73" id="I"/><g id="a"><use transform="matrix(0.05,0,0,0.05,0,0)" xlink:href="#B"/><use transform="matrix(0.05,0,0,0.05,3.95,0)" xlink:href="#C"/><use transform="matrix(0.05,0,0,0.05,13.949999999999998,0)" xlink:href="#D"/><use transform="matrix(0.05,0,0,0.05,18.95,0)" xlink:href="#E"/><use transform="matrix(0.05,0,0,0.05,28.950000000000003,0)" xlink:href="#F"/><use transform="matrix(0.05,0,0,0.05,38.95,0)" xlink:href="#G"/><use transform="matrix(0.05,0,0,0.05,44.900000000000006,0)" xlink:href="#H"/><use transform="matrix(0.05,0,0,0.05,54.900000000000006,0)" xlink:href="#D"/><use transform="matrix(0.05,0,0,0.05,59.900000000000006,0)" xlink:href="#E"/><use transform="matrix(0.05,0,0,0.05,69.9,0)" xlink:href="#I"/></g><g id="b"><use transform="matrix(0.05,0,0,0.05,0,0)" xlink:href="#I"/><use transform="matrix(0.05,0,0,0.05,10,0)" xlink:href="#H"/><use transform="matrix(0.05,0,0,0.05,20,0)" xlink:href="#D"/><use transform="matrix(0.05,0,0,0.05,25,0)" xlink:href="#H"/></g><path d="M206 0h-36l-40-164L89 0H53L-1-190h32L70-26l43-164h34l41 164 42-164h31" id="J"/><g id="c"><use transform="matrix(0.05,0,0,0.05,0,0)" xlink:href="#G"/><use transform="matrix(0.05,0,0,0.05,5.95,0)" xlink:href="#H"/><use transform="matrix(0.05,0,0,0.05,15.949999999999998,0)" xlink:href="#J"/></g><path d="M24 0v-261h32V0H24" id="K"/><path d="M179-190L93 31C79 59 56 82 12 73V49c39 6 53-20 64-50L1-190h34L92-34l54-156h33" id="L"/><g id="d"><use transform="matrix(0.05,0,0,0.05,0,0)" xlink:href="#I"/><use transform="matrix(0.05,0,0,0.05,10,0)" xlink:href="#H"/><use transform="matrix(0.05,0,0,0.05,20,0)" xlink:href="#B"/><use transform="matrix(0.05,0,0,0.05,23.95,0)" xlink:href="#K"/><use transform="matrix(0.05,0,0,0.05,27.899999999999995,0)" xlink:href="#L"/></g><path d="M100-194c62-1 85 37 85 99 1 63-27 99-86 99S16-35 15-95c0-66 28-99 85-99zM99-20c44 1 53-31 53-75 0-43-8-75-51-75s-53 32-53 75 10 74 51 75" id="M"/><path d="M210-169c-67 3-38 105-44 169h-31v-121c0-29-5-50-35-48C34-165 62-65 56 0H25l-1-190h30c1 10-1 24 2 32 10-44 99-50 107 0 11-21 27-35 58-36 85-2 47 119 55 194h-31v-121c0-29-5-49-35-48" id="N"/><g id="e"><use transform="matrix(0.05,0,0,0.05,0,0)" xlink:href="#I"/><use transform="matrix(0.05,0,0,0.05,10,0)" xlink:href="#M"/><use transform="matrix(0.05,0,0,0.05,20,0)" xlink:href="#N"/><use transform="matrix(0.05,0,0,0.05,34.95,0)" xlink:href="#H"/><use transform="matrix(0.05,0,0,0.05,44.95,0)" xlink:href="#B"/><use transform="matrix(0.05,0,0,0.05,48.900000000000006,0)" xlink:href="#C"/></g><g id="f"><use transform="matrix(0.05,0,0,0.05,0,0)" xlink:href="#N"/><use transform="matrix(0.05,0,0,0.05,14.950000000000001,0)" xlink:href="#M"/><use transform="matrix(0.05,0,0,0.05,24.950000000000003,0)" xlink:href="#I"/><use transform="matrix(0.05,0,0,0.05,34.95,0)" xlink:href="#E"/><use transform="matrix(0.05,0,0,0.05,44.95,0)" xlink:href="#K"/></g><path d="M135-143c-3-34-86-38-87 0 15 53 115 12 119 90S17 21 10-45l28-5c4 36 97 45 98 0-10-56-113-15-118-90-4-57 82-63 122-42 12 7 21 19 24 35" id="O"/><g id="g"><use transform="matrix(0.05,0,0,0.05,0,0)" xlink:href="#B"/><use transform="matrix(0.05,0,0,0.05,3.95,0)" xlink:href="#C"/><use transform="matrix(0.05,0,0,0.05,13.949999999999998,0)" xlink:href="#F"/><use transform="matrix(0.05,0,0,0.05,23.95,0)" xlink:href="#E"/><use transform="matrix(0.05,0,0,0.05,33.95,0)" xlink:href="#O"/><use transform="matrix(0.05,0,0,0.05,42.95,0)" xlink:href="#D"/><use transform="matrix(0.05,0,0,0.05,47.95,0)" xlink:href="#E"/><use transform="matrix(0.05,0,0,0.05,57.95,0)" xlink:href="#I"/></g><g id="h"><use transform="matrix(0.05,0,0,0.05,0,0)" xlink:href="#I"/><use transform="matrix(0.05,0,0,0.05,10,0)" xlink:href="#H"/><use transform="matrix(0.05,0,0,0.05,20,0)" xlink:href="#B"/><use transform="matrix(0.05,0,0,0.05,23.95,0)" xlink:href="#K"/><use transform="matrix(0.05,0,0,0.05,27.899999999999995,0)" xlink:href="#L"/></g><path d="M101-234c-31-9-42 10-38 44h38v23H63V0H32v-167H5v-23h27c-7-52 17-82 69-68v24" id="P"/><g id="i"><use transform="matrix(0.05,0,0,0.05,0,0)" xlink:href="#D"/><use transform="matrix(0.05,0,0,0.05,5,0)" xlink:href="#G"/><use transform="matrix(0.05,0,0,0.05,10.95,0)" xlink:href="#H"/><use transform="matrix(0.05,0,0,0.05,20.95,0)" xlink:href="#C"/><use transform="matrix(0.05,0,0,0.05,30.950000000000003,0)" xlink:href="#P"/><use transform="matrix(0.05,0,0,0.05,35.95,0)" xlink:href="#M"/><use transform="matrix(0.05,0,0,0.05,45.95,0)" xlink:href="#G"/><use transform="matrix(0.05,0,0,0.05,51.900000000000006,0)" xlink:href="#N"/></g><g id="j"><use transform="matrix(0.05,0,0,0.05,0,0)" xlink:href="#P"/><use transform="matrix(0.05,0,0,0.05,5,0)" xlink:href="#M"/><use transform="matrix(0.05,0,0,0.05,15,0)" xlink:href="#G"/></g><path d="M141 0L90-78 38 0H4l68-98-65-92h35l48 74 47-74h35l-64 92 68 98h-35" id="Q"/><path d="M115-194c55 1 70 41 70 98S169 2 115 4C84 4 66-9 55-30l1 105H24l-1-265h31l2 30c10-21 28-34 59-34zm-8 174c40 0 45-34 45-75s-6-73-45-74c-42 0-51 32-51 76 0 43 10 73 51 73" id="R"/><g id="k"><use transform="matrix(0.05,0,0,0.05,0,0)" xlink:href="#E"/><use transform="matrix(0.05,0,0,0.05,10,0)" xlink:href="#Q"/><use transform="matrix(0.05,0,0,0.05,19,0)" xlink:href="#R"/><use transform="matrix(0.05,0,0,0.05,29,0)" xlink:href="#M"/><use transform="matrix(0.05,0,0,0.05,39,0)" xlink:href="#G"/><use transform="matrix(0.05,0,0,0.05,44.95,0)" xlink:href="#D"/></g><g id="l"><use transform="matrix(0.05,0,0,0.05,0,0)" xlink:href="#E"/><use transform="matrix(0.05,0,0,0.05,10,0)" xlink:href="#Q"/><use transform="matrix(0.05,0,0,0.05,19,0)" xlink:href="#R"/><use transform="matrix(0.05,0,0,0.05,29,0)" xlink:href="#M"/><use transform="matrix(0.05,0,0,0.05,39,0)" xlink:href="#G"/><use transform="matrix(0.05,0,0,0.05,44.95,0)" xlink:href="#D"/></g><path d="M84 4C-5 8 30-112 23-190h32v120c0 31 7 50 39 49 72-2 45-101 50-169h31l1 190h-30c-1-10 1-25-2-33-11 22-28 36-60 37" id="S"/><g id="m"><use transform="matrix(0.05,0,0,0.05,0,0)" xlink:href="#S"/><use transform="matrix(0.05,0,0,0.05,10,0)" xlink:href="#R"/><use transform="matrix(0.05,0,0,0.05,20,0)" xlink:href="#I"/><use transform="matrix(0.05,0,0,0.05,30,0)" xlink:href="#H"/><use transform="matrix(0.05,0,0,0.05,40,0)" xlink:href="#D"/><use transform="matrix(0.05,0,0,0.05,45,0)" xlink:href="#E"/></g><path d="M96-169c-40 0-48 33-48 73s9 75 48 75c24 0 41-14 43-38l32 2c-6 37-31 61-74 61-59 0-76-41-82-99-10-93 101-131 147-64 4 7 5 14 7 22l-32 3c-4-21-16-35-41-35" id="T"/><g id="n"><use transform="matrix(0.05,0,0,0.05,0,0)" xlink:href="#G"/><use transform="matrix(0.05,0,0,0.05,5.95,0)" xlink:href="#E"/><use transform="matrix(0.05,0,0,0.05,15.949999999999998,0)" xlink:href="#P"/><use transform="matrix(0.05,0,0,0.05,20.95,0)" xlink:href="#E"/><use transform="matrix(0.05,0,0,0.05,30.950000000000003,0)" xlink:href="#G"/><use transform="matrix(0.05,0,0,0.05,36.9,0)" xlink:href="#E"/><use transform="matrix(0.05,0,0,0.05,46.9,0)" xlink:href="#C"/><use transform="matrix(0.05,0,0,0.05,56.900000000000006,0)" xlink:href="#T"/><use transform="matrix(0.05,0,0,0.05,65.9,0)" xlink:href="#E"/><use transform="matrix(0.05,0,0,0.05,75.9,0)" xlink:href="#O"/></g><g id="o"><use transform="matrix(0.05,0,0,0.05,0,0)" xlink:href="#H"/><use transform="matrix(0.05,0,0,0.05,10,0)" xlink:href="#C"/><use transform="matrix(0.05,0,0,0.05,20,0)" xlink:href="#I"/></g><path d="M115-194c53 0 69 39 70 98 0 66-23 100-70 100C84 3 66-7 56-30L54 0H23l1-261h32v101c10-23 28-34 59-34zm-8 174c40 0 45-34 45-75 0-40-5-75-45-74-42 0-51 32-51 76 0 43 10 73 51 73" id="U"/><g id="p"><use transform="matrix(0.05,0,0,0.05,0,0)" xlink:href="#T"/><use transform="matrix(0.05,0,0,0.05,9,0)" xlink:href="#M"/><use transform="matrix(0.05,0,0,0.05,19,0)" xlink:href="#N"/><use transform="matrix(0.05,0,0,0.05,33.95,0)" xlink:href="#U"/><use transform="matrix(0.05,0,0,0.05,43.95,0)" xlink:href="#B"/><use transform="matrix(0.05,0,0,0.05,47.900000000000006,0)" xlink:href="#C"/><use transform="matrix(0.05,0,0,0.05,57.900000000000006,0)" xlink:href="#E"/></g><path fill="#fff" d="M25-224v-37h50v37H25zM25 0v-190h50V0H25" id="V"/><path fill="#fff" d="M135-194c87-1 58 113 63 194h-50c-7-57 23-157-34-157-59 0-34 97-39 157H25l-1-190h47c2 12-1 28 3 38 12-26 28-41 61-42" id="W"/><path fill="#fff" d="M115-3C79 11 28 4 28-45v-112H4v-33h27l15-45h31v45h36v33H77v99c-1 23 16 31 38 25v30" id="X"/><path fill="#fff" d="M185-48c-13 30-37 53-82 52C43 2 14-33 14-96s30-98 90-98c62 0 83 45 84 108H66c0 31 8 55 39 56 18 0 30-7 34-22zm-45-69c5-46-57-63-70-21-2 6-4 13-4 21h74" id="Y"/><path fill="#fff" d="M195-6C206 82 75 100 31 46c-4-6-6-13-8-21l49-6c3 16 16 24 34 25 40 0 42-37 40-79-11 22-30 35-61 35-53 0-70-43-70-97 0-56 18-96 73-97 30 0 46 14 59 34l2-30h47zm-90-29c32 0 41-27 41-63 0-35-9-62-40-62-32 0-39 29-40 63 0 36 9 62 39 62" id="Z"/><path fill="#fff" d="M135-150c-39-12-60 13-60 57V0H25l-1-190h47c2 13-1 29 3 40 6-28 27-53 61-41v41" id="aa"/><path fill="#fff" d="M133-34C117-15 103 5 69 4 32 3 11-16 11-54c-1-60 55-63 116-61 1-26-3-47-28-47-18 1-26 9-28 27l-52-2c7-38 36-58 82-57s74 22 75 68l1 82c-1 14 12 18 25 15v27c-30 8-71 5-69-32zm-48 3c29 0 43-24 42-57-32 0-66-3-65 30 0 17 8 27 23 27" id="ab"/><path fill="#fff" d="M88-194c31-1 46 15 58 34l-1-101h50l1 261h-48c-2-10 0-23-3-31C134-8 116 4 84 4 32 4 16-41 15-95c0-56 19-97 73-99zm17 164c33 0 40-30 41-66 1-37-9-64-41-64s-38 30-39 65c0 43 13 65 39 65" id="ac"/><g id="q"><use transform="matrix(0.05,0,0,0.05,0,0)" xlink:href="#V"/><use transform="matrix(0.05,0,0,0.05,5,0)" xlink:href="#W"/><use transform="matrix(0.05,0,0,0.05,15.950000000000001,0)" xlink:href="#X"/><use transform="matrix(0.05,0,0,0.05,21.900000000000002,0)" xlink:href="#Y"/><use transform="matrix(0.05,0,0,0.05,31.900000000000002,0)" xlink:href="#Z"/><use transform="matrix(0.05,0,0,0.05,42.85,0)" xlink:href="#aa"/><use transform="matrix(0.05,0,0,0.05,49.85,0)" xlink:href="#ab"/><use transform="matrix(0.05,0,0,0.05,59.85,0)" xlink:href="#X"/><use transform="matrix(0.05,0,0,0.05,65.8,0)" xlink:href="#Y"/><use transform="matrix(0.05,0,0,0.05,75.8,0)" xlink:href="#ac"/></g><path d="M135-150c-39-12-60 13-60 57V0H25l-1-190h47c2 13-1 29 3 40 6-28 27-53 61-41v41" id="ad"/><path d="M133-34C117-15 103 5 69 4 32 3 11-16 11-54c-1-60 55-63 116-61 1-26-3-47-28-47-18 1-26 9-28 27l-52-2c7-38 36-58 82-57s74 22 75 68l1 82c-1 14 12 18 25 15v27c-30 8-71 5-69-32zm-48 3c29 0 43-24 42-57-32 0-66-3-65 30 0 17 8 27 23 27" id="ae"/><path d="M231 0h-52l-39-155L100 0H48L-1-190h46L77-45c9-52 24-97 36-145h53l37 145 32-145h46" id="af"/><g id="r"><use transform="matrix(0.05,0,0,0.05,0,0)" xlink:href="#ad"/><use transform="matrix(0.05,0,0,0.05,7,0)" xlink:href="#ae"/><use transform="matrix(0.05,0,0,0.05,17,0)" xlink:href="#af"/></g><path fill="#fff" d="M137-138c1-29-70-34-71-4 15 46 118 7 119 86 1 83-164 76-172 9l43-7c4 19 20 25 44 25 33 8 57-30 24-41C81-84 22-81 20-136c-2-80 154-74 161-7" id="ag"/><g id="s"><use transform="matrix(0.05,0,0,0.05,0,0)" xlink:href="#V"/><use transform="matrix(0.05,0,0,0.05,5,0)" xlink:href="#W"/><use transform="matrix(0.05,0,0,0.05,15.950000000000001,0)" xlink:href="#Z"/><use transform="matrix(0.05,0,0,0.05,26.900000000000002,0)" xlink:href="#Y"/><use transform="matrix(0.05,0,0,0.05,36.900000000000006,0)" xlink:href="#ag"/><use transform="matrix(0.05,0,0,0.05,46.900000000000006,0)" xlink:href="#X"/><use transform="matrix(0.05,0,0,0.05,52.85,0)" xlink:href="#Y"/><use transform="matrix(0.05,0,0,0.05,62.85,0)" xlink:href="#ac"/></g><path fill="#fff" d="M220-157c-53 9-28 100-34 157h-49v-107c1-27-5-49-29-50C55-147 81-57 75 0H25l-1-190h47c2 12-1 28 3 38 10-53 101-56 108 0 13-22 24-43 59-42 82 1 51 116 57 194h-49v-107c-1-25-5-48-29-50" id="ah"/><g id="t"><use transform="matrix(0.05,0,0,0.05,0,0)" xlink:href="#V"/><use transform="matrix(0.05,0,0,0.05,5,0)" xlink:href="#W"/><use transform="matrix(0.05,0,0,0.05,15.950000000000001,0)" xlink:href="#X"/><use transform="matrix(0.05,0,0,0.05,21.900000000000002,0)" xlink:href="#Y"/><use transform="matrix(0.05,0,0,0.05,31.900000000000002,0)" xlink:href="#ah"/><use transform="matrix(0.05,0,0,0.05,47.900000000000006,0)" xlink:href="#Y"/><use transform="matrix(0.05,0,0,0.05,57.900000000000006,0)" xlink:href="#ac"/><use transform="matrix(0.05,0,0,0.05,68.85000000000001,0)" xlink:href="#V"/><use transform="matrix(0.05,0,0,0.05,73.85000000000001,0)" xlink:href="#ab"/><use transform="matrix(0.05,0,0,0.05,83.85000000000001,0)" xlink:href="#X"/><use transform="matrix(0.05,0,0,0.05,89.80000000000001,0)" xlink:href="#Y"/></g><path fill="#fff" d="M144 0l-44-69L55 0H2l70-98-66-92h53l41 62 40-62h54l-67 91 71 99h-54" id="ai"/><path fill="#fff" d="M135-194c53 0 70 44 70 98 0 56-19 98-73 100-31 1-45-17-59-34 3 33 2 69 2 105H25l-1-265h48c2 10 0 23 3 31 11-24 29-35 60-35zM114-30c33 0 39-31 40-66 0-38-9-64-40-64-56 0-55 130 0 130" id="aj"/><path fill="#fff" d="M110-194c64 0 96 36 96 99 0 64-35 99-97 99-61 0-95-36-95-99 0-62 34-99 96-99zm-1 164c35 0 45-28 45-65 0-40-10-65-43-65-34 0-45 26-45 65 0 36 10 65 43 65" id="ak"/><g id="u"><use transform="matrix(0.05,0,0,0.05,0,0)" xlink:href="#Y"/><use transform="matrix(0.05,0,0,0.05,10,0)" xlink:href="#ai"/><use transform="matrix(0.05,0,0,0.05,20,0)" xlink:href="#aj"/><use transform="matrix(0.05,0,0,0.05,30.950000000000003,0)" xlink:href="#ak"/><use transform="matrix(0.05,0,0,0.05,41.900000000000006,0)" xlink:href="#aa"/><use transform="matrix(0.05,0,0,0.05,48.900000000000006,0)" xlink:href="#X"/></g><path d="M121-226c-27-7-43 5-38 36h38v33H83V0H34v-157H6v-33h28c-9-59 32-81 87-68v32" id="al"/><path d="M110-194c64 0 96 36 96 99 0 64-35 99-97 99-61 0-95-36-95-99 0-62 34-99 96-99zm-1 164c35 0 45-28 45-65 0-40-10-65-43-65-34 0-45 26-45 65 0 36 10 65 43 65" id="am"/><path d="M25 0v-261h50V0H25" id="an"/><path d="M88-194c31-1 46 15 58 34l-1-101h50l1 261h-48c-2-10 0-23-3-31C134-8 116 4 84 4 32 4 16-41 15-95c0-56 19-97 73-99zm17 164c33 0 40-30 41-66 1-37-9-64-41-64s-38 30-39 65c0 43 13 65 39 65" id="ao"/><path d="M185-48c-13 30-37 53-82 52C43 2 14-33 14-96s30-98 90-98c62 0 83 45 84 108H66c0 31 8 55 39 56 18 0 30-7 34-22zm-45-69c5-46-57-63-70-21-2 6-4 13-4 21h74" id="ap"/><g id="v"><use transform="matrix(0.05,0,0,0.05,0,0)" xlink:href="#al"/><use transform="matrix(0.05,0,0,0.05,5.95,0)" xlink:href="#am"/><use transform="matrix(0.05,0,0,0.05,16.900000000000002,0)" xlink:href="#an"/><use transform="matrix(0.05,0,0,0.05,21.900000000000002,0)" xlink:href="#ao"/><use transform="matrix(0.05,0,0,0.05,32.85,0)" xlink:href="#ap"/><use transform="matrix(0.05,0,0,0.05,42.85,0)" xlink:href="#ad"/></g><path d="M190-63c-7 42-38 67-86 67-59 0-84-38-90-98-12-110 154-137 174-36l-49 2c-2-19-15-32-35-32-30 0-35 28-38 64-6 74 65 87 74 30" id="aq"/><path d="M135-194c87-1 58 113 63 194h-50c-7-57 23-157-34-157-59 0-34 97-39 157H25l-1-190h47c2 12-1 28 3 38 12-26 28-41 61-42" id="ar"/><path d="M128 0H69L1-190h53L99-40l48-150h52" id="as"/><path d="M115-3C79 11 28 4 28-45v-112H4v-33h27l15-45h31v45h36v33H77v99c-1 23 16 31 38 25v30" id="at"/><path d="M25-224v-37h50v37H25zM25 0v-190h50V0H25" id="au"/><path d="M137-138c1-29-70-34-71-4 15 46 118 7 119 86 1 83-164 76-172 9l43-7c4 19 20 25 44 25 33 8 57-30 24-41C81-84 22-81 20-136c-2-80 154-74 161-7" id="av"/><g id="w"><use transform="matrix(0.05,0,0,0.05,0,0)" xlink:href="#aq"/><use transform="matrix(0.05,0,0,0.05,10,0)" xlink:href="#am"/><use transform="matrix(0.05,0,0,0.05,20.950000000000003,0)" xlink:href="#ar"/><use transform="matrix(0.05,0,0,0.05,31.900000000000006,0)" xlink:href="#as"/><use transform="matrix(0.05,0,0,0.05,41.900000000000006,0)" xlink:href="#ap"/><use transform="matrix(0.05,0,0,0.05,51.900000000000006,0)" xlink:href="#ar"/><use transform="matrix(0.05,0,0,0.05,62.85,0)" xlink:href="#at"/><use transform="matrix(0.05,0,0,0.05,68.80000000000001,0)" xlink:href="#au"/><use transform="matrix(0.05,0,0,0.05,73.80000000000001,0)" xlink:href="#am"/><use transform="matrix(0.05,0,0,0.05,84.75000000000001,0)" xlink:href="#ar"/><use transform="matrix(0.05,0,0,0.05,95.70000000000002,0)" xlink:href="#av"/></g><path fill="#fff" d="M123 10C108 53 80 86 19 72V37c35 8 53-11 59-39L3-190h52l48 148c12-52 28-100 44-148h51" id="aw"/><g id="x"><use transform="matrix(0.05,0,0,0.05,0,0)" xlink:href="#X"/><use transform="matrix(0.05,0,0,0.05,5.95,0)" xlink:href="#Y"/><use transform="matrix(0.05,0,0,0.05,15.949999999999998,0)" xlink:href="#ah"/><use transform="matrix(0.05,0,0,0.05,31.950000000000003,0)" xlink:href="#aj"/><use transform="matrix(0.05,0,0,0.05,42.9,0)" xlink:href="#ak"/><use transform="matrix(0.05,0,0,0.05,53.85,0)" xlink:href="#aa"/><use transform="matrix(0.05,0,0,0.05,60.85,0)" xlink:href="#ab"/><use transform="matrix(0.05,0,0,0.05,70.85,0)" xlink:href="#aa"/><use transform="matrix(0.05,0,0,0.05,77.85,0)" xlink:href="#aw"/></g><g id="y"><use transform="matrix(0.05,0,0,0.05,0,0)" xlink:href="#R"/><use transform="matrix(0.05,0,0,0.05,10,0)" xlink:href="#G"/><use transform="matrix(0.05,0,0,0.05,15.949999999999998,0)" xlink:href="#M"/><use transform="matrix(0.05,0,0,0.05,25.950000000000003,0)" xlink:href="#I"/><use transform="matrix(0.05,0,0,0.05,35.95,0)" xlink:href="#S"/><use transform="matrix(0.05,0,0,0.05,45.95,0)" xlink:href="#T"/><use transform="matrix(0.05,0,0,0.05,54.95,0)" xlink:href="#D"/><use transform="matrix(0.05,0,0,0.05,59.95,0)" xlink:href="#O"/></g><g id="z"><use transform="matrix(0.05,0,0,0.05,0,0)" xlink:href="#B"/><use transform="matrix(0.05,0,0,0.05,3.95,0)" xlink:href="#C"/><use transform="matrix(0.05,0,0,0.05,13.949999999999998,0)" xlink:href="#D"/><use transform="matrix(0.05,0,0,0.05,18.95,0)" xlink:href="#E"/><use transform="matrix(0.05,0,0,0.05,28.950000000000003,0)" xlink:href="#F"/><use transform="matrix(0.05,0,0,0.05,38.95,0)" xlink:href="#G"/><use transform="matrix(0.05,0,0,0.05,44.900000000000006,0)" xlink:href="#H"/><use transform="matrix(0.05,0,0,0.05,54.900000000000006,0)" xlink:href="#D"/><use transform="matrix(0.05,0,0,0.05,59.900000000000006,0)" xlink:href="#E"/><use transform="matrix(0.05,0,0,0.05,69.9,0)" xlink:href="#I"/></g><g id="A"><use transform="matrix(0.05,0,0,0.05,0,0)" xlink:href="#M"/><use transform="matrix(0.05,0,0,0.05,10,0)" xlink:href="#G"/><use transform="matrix(0.05,0,0,0.05,15.949999999999998,0)" xlink:href="#I"/><use transform="matrix(0.05,0,0,0.05,25.950000000000003,0)" xlink:href="#E"/><use transform="matrix(0.05,0,0,0.05,35.95,0)" xlink:href="#G"/><use transform="matrix(0.05,0,0,0.05,41.900000000000006,0)" xlink:href="#O"/></g></defs></g></svg>